  0
SECTION
  2
HEADER
  9
$ACADVER
  1
AC1032
  9
$ACADMAINTVER
 90
      155
  9
$DWGCODEPAGE
  3
ANSI_1252
  9
$LASTSAVEDBY
  1
claudine.lapray
  9
$REQUIREDVERSIONS
160
                 0
  9
$INSBASE
 10
0.0
 20
0.0
 30
0.0
  9
$EXTMIN
 10
0.0
 20
0.0
 30
-0.048
  9
$EXTMAX
 10
68.967804
 20
218.010478
 30
0.4660000000000001
  9
$LIMMIN
 10
0.0
 20
0.0
  9
$LIMMAX
 10
12.0
 20
9.0
  9
$ORTHOMODE
 70
     0
  9
$REGENMODE
 70
     1
  9
$FILLMODE
 70
     1
  9
$QTEXTMODE
 70
     0
  9
$MIRRTEXT
 70
     0
  9
$LTSCALE
 40
1.0
  9
$ATTMODE
 70
     1
  9
$TEXTSIZE
 40
0.2
  9
$TRACEWID
 40
0.05
  9
$TEXTSTYLE
  7
Standard
  9
$CLAYER
  8
0
  9
$CELTYPE
  6
ByLayer
  9
$CECOLOR
 62
   256
  9
$CELTSCALE
 40
1.0
  9
$DISPSILH
 70
     0
  9
$DIMSCALE
 40
1.0
  9
$DIMASZ
 40
0.18
  9
$DIMEXO
 40
0.0625
  9
$DIMDLI
 40
0.38
  9
$DIMRND
 40
0.0
  9
$DIMDLE
 40
0.0
  9
$DIMEXE
 40
0.18
  9
$DIMTP
 40
0.0
  9
$DIMTM
 40
0.0
  9
$DIMTXT
 40
0.18
  9
$DIMCEN
 40
0.09
  9
$DIMTSZ
 40
0.0
  9
$DIMTOL
 70
     0
  9
$DIMLIM
 70
     0
  9
$DIMTIH
 70
     1
  9
$DIMTOH
 70
     1
  9
$DIMSE1
 70
     0
  9
$DIMSE2
 70
     0
  9
$DIMTAD
 70
     0
  9
$DIMZIN
 70
     0
  9
$DIMBLK
  1

  9
$DIMASO
 70
     1
  9
$DIMSHO
 70
     1
  9
$DIMPOST
  1

  9
$DIMAPOST
  1

  9
$DIMALT
 70
     0
  9
$DIMALTD
 70
     2
  9
$DIMALTF
 40
25.4
  9
$DIMLFAC
 40
1.0
  9
$DIMTOFL
 70
     0
  9
$DIMTVP
 40
0.0
  9
$DIMTIX
 70
     0
  9
$DIMSOXD
 70
     0
  9
$DIMSAH
 70
     0
  9
$DIMBLK1
  1

  9
$DIMBLK2
  1

  9
$DIMSTYLE
  2
Standard
  9
$DIMCLRD
 70
     0
  9
$DIMCLRE
 70
     0
  9
$DIMCLRT
 70
     0
  9
$DIMTFAC
 40
1.0
  9
$DIMGAP
 40
0.09
  9
$DIMJUST
 70
     0
  9
$DIMSD1
 70
     0
  9
$DIMSD2
 70
     0
  9
$DIMTOLJ
 70
     1
  9
$DIMTZIN
 70
     0
  9
$DIMALTZ
 70
     0
  9
$DIMALTTZ
 70
     0
  9
$DIMUPT
 70
     0
  9
$DIMDEC
 70
     4
  9
$DIMTDEC
 70
     4
  9
$DIMALTU
 70
     2
  9
$DIMALTTD
 70
     2
  9
$DIMTXSTY
  7
Standard
  9
$DIMAUNIT
 70
     0
  9
$DIMADEC
 70
     0
  9
$DIMALTRND
 40
0.0
  9
$DIMAZIN
 70
     0
  9
$DIMDSEP
 70
    46
  9
$DIMATFIT
 70
     3
  9
$DIMFRAC
 70
     0
  9
$DIMLDRBLK
  1

  9
$DIMLUNIT
 70
     2
  9
$DIMLWD
 70
    -2
  9
$DIMLWE
 70
    -2
  9
$DIMTMOVE
 70
     0
  9
$DIMFXL
 40
1.0
  9
$DIMFXLON
 70
     0
  9
$DIMJOGANG
 40
0.7853981633974483
  9
$DIMTFILL
 70
     0
  9
$DIMTFILLCLR
 70
     0
  9
$DIMARCSYM
 70
     0
  9
$DIMLTYPE
  6

  9
$DIMLTEX1
  6

  9
$DIMLTEX2
  6

  9
$DIMTXTDIRECTION
 70
     0
  9
$LUNITS
 70
     2
  9
$LUPREC
 70
     4
  9
$SKETCHINC
 40
0.1
  9
$FILLETRAD
 40
0.0
  9
$AUNITS
 70
     0
  9
$AUPREC
 70
     0
  9
$MENU
  1
.
  9
$ELEVATION
 40
0.0
  9
$PELEVATION
 40
0.0
  9
$THICKNESS
 40
0.0
  9
$LIMCHECK
 70
     0
  9
$CHAMFERA
 40
0.0
  9
$CHAMFERB
 40
0.0
  9
$CHAMFERC
 40
0.0
  9
$CHAMFERD
 40
0.0
  9
$SKPOLY
 70
     0
  9
$TDCREATE
 40
2458900.525914352
  9
$TDUCREATE
 40
2458900.484247686
  9
$TDUPDATE
 40
2458900.526157408
  9
$TDUUPDATE
 40
2458900.484490741
  9
$TDINDWG
 40
0.0002430556
  9
$TDUSRTIMER
 40
0.0002430556
  9
$USRTIMER
 70
     1
  9
$ANGBASE
 50
0.0
  9
$ANGDIR
 70
     0
  9
$PDMODE
 70
     0
  9
$PDSIZE
 40
0.0
  9
$PLINEWID
 40
0.0
  9
$SPLFRAME
 70
     0
  9
$SPLINETYPE
 70
     6
  9
$SPLINESEGS
 70
     8
  9
$HANDSEED
  5
251
  9
$SURFTAB1
 70
     6
  9
$SURFTAB2
 70
     6
  9
$SURFTYPE
 70
     6
  9
$SURFU
 70
     6
  9
$SURFV
 70
     6
  9
$UCSBASE
  2

  9
$UCSNAME
  2

  9
$UCSORG
 10
0.0
 20
0.0
 30
0.0
  9
$UCSXDIR
 10
1.0
 20
0.0
 30
0.0
  9
$UCSYDIR
 10
0.0
 20
1.0
 30
0.0
  9
$UCSORTHOREF
  2

  9
$UCSORTHOVIEW
 70
     0
  9
$UCSORGTOP
 10
0.0
 20
0.0
 30
0.0
  9
$UCSORGBOTTOM
 10
0.0
 20
0.0
 30
0.0
  9
$UCSORGLEFT
 10
0.0
 20
0.0
 30
0.0
  9
$UCSORGRIGHT
 10
0.0
 20
0.0
 30
0.0
  9
$UCSORGFRONT
 10
0.0
 20
0.0
 30
0.0
  9
$UCSORGBACK
 10
0.0
 20
0.0
 30
0.0
  9
$PUCSBASE
  2

  9
$PUCSNAME
  2

  9
$PUCSORG
 10
0.0
 20
0.0
 30
0.0
  9
$PUCSXDIR
 10
1.0
 20
0.0
 30
0.0
  9
$PUCSYDIR
 10
0.0
 20
1.0
 30
0.0
  9
$PUCSORTHOREF
  2

  9
$PUCSORTHOVIEW
 70
     0
  9
$PUCSORGTOP
 10
0.0
 20
0.0
 30
0.0
  9
$PUCSORGBOTTOM
 10
0.0
 20
0.0
 30
0.0
  9
$PUCSORGLEFT
 10
0.0
 20
0.0
 30
0.0
  9
$PUCSORGRIGHT
 10
0.0
 20
0.0
 30
0.0
  9
$PUCSORGFRONT
 10
0.0
 20
0.0
 30
0.0
  9
$PUCSORGBACK
 10
0.0
 20
0.0
 30
0.0
  9
$USERI1
 70
     0
  9
$USERI2
 70
     0
  9
$USERI3
 70
     0
  9
$USERI4
 70
     0
  9
$USERI5
 70
     0
  9
$USERR1
 40
0.0
  9
$USERR2
 40
0.0
  9
$USERR3
 40
0.0
  9
$USERR4
 40
0.0
  9
$USERR5
 40
0.0
  9
$WORLDVIEW
 70
     1
  9
$SHADEDGE
 70
     3
  9
$SHADEDIF
 70
    70
  9
$TILEMODE
 70
     1
  9
$MAXACTVP
 70
    64
  9
$PINSBASE
 10
0.0
 20
0.0
 30
0.0
  9
$PLIMCHECK
 70
     0
  9
$PEXTMIN
 10
1.000000000000000E+20
 20
1.000000000000000E+20
 30
1.000000000000000E+20
  9
$PEXTMAX
 10
-1.000000000000000E+20
 20
-1.000000000000000E+20
 30
-1.000000000000000E+20
  9
$PLIMMIN
 10
0.0
 20
0.0
  9
$PLIMMAX
 10
12.0
 20
9.0
  9
$UNITMODE
 70
     0
  9
$VISRETAIN
 70
     1
  9
$PLINEGEN
 70
     0
  9
$PSLTSCALE
 70
     1
  9
$TREEDEPTH
 70
  3020
  9
$CMLSTYLE
  2
Standard
  9
$CMLJUST
 70
     0
  9
$CMLSCALE
 40
1.0
  9
$PROXYGRAPHICS
 70
     1
  9
$MEASUREMENT
 70
     0
  9
$CELWEIGHT
370
    -1
  9
$ENDCAPS
280
     0
  9
$JOINSTYLE
280
     0
  9
$LWDISPLAY
290
     0
  9
$INSUNITS
 70
     6
  9
$HYPERLINKBASE
  1

  9
$STYLESHEET
  1

  9
$XEDIT
290
     1
  9
$CEPSNTYPE
380
     0
  9
$PSTYLEMODE
290
     1
  9
$FINGERPRINTGUID
  2
{D0B61811-CFAC-F748-99FE-B1E58EB51CD1}
  9
$VERSIONGUID
  2
{D6B2BF42-9D42-4647-9F80-00A2B4946B82}
  9
$EXTNAMES
290
     1
  9
$PSVPSCALE
 40
0.0
  9
$OLESTARTUP
290
     0
  9
$SORTENTS
280
   127
  9
$INDEXCTL
280
     0
  9
$HIDETEXT
280
     0
  9
$XCLIPFRAME
280
     2
  9
$HALOGAP
280
     0
  9
$OBSCOLOR
 70
   257
  9
$OBSLTYPE
280
     0
  9
$INTERSECTIONDISPLAY
280
     0
  9
$INTERSECTIONCOLOR
 70
   257
  9
$DIMASSOC
280
     1
  9
$PROJECTNAME
  1

  9
$CAMERADISPLAY
290
     0
  9
$LENSLENGTH
 40
50.0
  9
$CAMERAHEIGHT
 40
0.0
  9
$STEPSPERSEC
 40
2.0
  9
$STEPSIZE
 40
6.0
  9
$3DDWFPREC
 40
2.0
  9
$PSOLWIDTH
 40
0.25
  9
$PSOLHEIGHT
 40
4.0
  9
$LOFTANG1
 40
1.570796326794896
  9
$LOFTANG2
 40
1.570796326794896
  9
$LOFTMAG1
 40
0.0
  9
$LOFTMAG2
 40
0.0
  9
$LOFTPARAM
 70
     7
  9
$LOFTNORMALS
280
     1
  9
$LATITUDE
 40
37.795
  9
$LONGITUDE
 40
-122.394
  9
$NORTHDIRECTION
 40
0.0
  9
$TIMEZONE
 70
 -8000
  9
$LIGHTGLYPHDISPLAY
280
     1
  9
$TILEMODELIGHTSYNCH
280
     1
  9
$CMATERIAL
347
11
  9
$SOLIDHIST
280
     0
  9
$SHOWHIST
280
     1
  9
$DWFFRAME
280
     2
  9
$DGNFRAME
280
     0
  9
$REALWORLDSCALE
290
     1
  9
$INTERFERECOLOR
 62
     1
  9
$INTERFEREOBJVS
345
33
  9
$INTERFEREVPVS
346
30
  9
$CSHADOW
280
     0
  9
$SHADOWPLANELOCATION
 40
0.0
  0
ENDSEC
  0
SECTION
  2
CLASSES
  0
CLASS
  1
ACDBDICTIONARYWDFLT
  2
AcDbDictionaryWithDefault
  3
ObjectDBX Classes
 90
        0
 91
        1
280
     0
281
     0
  0
CLASS
  1
MATERIAL
  2
AcDbMaterial
  3
ObjectDBX Classes
 90
     1153
 91
        3
280
     0
281
     0
  0
CLASS
  1
VISUALSTYLE
  2
AcDbVisualStyle
  3
ObjectDBX Classes
 90
     4095
 91
       24
280
     0
281
     0
  0
CLASS
  1
SCALE
  2
AcDbScale
  3
ObjectDBX Classes
 90
     1153
 91
       17
280
     0
281
     0
  0
CLASS
  1
TABLESTYLE
  2
AcDbTableStyle
  3
ObjectDBX Classes
 90
     4095
 91
        1
280
     0
281
     0
  0
CLASS
  1
MLEADERSTYLE
  2
AcDbMLeaderStyle
  3
ACDB_MLEADERSTYLE_CLASS
 90
     4095
 91
        1
280
     0
281
     0
  0
CLASS
  1
ACDBSECTIONVIEWSTYLE
  2
AcDbSectionViewStyle
  3
ObjectDBX Classes
 90
     1025
 91
        1
280
     0
281
     0
  0
CLASS
  1
ACDBDETAILVIEWSTYLE
  2
AcDbDetailViewStyle
  3
ObjectDBX Classes
 90
     1025
 91
        1
280
     0
281
     0
  0
CLASS
  1
DICTIONARYVAR
  2
AcDbDictionaryVar
  3
ObjectDBX Classes
 90
        0
 91
        9
280
     0
281
     0
  0
CLASS
  1
CELLSTYLEMAP
  2
AcDbCellStyleMap
  3
ObjectDBX Classes
 90
     1152
 91
        1
280
     0
281
     0
  0
ENDSEC
  0
SECTION
  2
TABLES
  0
TABLE
  2
VPORT
  5
8
330
0
100
AcDbSymbolTable
 70
     1
  0
VPORT
  5
76
330
8
100
AcDbSymbolTableRecord
100
AcDbViewportTableRecord
  2
*Active
 70
     0
 10
0.0
 20
0.0
 11
1.0
 21
1.0
 12
9.971709006928406
 22
4.5
 13
0.0
 23
0.0
 14
1.0
 24
1.0
 15
0.0
 25
0.0
 16
0.0
 26
0.0
 36
1.0
 17
0.0
 27
0.0
 37
0.0
 40
8.699586375093183
 41
1.887694145758661
 42
50.0
 43
0.0
 44
0.0
 50
0.0
 51
0.0
 71
     0
 72
   100
 73
     1
 74
     0
 75
     1
 76
     0
 77
     0
 78
     0
281
     0
 65
     1
110
0.0
120
0.0
130
0.0
111
1.0
121
0.0
131
0.0
112
0.0
122
1.0
132
0.0
 79
     0
146
0.0
348
2F
 60
     3
 61
     5
292
     1
282
     1
141
0.0
142
0.0
 63
   250
421
  3355443
1001
ACAD_NAV_VCDISPLAY
1070
     3
  0
ENDTAB
  0
TABLE
  2
LTYPE
  5
5
330
0
100
AcDbSymbolTable
 70
     2
  0
LTYPE
  5
5A
330
5
100
AcDbSymbolTableRecord
100
AcDbLinetypeTableRecord
  2
ByBlock
 70
     0
  3

 72
    65
 73
     0
 40
0.0
  0
LTYPE
  5
5B
330
5
100
AcDbSymbolTableRecord
100
AcDbLinetypeTableRecord
  2
ByLayer
 70
     0
  3

 72
    65
 73
     0
 40
0.0
  0
LTYPE
  5
5C
330
5
100
AcDbSymbolTableRecord
100
AcDbLinetypeTableRecord
  2
CONTINUOUS
 70
     0
  3
Solid line ____________________
 72
    65
 73
     0
 40
0.0
  0
LTYPE
  5
73
330
5
100
AcDbSymbolTableRecord
100
AcDbLinetypeTableRecord
  2
DASHED
 70
     0
  3
Dashed _  _  _  _  _  _  _  _  _
 72
    65
 73
     2
 40
20.0
 49
10.0
 74
     0
 49
-10.0
 74
     0
  0
ENDTAB
  0
TABLE
  2
LAYER
  5
2
330
0
100
AcDbSymbolTable
 70
     2
  0
LAYER
  5
54
102
{ACAD_XDICTIONARY
360
23F
102
}
330
2
100
AcDbSymbolTableRecord
100
AcDbLayerTableRecord
  2
0
 70
     0
 62
     7
  6
CONTINUOUS
370
    -3
390
F
347
21
348
0
  0
LAYER
  5
74
102
{ACAD_XDICTIONARY
360
241
102
}
330
2
100
AcDbSymbolTableRecord
100
AcDbLayerTableRecord
  2
GVSTRACKS
 70
     0
 62
     7
  6
CONTINUOUS
370
    -3
390
F
347
21
348
0
  0
ENDTAB
  0
TABLE
  2
STYLE
  5
3
330
0
100
AcDbSymbolTable
 70
     2
  0
STYLE
  5
55
330
3
100
AcDbSymbolTableRecord
100
AcDbTextStyleTableRecord
  2
Standard
 70
     0
 40
0.0
 41
1.0
 50
0.0
 71
     0
 42
0.2
  3
txt
  4

  0
STYLE
  5
59
330
3
100
AcDbSymbolTableRecord
100
AcDbTextStyleTableRecord
  2
Annotative
 70
     0
 40
0.0
 41
1.0
 50
0.0
 71
     0
 42
0.2
  3
txt
  4

1001
AcadAnnotative
1000
AnnotativeData
1002
{
1070
     1
1070
     1
1002
}
  0
ENDTAB
  0
TABLE
  2
VIEW
  5
6
330
0
100
AcDbSymbolTable
 70
     0
  0
ENDTAB
  0
TABLE
  2
UCS
  5
7
330
0
100
AcDbSymbolTable
 70
     0
  0
ENDTAB
  0
TABLE
  2
APPID
  5
9
330
0
100
AcDbSymbolTable
 70
     3
  0
APPID
  5
56
330
9
100
AcDbSymbolTableRecord
100
AcDbRegAppTableRecord
  2
ACAD
 70
     0
  0
APPID
  5
5D
330
9
100
AcDbSymbolTableRecord
100
AcDbRegAppTableRecord
  2
AcadAnnotative
 70
     0
  0
APPID
  5
24D
330
9
100
AcDbSymbolTableRecord
100
AcDbRegAppTableRecord
  2
ACAD_NAV_VCDISPLAY
 70
     0
  0
ENDTAB
  0
TABLE
  2
DIMSTYLE
  5
A
330
0
100
AcDbSymbolTable
 70
     2
100
AcDbDimStyleTable
 71
     0
  0
DIMSTYLE
105
57
330
A
100
AcDbSymbolTableRecord
100
AcDbDimStyleTableRecord
  2
Standard
 70
     0
340
55
  0
DIMSTYLE
105
58
330
A
100
AcDbSymbolTableRecord
100
AcDbDimStyleTableRecord
  2
Annotative
 70
     0
340
55
1001
AcadAnnotative
1000
AnnotativeData
1002
{
1070
     1
1070
     1
1002
}
  0
ENDTAB
  0
TABLE
  2
BLOCK_RECORD
  5
1
330
0
100
AcDbSymbolTable
 70
     0
  0
BLOCK_RECORD
  5
6F
330
1
100
AcDbSymbolTableRecord
100
AcDbBlockTableRecord
  2
*Model_Space
340
72
 70
     0
280
     1
281
     0
  0
BLOCK_RECORD
  5
6B
330
1
100
AcDbSymbolTableRecord
100
AcDbBlockTableRecord
  2
*Paper_Space
340
6E
 70
     0
280
     1
281
     0
  0
ENDTAB
  0
ENDSEC
  0
SECTION
  2
BLOCKS
  0
BLOCK
  5
70
330
6F
100
AcDbEntity
  8
0
100
AcDbBlockBegin
  2
*Model_Space
 70
     0
 10
0.0
 20
0.0
 30
0.0
  3
*Model_Space
  1

  0
ENDBLK
  5
71
330
6F
100
AcDbEntity
  8
0
100
AcDbBlockEnd
  0
BLOCK
  5
6C
330
6B
100
AcDbEntity
 67
     1
  8
0
100
AcDbBlockBegin
  2
*Paper_Space
 70
     0
 10
0.0
 20
0.0
 30
0.0
  3
*Paper_Space
  1

  0
ENDBLK
  5
6D
330
6B
100
AcDbEntity
 67
     1
  8
0
100
AcDbBlockEnd
  0
ENDSEC
  0
SECTION
  2
ENTITIES
  0
POLYLINE
  5
77
330
6F
100
AcDbEntity
  8
GVSTRACKS
  6
Continuous
 62
   181
100
AcDb3dPolyline
 66
     1
 10
0.0
 20
0.0
 30
0.0
 70
     8
  0
VERTEX
  5
78
330
77
100
AcDbEntity
  8
GVSTRACKS
 62
   181
100
AcDbVertex
100
AcDb3dPolylineVertex
 10
0.0
 20
0.0
 30
0.0
 70
    32
  0
VERTEX
  5
79
330
77
100
AcDbEntity
  8
GVSTRACKS
 62
   181
100
AcDbVertex
100
AcDb3dPolylineVertex
 10
0.122992
 20
0.4846880000000001
 30
-0.009
 70
    32
  0
VERTEX
  5
7A
330
77
100
AcDbEntity
  8
GVSTRACKS
 62
   181
100
AcDbVertex
100
AcDb3dPolylineVertex
 10
0.242959
 20
0.971217
 30
-0.007
 70
    32
  0
VERTEX
  5
7B
330
77
100
AcDbEntity
  8
GVSTRACKS
 62
   181
100
AcDbVertex
100
AcDb3dPolylineVertex
 10
0.3587280000000001
 20
1.458229
 30
-0.004
 70
    32
  0
VERTEX
  5
7C
330
77
100
AcDbEntity
  8
GVSTRACKS
 62
   181
100
AcDbVertex
100
AcDb3dPolylineVertex
 10
0.4746180000000001
 20
1.944756
 30
-0.003
 70
    32
  0
VERTEX
  5
7D
330
77
100
AcDbEntity
  8
GVSTRACKS
 62
   181
100
AcDbVertex
100
AcDb3dPolylineVertex
 10
0.590707
 20
2.433459
 30
-0.002
 70
    32
  0
VERTEX
  5
7E
330
77
100
AcDbEntity
  8
GVSTRACKS
 62
   181
100
AcDbVertex
100
AcDb3dPolylineVertex
 10
0.705799
 20
2.92171
 30
0.0
 70
    32
  0
VERTEX
  5
7F
330
77
100
AcDbEntity
  8
GVSTRACKS
 62
   181
100
AcDbVertex
100
AcDb3dPolylineVertex
 10
0.8196809999999999
 20
3.409515
 30
0.0
 70
    32
  0
VERTEX
  5
80
330
77
100
AcDbEntity
  8
GVSTRACKS
 62
   181
100
AcDbVertex
100
AcDb3dPolylineVertex
 10
0.931827
 20
3.898562
 30
0.0
 70
    32
  0
VERTEX
  5
81
330
77
100
AcDbEntity
  8
GVSTRACKS
 62
   181
100
AcDbVertex
100
AcDb3dPolylineVertex
 10
1.045949999999999
 20
4.386601999999999
 30
0.0
 70
    32
  0
VERTEX
  5
82
330
77
100
AcDbEntity
  8
GVSTRACKS
 62
   181
100
AcDbVertex
100
AcDb3dPolylineVertex
 10
1.159273999999999
 20
4.875071
 30
0.0
 70
    32
  0
VERTEX
  5
83
330
77
100
AcDbEntity
  8
GVSTRACKS
 62
   181
100
AcDbVertex
100
AcDb3dPolylineVertex
 10
1.271058
 20
5.362860999999999
 30
-0.001
 70
    32
  0
VERTEX
  5
84
330
77
100
AcDbEntity
  8
GVSTRACKS
 62
   181
100
AcDbVertex
100
AcDb3dPolylineVertex
 10
1.38535
 20
5.854255
 30
-0.001
 70
    32
  0
VERTEX
  5
85
330
77
100
AcDbEntity
  8
GVSTRACKS
 62
   181
100
AcDbVertex
100
AcDb3dPolylineVertex
 10
1.501082999999999
 20
6.345887999999999
 30
-0.001
 70
    32
  0
VERTEX
  5
86
330
77
100
AcDbEntity
  8
GVSTRACKS
 62
   181
100
AcDbVertex
100
AcDb3dPolylineVertex
 10
1.617804999999999
 20
6.837017999999999
 30
-0.002
 70
    32
  0
VERTEX
  5
87
330
77
100
AcDbEntity
  8
GVSTRACKS
 62
   181
100
AcDbVertex
100
AcDb3dPolylineVertex
 10
1.732613
 20
7.323871
 30
-0.002
 70
    32
  0
VERTEX
  5
88
330
77
100
AcDbEntity
  8
GVSTRACKS
 62
   181
100
AcDbVertex
100
AcDb3dPolylineVertex
 10
1.847879
 20
7.812636
 30
-0.003
 70
    32
  0
VERTEX
  5
89
330
77
100
AcDbEntity
  8
GVSTRACKS
 62
   181
100
AcDbVertex
100
AcDb3dPolylineVertex
 10
1.964288999999999
 20
8.301220999999999
 30
-0.005
 70
    32
  0
VERTEX
  5
8A
330
77
100
AcDbEntity
  8
GVSTRACKS
 62
   181
100
AcDbVertex
100
AcDb3dPolylineVertex
 10
2.080554999999999
 20
8.789621999999999
 30
-0.006
 70
    32
  0
VERTEX
  5
8B
330
77
100
AcDbEntity
  8
GVSTRACKS
 62
   181
100
AcDbVertex
100
AcDb3dPolylineVertex
 10
2.195927
 20
9.282800999999999
 30
-0.008
 70
    32
  0
VERTEX
  5
8C
330
77
100
AcDbEntity
  8
GVSTRACKS
 62
   181
100
AcDbVertex
100
AcDb3dPolylineVertex
 10
2.309178999999999
 20
9.772882
 30
-0.011
 70
    32
  0
VERTEX
  5
8D
330
77
100
AcDbEntity
  8
GVSTRACKS
 62
   181
100
AcDbVertex
100
AcDb3dPolylineVertex
 10
2.425015
 20
10.265133
 30
-0.014
 70
    32
  0
VERTEX
  5
8E
330
77
100
AcDbEntity
  8
GVSTRACKS
 62
   181
100
AcDbVertex
100
AcDb3dPolylineVertex
 10
2.538461999999999
 20
10.760532
 30
-0.018
 70
    32
  0
VERTEX
  5
8F
330
77
100
AcDbEntity
  8
GVSTRACKS
 62
   181
100
AcDbVertex
100
AcDb3dPolylineVertex
 10
2.654037999999999
 20
11.255763
 30
-0.023
 70
    32
  0
VERTEX
  5
90
330
77
100
AcDbEntity
  8
GVSTRACKS
 62
   181
100
AcDbVertex
100
AcDb3dPolylineVertex
 10
2.764352999999999
 20
11.751606
 30
-0.028
 70
    32
  0
VERTEX
  5
91
330
77
100
AcDbEntity
  8
GVSTRACKS
 62
   181
100
AcDbVertex
100
AcDb3dPolylineVertex
 10
2.873629999999999
 20
12.246525
 30
-0.034
 70
    32
  0
VERTEX
  5
92
330
77
100
AcDbEntity
  8
GVSTRACKS
 62
   181
100
AcDbVertex
100
AcDb3dPolylineVertex
 10
2.984516
 20
12.739821
 30
-0.039
 70
    32
  0
VERTEX
  5
93
330
77
100
AcDbEntity
  8
GVSTRACKS
 62
   181
100
AcDbVertex
100
AcDb3dPolylineVertex
 10
3.093636
 20
13.2292
 30
-0.042
 70
    32
  0
VERTEX
  5
94
330
77
100
AcDbEntity
  8
GVSTRACKS
 62
   181
100
AcDbVertex
100
AcDb3dPolylineVertex
 10
3.205224
 20
13.723222
 30
-0.044
 70
    32
  0
VERTEX
  5
95
330
77
100
AcDbEntity
  8
GVSTRACKS
 62
   181
100
AcDbVertex
100
AcDb3dPolylineVertex
 10
3.31409
 20
14.212742
 30
-0.045
 70
    32
  0
VERTEX
  5
96
330
77
100
AcDbEntity
  8
GVSTRACKS
 62
   181
100
AcDbVertex
100
AcDb3dPolylineVertex
 10
3.425959999999999
 20
14.705659
 30
-0.045
 70
    32
  0
VERTEX
  5
97
330
77
100
AcDbEntity
  8
GVSTRACKS
 62
   181
100
AcDbVertex
100
AcDb3dPolylineVertex
 10
3.537903
 20
15.200975
 30
-0.046
 70
    32
  0
VERTEX
  5
98
330
77
100
AcDbEntity
  8
GVSTRACKS
 62
   181
100
AcDbVertex
100
AcDb3dPolylineVertex
 10
3.645473
 20
15.690138
 30
-0.048
 70
    32
  0
VERTEX
  5
99
330
77
100
AcDbEntity
  8
GVSTRACKS
 62
   181
100
AcDbVertex
100
AcDb3dPolylineVertex
 10
3.753673
 20
16.182242
 30
-0.048
 70
    32
  0
VERTEX
  5
9A
330
77
100
AcDbEntity
  8
GVSTRACKS
 62
   181
100
AcDbVertex
100
AcDb3dPolylineVertex
 10
3.868466
 20
16.674599
 30
-0.047
 70
    32
  0
VERTEX
  5
9B
330
77
100
AcDbEntity
  8
GVSTRACKS
 62
   181
100
AcDbVertex
100
AcDb3dPolylineVertex
 10
3.978891999999999
 20
17.171413
 30
-0.046
 70
    32
  0
VERTEX
  5
9C
330
77
100
AcDbEntity
  8
GVSTRACKS
 62
   181
100
AcDbVertex
100
AcDb3dPolylineVertex
 10
4.084909999999999
 20
17.661868
 30
-0.045
 70
    32
  0
VERTEX
  5
9D
330
77
100
AcDbEntity
  8
GVSTRACKS
 62
   181
100
AcDbVertex
100
AcDb3dPolylineVertex
 10
4.198551
 20
18.15194
 30
-0.04
 70
    32
  0
VERTEX
  5
9E
330
77
100
AcDbEntity
  8
GVSTRACKS
 62
   181
100
AcDbVertex
100
AcDb3dPolylineVertex
 10
4.312494999999999
 20
18.642394
 30
-0.035
 70
    32
  0
VERTEX
  5
9F
330
77
100
AcDbEntity
  8
GVSTRACKS
 62
   181
100
AcDbVertex
100
AcDb3dPolylineVertex
 10
4.419649999999999
 20
19.136929
 30
-0.029
 70
    32
  0
VERTEX
  5
A0
330
77
100
AcDbEntity
  8
GVSTRACKS
 62
   181
100
AcDbVertex
100
AcDb3dPolylineVertex
 10
4.528554999999999
 20
19.631746
 30
-0.025
 70
    32
  0
VERTEX
  5
A1
330
77
100
AcDbEntity
  8
GVSTRACKS
 62
   181
100
AcDbVertex
100
AcDb3dPolylineVertex
 10
4.639037
 20
20.126632
 30
-0.021
 70
    32
  0
VERTEX
  5
A2
330
77
100
AcDbEntity
  8
GVSTRACKS
 62
   181
100
AcDbVertex
100
AcDb3dPolylineVertex
 10
4.749128999999999
 20
20.614802
 30
-0.018
 70
    32
  0
VERTEX
  5
A3
330
77
100
AcDbEntity
  8
GVSTRACKS
 62
   181
100
AcDbVertex
100
AcDb3dPolylineVertex
 10
4.858188
 20
21.106234
 30
-0.017
 70
    32
  0
VERTEX
  5
A4
330
77
100
AcDbEntity
  8
GVSTRACKS
 62
   181
100
AcDbVertex
100
AcDb3dPolylineVertex
 10
4.970824999999999
 20
21.602615
 30
-0.015
 70
    32
  0
VERTEX
  5
A5
330
77
100
AcDbEntity
  8
GVSTRACKS
 62
   181
100
AcDbVertex
100
AcDb3dPolylineVertex
 10
5.082627999999999
 20
22.095812
 30
-0.014
 70
    32
  0
VERTEX
  5
A6
330
77
100
AcDbEntity
  8
GVSTRACKS
 62
   181
100
AcDbVertex
100
AcDb3dPolylineVertex
 10
5.195205999999999
 20
22.586704
 30
-0.014
 70
    32
  0
VERTEX
  5
A7
330
77
100
AcDbEntity
  8
GVSTRACKS
 62
   181
100
AcDbVertex
100
AcDb3dPolylineVertex
 10
5.307437999999999
 20
23.076051
 30
-0.013
 70
    32
  0
VERTEX
  5
A8
330
77
100
AcDbEntity
  8
GVSTRACKS
 62
   181
100
AcDbVertex
100
AcDb3dPolylineVertex
 10
5.421508
 20
23.563782
 30
-0.011
 70
    32
  0
VERTEX
  5
A9
330
77
100
AcDbEntity
  8
GVSTRACKS
 62
   181
100
AcDbVertex
100
AcDb3dPolylineVertex
 10
5.535613999999999
 20
24.060041
 30
-0.011
 70
    32
  0
VERTEX
  5
AA
330
77
100
AcDbEntity
  8
GVSTRACKS
 62
   181
100
AcDbVertex
100
AcDb3dPolylineVertex
 10
5.650412
 20
24.553567
 30
-0.011
 70
    32
  0
VERTEX
  5
AB
330
77
100
AcDbEntity
  8
GVSTRACKS
 62
   181
100
AcDbVertex
100
AcDb3dPolylineVertex
 10
5.762564
 20
25.04357000000001
 30
-0.011
 70
    32
  0
VERTEX
  5
AC
330
77
100
AcDbEntity
  8
GVSTRACKS
 62
   181
100
AcDbVertex
100
AcDb3dPolylineVertex
 10
5.882338999999999
 20
25.539009
 30
-0.011
 70
    32
  0
VERTEX
  5
AD
330
77
100
AcDbEntity
  8
GVSTRACKS
 62
   181
100
AcDbVertex
100
AcDb3dPolylineVertex
 10
5.995218
 20
26.031401
 30
-0.013
 70
    32
  0
VERTEX
  5
AE
330
77
100
AcDbEntity
  8
GVSTRACKS
 62
   181
100
AcDbVertex
100
AcDb3dPolylineVertex
 10
6.111946999999999
 20
26.529005
 30
-0.013
 70
    32
  0
VERTEX
  5
AF
330
77
100
AcDbEntity
  8
GVSTRACKS
 62
   181
100
AcDbVertex
100
AcDb3dPolylineVertex
 10
6.22524
 20
27.021152
 30
-0.014
 70
    32
  0
VERTEX
  5
B0
330
77
100
AcDbEntity
  8
GVSTRACKS
 62
   181
100
AcDbVertex
100
AcDb3dPolylineVertex
 10
6.340455
 20
27.51793
 30
-0.015
 70
    32
  0
VERTEX
  5
B1
330
77
100
AcDbEntity
  8
GVSTRACKS
 62
   181
100
AcDbVertex
100
AcDb3dPolylineVertex
 10
6.453706999999999
 20
28.007495
 30
-0.015
 70
    32
  0
VERTEX
  5
B2
330
77
100
AcDbEntity
  8
GVSTRACKS
 62
   181
100
AcDbVertex
100
AcDb3dPolylineVertex
 10
6.566536
 20
28.50208
 30
-0.016
 70
    32
  0
VERTEX
  5
B3
330
77
100
AcDbEntity
  8
GVSTRACKS
 62
   181
100
AcDbVertex
100
AcDb3dPolylineVertex
 10
6.681957999999999
 20
29.000092
 30
-0.017
 70
    32
  0
VERTEX
  5
B4
330
77
100
AcDbEntity
  8
GVSTRACKS
 62
   181
100
AcDbVertex
100
AcDb3dPolylineVertex
 10
6.796213999999999
 20
29.489772
 30
-0.018
 70
    32
  0
VERTEX
  5
B5
330
77
100
AcDbEntity
  8
GVSTRACKS
 62
   181
100
AcDbVertex
100
AcDb3dPolylineVertex
 10
6.911931
 20
29.982384
 30
-0.019
 70
    32
  0
VERTEX
  5
B6
330
77
100
AcDbEntity
  8
GVSTRACKS
 62
   181
100
AcDbVertex
100
AcDb3dPolylineVertex
 10
7.028463999999999
 20
30.478892
 30
-0.02
 70
    32
  0
VERTEX
  5
B7
330
77
100
AcDbEntity
  8
GVSTRACKS
 62
   181
100
AcDbVertex
100
AcDb3dPolylineVertex
 10
7.145311
 20
30.96618
 30
-0.019
 70
    32
  0
VERTEX
  5
B8
330
77
100
AcDbEntity
  8
GVSTRACKS
 62
   181
100
AcDbVertex
100
AcDb3dPolylineVertex
 10
7.263194
 20
31.455813
 30
-0.02
 70
    32
  0
VERTEX
  5
B9
330
77
100
AcDbEntity
  8
GVSTRACKS
 62
   181
100
AcDbVertex
100
AcDb3dPolylineVertex
 10
7.383157
 20
31.947771
 30
-0.02
 70
    32
  0
VERTEX
  5
BA
330
77
100
AcDbEntity
  8
GVSTRACKS
 62
   181
100
AcDbVertex
100
AcDb3dPolylineVertex
 10
7.503044999999999
 20
32.442761
 30
-0.02
 70
    32
  0
VERTEX
  5
BB
330
77
100
AcDbEntity
  8
GVSTRACKS
 62
   181
100
AcDbVertex
100
AcDb3dPolylineVertex
 10
7.629007999999999
 20
32.937843
 30
-0.017
 70
    32
  0
VERTEX
  5
BC
330
77
100
AcDbEntity
  8
GVSTRACKS
 62
   181
100
AcDbVertex
100
AcDb3dPolylineVertex
 10
7.754147999999999
 20
33.42234000000001
 30
-0.016
 70
    32
  0
VERTEX
  5
BD
330
77
100
AcDbEntity
  8
GVSTRACKS
 62
   181
100
AcDbVertex
100
AcDb3dPolylineVertex
 10
7.885463
 20
33.90745900000001
 30
-0.015
 70
    32
  0
VERTEX
  5
BE
330
77
100
AcDbEntity
  8
GVSTRACKS
 62
   181
100
AcDbVertex
100
AcDb3dPolylineVertex
 10
8.023016999999999
 20
34.391624
 30
-0.014
 70
    32
  0
VERTEX
  5
BF
330
77
100
AcDbEntity
  8
GVSTRACKS
 62
   181
100
AcDbVertex
100
AcDb3dPolylineVertex
 10
8.157257000000001
 20
34.878986
 30
-0.012
 70
    32
  0
VERTEX
  5
C0
330
77
100
AcDbEntity
  8
GVSTRACKS
 62
   181
100
AcDbVertex
100
AcDb3dPolylineVertex
 10
8.292645
 20
35.369448
 30
-0.011
 70
    32
  0
VERTEX
  5
C1
330
77
100
AcDbEntity
  8
GVSTRACKS
 62
   181
100
AcDbVertex
100
AcDb3dPolylineVertex
 10
8.439543999999999
 20
35.86020700000001
 30
-0.009
 70
    32
  0
VERTEX
  5
C2
330
77
100
AcDbEntity
  8
GVSTRACKS
 62
   181
100
AcDbVertex
100
AcDb3dPolylineVertex
 10
8.578670999999999
 20
36.340947
 30
-0.008
 70
    32
  0
VERTEX
  5
C3
330
77
100
AcDbEntity
  8
GVSTRACKS
 62
   181
100
AcDbVertex
100
AcDb3dPolylineVertex
 10
8.712552999999999
 20
36.826323
 30
-0.007
 70
    32
  0
VERTEX
  5
C4
330
77
100
AcDbEntity
  8
GVSTRACKS
 62
   181
100
AcDbVertex
100
AcDb3dPolylineVertex
 10
8.855303999999998
 20
37.311753
 30
-0.006
 70
    32
  0
VERTEX
  5
C5
330
77
100
AcDbEntity
  8
GVSTRACKS
 62
   181
100
AcDbVertex
100
AcDb3dPolylineVertex
 10
9.000073
 20
37.799965
 30
-0.004
 70
    32
  0
VERTEX
  5
C6
330
77
100
AcDbEntity
  8
GVSTRACKS
 62
   181
100
AcDbVertex
100
AcDb3dPolylineVertex
 10
9.14963
 20
38.288354
 30
-0.002
 70
    32
  0
VERTEX
  5
C7
330
77
100
AcDbEntity
  8
GVSTRACKS
 62
   181
100
AcDbVertex
100
AcDb3dPolylineVertex
 10
9.298977
 20
38.779341
 30
0.001
 70
    32
  0
VERTEX
  5
C8
330
77
100
AcDbEntity
  8
GVSTRACKS
 62
   181
100
AcDbVertex
100
AcDb3dPolylineVertex
 10
9.447991
 20
39.258668
 30
0.003
 70
    32
  0
VERTEX
  5
C9
330
77
100
AcDbEntity
  8
GVSTRACKS
 62
   181
100
AcDbVertex
100
AcDb3dPolylineVertex
 10
9.597088000000001
 20
39.740231
 30
0.005
 70
    32
  0
VERTEX
  5
CA
330
77
100
AcDbEntity
  8
GVSTRACKS
 62
   181
100
AcDbVertex
100
AcDb3dPolylineVertex
 10
9.749765
 20
40.222217
 30
0.007
 70
    32
  0
VERTEX
  5
CB
330
77
100
AcDbEntity
  8
GVSTRACKS
 62
   181
100
AcDbVertex
100
AcDb3dPolylineVertex
 10
9.901899999999999
 20
40.707384
 30
0.009
 70
    32
  0
VERTEX
  5
CC
330
77
100
AcDbEntity
  8
GVSTRACKS
 62
   181
100
AcDbVertex
100
AcDb3dPolylineVertex
 10
10.056859
 20
41.193057
 30
0.009
 70
    32
  0
VERTEX
  5
CD
330
77
100
AcDbEntity
  8
GVSTRACKS
 62
   181
100
AcDbVertex
100
AcDb3dPolylineVertex
 10
10.210525
 20
41.680963
 30
0.007
 70
    32
  0
VERTEX
  5
CE
330
77
100
AcDbEntity
  8
GVSTRACKS
 62
   181
100
AcDbVertex
100
AcDb3dPolylineVertex
 10
10.365576
 20
42.156769
 30
0.006
 70
    32
  0
VERTEX
  5
CF
330
77
100
AcDbEntity
  8
GVSTRACKS
 62
   181
100
AcDbVertex
100
AcDb3dPolylineVertex
 10
10.521478
 20
42.633662
 30
0.004
 70
    32
  0
VERTEX
  5
D0
330
77
100
AcDbEntity
  8
GVSTRACKS
 62
   181
100
AcDbVertex
100
AcDb3dPolylineVertex
 10
10.676835
 20
43.11325599999999
 30
0.001
 70
    32
  0
VERTEX
  5
D1
330
77
100
AcDbEntity
  8
GVSTRACKS
 62
   181
100
AcDbVertex
100
AcDb3dPolylineVertex
 10
10.837845
 20
43.59292199999999
 30
-0.002
 70
    32
  0
VERTEX
  5
D2
330
77
100
AcDbEntity
  8
GVSTRACKS
 62
   181
100
AcDbVertex
100
AcDb3dPolylineVertex
 10
10.998514
 20
44.075834
 30
-0.004
 70
    32
  0
VERTEX
  5
D3
330
77
100
AcDbEntity
  8
GVSTRACKS
 62
   181
100
AcDbVertex
100
AcDb3dPolylineVertex
 10
11.16142
 20
44.559673
 30
-0.004
 70
    32
  0
VERTEX
  5
D4
330
77
100
AcDbEntity
  8
GVSTRACKS
 62
   181
100
AcDbVertex
100
AcDb3dPolylineVertex
 10
11.327239
 20
45.04432
 30
-0.003
 70
    32
  0
VERTEX
  5
D5
330
77
100
AcDbEntity
  8
GVSTRACKS
 62
   181
100
AcDbVertex
100
AcDb3dPolylineVertex
 10
11.494161
 20
45.53081699999999
 30
-0.002
 70
    32
  0
VERTEX
  5
D6
330
77
100
AcDbEntity
  8
GVSTRACKS
 62
   181
100
AcDbVertex
100
AcDb3dPolylineVertex
 10
11.65931
 20
46.003908
 30
0.0
 70
    32
  0
VERTEX
  5
D7
330
77
100
AcDbEntity
  8
GVSTRACKS
 62
   181
100
AcDbVertex
100
AcDb3dPolylineVertex
 10
11.824157
 20
46.478817
 30
0.003
 70
    32
  0
VERTEX
  5
D8
330
77
100
AcDbEntity
  8
GVSTRACKS
 62
   181
100
AcDbVertex
100
AcDb3dPolylineVertex
 10
11.993021
 20
46.953066
 30
0.007
 70
    32
  0
VERTEX
  5
D9
330
77
100
AcDbEntity
  8
GVSTRACKS
 62
   181
100
AcDbVertex
100
AcDb3dPolylineVertex
 10
12.164788
 20
47.42777
 30
0.012
 70
    32
  0
VERTEX
  5
DA
330
77
100
AcDbEntity
  8
GVSTRACKS
 62
   181
100
AcDbVertex
100
AcDb3dPolylineVertex
 10
12.339918
 20
47.90182399999999
 30
0.017
 70
    32
  0
VERTEX
  5
DB
330
77
100
AcDbEntity
  8
GVSTRACKS
 62
   181
100
AcDbVertex
100
AcDb3dPolylineVertex
 10
12.514868
 20
48.378504
 30
0.023
 70
    32
  0
VERTEX
  5
DC
330
77
100
AcDbEntity
  8
GVSTRACKS
 62
   181
100
AcDbVertex
100
AcDb3dPolylineVertex
 10
12.696493
 20
48.85245799999999
 30
0.028
 70
    32
  0
VERTEX
  5
DD
330
77
100
AcDbEntity
  8
GVSTRACKS
 62
   181
100
AcDbVertex
100
AcDb3dPolylineVertex
 10
12.880402
 20
49.325874
 30
0.032
 70
    32
  0
VERTEX
  5
DE
330
77
100
AcDbEntity
  8
GVSTRACKS
 62
   181
100
AcDbVertex
100
AcDb3dPolylineVertex
 10
13.066134
 20
49.800463
 30
0.035
 70
    32
  0
VERTEX
  5
DF
330
77
100
AcDbEntity
  8
GVSTRACKS
 62
   181
100
AcDbVertex
100
AcDb3dPolylineVertex
 10
13.255007
 20
50.273151
 30
0.038
 70
    32
  0
VERTEX
  5
E0
330
77
100
AcDbEntity
  8
GVSTRACKS
 62
   181
100
AcDbVertex
100
AcDb3dPolylineVertex
 10
13.445143
 20
50.74599
 30
0.041
 70
    32
  0
VERTEX
  5
E1
330
77
100
AcDbEntity
  8
GVSTRACKS
 62
   181
100
AcDbVertex
100
AcDb3dPolylineVertex
 10
13.637888
 20
51.219042
 30
0.045
 70
    32
  0
VERTEX
  5
E2
330
77
100
AcDbEntity
  8
GVSTRACKS
 62
   181
100
AcDbVertex
100
AcDb3dPolylineVertex
 10
13.833746
 20
51.69176
 30
0.049
 70
    32
  0
VERTEX
  5
E3
330
77
100
AcDbEntity
  8
GVSTRACKS
 62
   181
100
AcDbVertex
100
AcDb3dPolylineVertex
 10
14.029825
 20
52.165729
 30
0.054
 70
    32
  0
VERTEX
  5
E4
330
77
100
AcDbEntity
  8
GVSTRACKS
 62
   181
100
AcDbVertex
100
AcDb3dPolylineVertex
 10
14.228756
 20
52.640145
 30
0.059
 70
    32
  0
VERTEX
  5
E5
330
77
100
AcDbEntity
  8
GVSTRACKS
 62
   181
100
AcDbVertex
100
AcDb3dPolylineVertex
 10
14.423228
 20
53.100868
 30
0.062
 70
    32
  0
VERTEX
  5
E6
330
77
100
AcDbEntity
  8
GVSTRACKS
 62
   181
100
AcDbVertex
100
AcDb3dPolylineVertex
 10
14.620751
 20
53.56180300000001
 30
0.066
 70
    32
  0
VERTEX
  5
E7
330
77
100
AcDbEntity
  8
GVSTRACKS
 62
   181
100
AcDbVertex
100
AcDb3dPolylineVertex
 10
14.818509
 20
54.023612
 30
0.068
 70
    32
  0
VERTEX
  5
E8
330
77
100
AcDbEntity
  8
GVSTRACKS
 62
   181
100
AcDbVertex
100
AcDb3dPolylineVertex
 10
15.018349
 20
54.48572399999999
 30
0.07
 70
    32
  0
VERTEX
  5
E9
330
77
100
AcDbEntity
  8
GVSTRACKS
 62
   181
100
AcDbVertex
100
AcDb3dPolylineVertex
 10
15.219047
 20
54.94828199999999
 30
0.071
 70
    32
  0
VERTEX
  5
EA
330
77
100
AcDbEntity
  8
GVSTRACKS
 62
   181
100
AcDbVertex
100
AcDb3dPolylineVertex
 10
15.422316
 20
55.411274
 30
0.073
 70
    32
  0
VERTEX
  5
EB
330
77
100
AcDbEntity
  8
GVSTRACKS
 62
   181
100
AcDbVertex
100
AcDb3dPolylineVertex
 10
15.625647
 20
55.875017
 30
0.073
 70
    32
  0
VERTEX
  5
EC
330
77
100
AcDbEntity
  8
GVSTRACKS
 62
   181
100
AcDbVertex
100
AcDb3dPolylineVertex
 10
15.831347
 20
56.33934100000001
 30
0.073
 70
    32
  0
VERTEX
  5
ED
330
77
100
AcDbEntity
  8
GVSTRACKS
 62
   181
100
AcDbVertex
100
AcDb3dPolylineVertex
 10
16.037702
 20
56.804862
 30
0.074
 70
    32
  0
VERTEX
  5
EE
330
77
100
AcDbEntity
  8
GVSTRACKS
 62
   181
100
AcDbVertex
100
AcDb3dPolylineVertex
 10
16.243835
 20
57.271244
 30
0.075
 70
    32
  0
VERTEX
  5
EF
330
77
100
AcDbEntity
  8
GVSTRACKS
 62
   181
100
AcDbVertex
100
AcDb3dPolylineVertex
 10
16.45211
 20
57.73859100000001
 30
0.076
 70
    32
  0
VERTEX
  5
F0
330
77
100
AcDbEntity
  8
GVSTRACKS
 62
   181
100
AcDbVertex
100
AcDb3dPolylineVertex
 10
16.663903
 20
58.204405
 30
0.077
 70
    32
  0
VERTEX
  5
F1
330
77
100
AcDbEntity
  8
GVSTRACKS
 62
   181
100
AcDbVertex
100
AcDb3dPolylineVertex
 10
16.876086
 20
58.67171899999999
 30
0.078
 70
    32
  0
VERTEX
  5
F2
330
77
100
AcDbEntity
  8
GVSTRACKS
 62
   181
100
AcDbVertex
100
AcDb3dPolylineVertex
 10
17.090006
 20
59.13878399999999
 30
0.079
 70
    32
  0
VERTEX
  5
F3
330
77
100
AcDbEntity
  8
GVSTRACKS
 62
   181
100
AcDbVertex
100
AcDb3dPolylineVertex
 10
17.30716199999999
 20
59.605722
 30
0.081
 70
    32
  0
VERTEX
  5
F4
330
77
100
AcDbEntity
  8
GVSTRACKS
 62
   181
100
AcDbVertex
100
AcDb3dPolylineVertex
 10
17.52885
 20
60.07047599999999
 30
0.082
 70
    32
  0
VERTEX
  5
F5
330
77
100
AcDbEntity
  8
GVSTRACKS
 62
   181
100
AcDbVertex
100
AcDb3dPolylineVertex
 10
17.743691
 20
60.522964
 30
0.082
 70
    32
  0
VERTEX
  5
F6
330
77
100
AcDbEntity
  8
GVSTRACKS
 62
   181
100
AcDbVertex
100
AcDb3dPolylineVertex
 10
17.960396
 20
60.974291
 30
0.082
 70
    32
  0
VERTEX
  5
F7
330
77
100
AcDbEntity
  8
GVSTRACKS
 62
   181
100
AcDbVertex
100
AcDb3dPolylineVertex
 10
18.18034
 20
61.425064
 30
0.082
 70
    32
  0
VERTEX
  5
F8
330
77
100
AcDbEntity
  8
GVSTRACKS
 62
   181
100
AcDbVertex
100
AcDb3dPolylineVertex
 10
18.390216
 20
61.878884
 30
0.082
 70
    32
  0
VERTEX
  5
F9
330
77
100
AcDbEntity
  8
GVSTRACKS
 62
   181
100
AcDbVertex
100
AcDb3dPolylineVertex
 10
18.60626
 20
62.33025699999999
 30
0.082
 70
    32
  0
VERTEX
  5
FA
330
77
100
AcDbEntity
  8
GVSTRACKS
 62
   181
100
AcDbVertex
100
AcDb3dPolylineVertex
 10
18.825467
 20
62.78009799999999
 30
0.081
 70
    32
  0
VERTEX
  5
FB
330
77
100
AcDbEntity
  8
GVSTRACKS
 62
   181
100
AcDbVertex
100
AcDb3dPolylineVertex
 10
19.038941
 20
63.232935
 30
0.084
 70
    32
  0
VERTEX
  5
FC
330
77
100
AcDbEntity
  8
GVSTRACKS
 62
   181
100
AcDbVertex
100
AcDb3dPolylineVertex
 10
19.254956
 20
63.68497099999999
 30
0.085
 70
    32
  0
VERTEX
  5
FD
330
77
100
AcDbEntity
  8
GVSTRACKS
 62
   181
100
AcDbVertex
100
AcDb3dPolylineVertex
 10
19.475211
 20
64.15044300000001
 30
0.085
 70
    32
  0
VERTEX
  5
FE
330
77
100
AcDbEntity
  8
GVSTRACKS
 62
   181
100
AcDbVertex
100
AcDb3dPolylineVertex
 10
19.694618
 20
64.600651
 30
0.087
 70
    32
  0
VERTEX
  5
FF
330
77
100
AcDbEntity
  8
GVSTRACKS
 62
   181
100
AcDbVertex
100
AcDb3dPolylineVertex
 10
19.908565
 20
65.053002
 30
0.088
 70
    32
  0
VERTEX
  5
100
330
77
100
AcDbEntity
  8
GVSTRACKS
 62
   181
100
AcDbVertex
100
AcDb3dPolylineVertex
 10
20.125156
 20
65.504175
 30
0.088
 70
    32
  0
VERTEX
  5
101
330
77
100
AcDbEntity
  8
GVSTRACKS
 62
   181
100
AcDbVertex
100
AcDb3dPolylineVertex
 10
20.341601
 20
65.955466
 30
0.088
 70
    32
  0
VERTEX
  5
102
330
77
100
AcDbEntity
  8
GVSTRACKS
 62
   181
100
AcDbVertex
100
AcDb3dPolylineVertex
 10
20.558581
 20
66.40663
 30
0.088
 70
    32
  0
VERTEX
  5
103
330
77
100
AcDbEntity
  8
GVSTRACKS
 62
   181
100
AcDbVertex
100
AcDb3dPolylineVertex
 10
20.774557
 20
66.85858499999999
 30
0.087
 70
    32
  0
VERTEX
  5
104
330
77
100
AcDbEntity
  8
GVSTRACKS
 62
   181
100
AcDbVertex
100
AcDb3dPolylineVertex
 10
20.991179
 20
67.31017699999999
 30
0.085
 70
    32
  0
VERTEX
  5
105
330
77
100
AcDbEntity
  8
GVSTRACKS
 62
   181
100
AcDbVertex
100
AcDb3dPolylineVertex
 10
21.208305
 20
67.763423
 30
0.084
 70
    32
  0
VERTEX
  5
106
330
77
100
AcDbEntity
  8
GVSTRACKS
 62
   181
100
AcDbVertex
100
AcDb3dPolylineVertex
 10
21.423309
 20
68.217191
 30
0.083
 70
    32
  0
VERTEX
  5
107
330
77
100
AcDbEntity
  8
GVSTRACKS
 62
   181
100
AcDbVertex
100
AcDb3dPolylineVertex
 10
21.641014
 20
68.67156099999999
 30
0.081
 70
    32
  0
VERTEX
  5
108
330
77
100
AcDbEntity
  8
GVSTRACKS
 62
   181
100
AcDbVertex
100
AcDb3dPolylineVertex
 10
21.858234
 20
69.127184
 30
0.08
 70
    32
  0
VERTEX
  5
109
330
77
100
AcDbEntity
  8
GVSTRACKS
 62
   181
100
AcDbVertex
100
AcDb3dPolylineVertex
 10
22.075662
 20
69.582923
 30
0.078
 70
    32
  0
VERTEX
  5
10A
330
77
100
AcDbEntity
  8
GVSTRACKS
 62
   181
100
AcDbVertex
100
AcDb3dPolylineVertex
 10
22.292188
 20
70.038776
 30
0.077
 70
    32
  0
VERTEX
  5
10B
330
77
100
AcDbEntity
  8
GVSTRACKS
 62
   181
100
AcDbVertex
100
AcDb3dPolylineVertex
 10
22.508671
 20
70.495879
 30
0.076
 70
    32
  0
VERTEX
  5
10C
330
77
100
AcDbEntity
  8
GVSTRACKS
 62
   181
100
AcDbVertex
100
AcDb3dPolylineVertex
 10
22.727603
 20
70.951401
 30
0.075
 70
    32
  0
VERTEX
  5
10D
330
77
100
AcDbEntity
  8
GVSTRACKS
 62
   181
100
AcDbVertex
100
AcDb3dPolylineVertex
 10
22.939605
 20
71.40979
 30
0.074
 70
    32
  0
VERTEX
  5
10E
330
77
100
AcDbEntity
  8
GVSTRACKS
 62
   181
100
AcDbVertex
100
AcDb3dPolylineVertex
 10
23.148036
 20
71.86931700000001
 30
0.074
 70
    32
  0
VERTEX
  5
10F
330
77
100
AcDbEntity
  8
GVSTRACKS
 62
   181
100
AcDbVertex
100
AcDb3dPolylineVertex
 10
23.357895
 20
72.327647
 30
0.074
 70
    32
  0
VERTEX
  5
110
330
77
100
AcDbEntity
  8
GVSTRACKS
 62
   181
100
AcDbVertex
100
AcDb3dPolylineVertex
 10
23.568474
 20
72.78590099999999
 30
0.075
 70
    32
  0
VERTEX
  5
111
330
77
100
AcDbEntity
  8
GVSTRACKS
 62
   181
100
AcDbVertex
100
AcDb3dPolylineVertex
 10
23.776541
 20
73.24378
 30
0.075
 70
    32
  0
VERTEX
  5
112
330
77
100
AcDbEntity
  8
GVSTRACKS
 62
   181
100
AcDbVertex
100
AcDb3dPolylineVertex
 10
23.980412
 20
73.70554900000001
 30
0.075
 70
    32
  0
VERTEX
  5
113
330
77
100
AcDbEntity
  8
GVSTRACKS
 62
   181
100
AcDbVertex
100
AcDb3dPolylineVertex
 10
24.184843
 20
74.164028
 30
0.074
 70
    32
  0
VERTEX
  5
114
330
77
100
AcDbEntity
  8
GVSTRACKS
 62
   181
100
AcDbVertex
100
AcDb3dPolylineVertex
 10
24.387475
 20
74.624205
 30
0.074
 70
    32
  0
VERTEX
  5
115
330
77
100
AcDbEntity
  8
GVSTRACKS
 62
   181
100
AcDbVertex
100
AcDb3dPolylineVertex
 10
24.58924
 20
75.08439799999999
 30
0.073
 70
    32
  0
VERTEX
  5
116
330
77
100
AcDbEntity
  8
GVSTRACKS
 62
   181
100
AcDbVertex
100
AcDb3dPolylineVertex
 10
24.791783
 20
75.544877
 30
0.072
 70
    32
  0
VERTEX
  5
117
330
77
100
AcDbEntity
  8
GVSTRACKS
 62
   181
100
AcDbVertex
100
AcDb3dPolylineVertex
 10
24.99219
 20
76.00586199999999
 30
0.07
 70
    32
  0
VERTEX
  5
118
330
77
100
AcDbEntity
  8
GVSTRACKS
 62
   181
100
AcDbVertex
100
AcDb3dPolylineVertex
 10
25.19073
 20
76.468132
 30
0.069
 70
    32
  0
VERTEX
  5
119
330
77
100
AcDbEntity
  8
GVSTRACKS
 62
   181
100
AcDbVertex
100
AcDb3dPolylineVertex
 10
25.391567
 20
76.929881
 30
0.067
 70
    32
  0
VERTEX
  5
11A
330
77
100
AcDbEntity
  8
GVSTRACKS
 62
   181
100
AcDbVertex
100
AcDb3dPolylineVertex
 10
25.591076
 20
77.392966
 30
0.066
 70
    32
  0
VERTEX
  5
11B
330
77
100
AcDbEntity
  8
GVSTRACKS
 62
   181
100
AcDbVertex
100
AcDb3dPolylineVertex
 10
25.787237
 20
77.85762
 30
0.065
 70
    32
  0
VERTEX
  5
11C
330
77
100
AcDbEntity
  8
GVSTRACKS
 62
   181
100
AcDbVertex
100
AcDb3dPolylineVertex
 10
25.983929
 20
78.323267
 30
0.065
 70
    32
  0
VERTEX
  5
11D
330
77
100
AcDbEntity
  8
GVSTRACKS
 62
   181
100
AcDbVertex
100
AcDb3dPolylineVertex
 10
26.17858
 20
78.78938199999999
 30
0.066
 70
    32
  0
VERTEX
  5
11E
330
77
100
AcDbEntity
  8
GVSTRACKS
 62
   181
100
AcDbVertex
100
AcDb3dPolylineVertex
 10
26.375998
 20
79.25612199999999
 30
0.067
 70
    32
  0
VERTEX
  5
11F
330
77
100
AcDbEntity
  8
GVSTRACKS
 62
   181
100
AcDbVertex
100
AcDb3dPolylineVertex
 10
26.565674
 20
79.72563
 30
0.07
 70
    32
  0
VERTEX
  5
120
330
77
100
AcDbEntity
  8
GVSTRACKS
 62
   181
100
AcDbVertex
100
AcDb3dPolylineVertex
 10
26.75429
 20
80.19544300000001
 30
0.072
 70
    32
  0
VERTEX
  5
121
330
77
100
AcDbEntity
  8
GVSTRACKS
 62
   181
100
AcDbVertex
100
AcDb3dPolylineVertex
 10
26.94323
 20
80.665527
 30
0.075
 70
    32
  0
VERTEX
  5
122
330
77
100
AcDbEntity
  8
GVSTRACKS
 62
   181
100
AcDbVertex
100
AcDb3dPolylineVertex
 10
27.132714
 20
81.136227
 30
0.077
 70
    32
  0
VERTEX
  5
123
330
77
100
AcDbEntity
  8
GVSTRACKS
 62
   181
100
AcDbVertex
100
AcDb3dPolylineVertex
 10
27.322582
 20
81.605749
 30
0.081
 70
    32
  0
VERTEX
  5
124
330
77
100
AcDbEntity
  8
GVSTRACKS
 62
   181
100
AcDbVertex
100
AcDb3dPolylineVertex
 10
27.51671
 20
82.075537
 30
0.085
 70
    32
  0
VERTEX
  5
125
330
77
100
AcDbEntity
  8
GVSTRACKS
 62
   181
100
AcDbVertex
100
AcDb3dPolylineVertex
 10
27.708428
 20
82.54517900000001
 30
0.086
 70
    32
  0
VERTEX
  5
126
330
77
100
AcDbEntity
  8
GVSTRACKS
 62
   181
100
AcDbVertex
100
AcDb3dPolylineVertex
 10
27.902138
 20
83.015035
 30
0.09
 70
    32
  0
VERTEX
  5
127
330
77
100
AcDbEntity
  8
GVSTRACKS
 62
   181
100
AcDbVertex
100
AcDb3dPolylineVertex
 10
28.09429600000001
 20
83.48398399999998
 30
0.093
 70
    32
  0
VERTEX
  5
128
330
77
100
AcDbEntity
  8
GVSTRACKS
 62
   181
100
AcDbVertex
100
AcDb3dPolylineVertex
 10
28.293317
 20
83.95194000000001
 30
0.096
 70
    32
  0
VERTEX
  5
129
330
77
100
AcDbEntity
  8
GVSTRACKS
 62
   181
100
AcDbVertex
100
AcDb3dPolylineVertex
 10
28.492568
 20
84.418094
 30
0.097
 70
    32
  0
VERTEX
  5
12A
330
77
100
AcDbEntity
  8
GVSTRACKS
 62
   181
100
AcDbVertex
100
AcDb3dPolylineVertex
 10
28.682476
 20
84.88718100000001
 30
0.101
 70
    32
  0
VERTEX
  5
12B
330
77
100
AcDbEntity
  8
GVSTRACKS
 62
   181
100
AcDbVertex
100
AcDb3dPolylineVertex
 10
28.875516
 20
85.351213
 30
0.103
 70
    32
  0
VERTEX
  5
12C
330
77
100
AcDbEntity
  8
GVSTRACKS
 62
   181
100
AcDbVertex
100
AcDb3dPolylineVertex
 10
29.064478
 20
85.81494000000001
 30
0.104
 70
    32
  0
VERTEX
  5
12D
330
77
100
AcDbEntity
  8
GVSTRACKS
 62
   181
100
AcDbVertex
100
AcDb3dPolylineVertex
 10
29.257656
 20
86.291735
 30
0.105
 70
    32
  0
VERTEX
  5
12E
330
77
100
AcDbEntity
  8
GVSTRACKS
 62
   181
100
AcDbVertex
100
AcDb3dPolylineVertex
 10
29.44762199999999
 20
86.77053499999999
 30
0.107
 70
    32
  0
VERTEX
  5
12F
330
77
100
AcDbEntity
  8
GVSTRACKS
 62
   181
100
AcDbVertex
100
AcDb3dPolylineVertex
 10
29.633994
 20
87.247388
 30
0.107
 70
    32
  0
VERTEX
  5
130
330
77
100
AcDbEntity
  8
GVSTRACKS
 62
   181
100
AcDbVertex
100
AcDb3dPolylineVertex
 10
29.821032
 20
87.723466
 30
0.107
 70
    32
  0
VERTEX
  5
131
330
77
100
AcDbEntity
  8
GVSTRACKS
 62
   181
100
AcDbVertex
100
AcDb3dPolylineVertex
 10
30.003581
 20
88.19896999999999
 30
0.107
 70
    32
  0
VERTEX
  5
132
330
77
100
AcDbEntity
  8
GVSTRACKS
 62
   181
100
AcDbVertex
100
AcDb3dPolylineVertex
 10
30.18616
 20
88.67480400000001
 30
0.107
 70
    32
  0
VERTEX
  5
133
330
77
100
AcDbEntity
  8
GVSTRACKS
 62
   181
100
AcDbVertex
100
AcDb3dPolylineVertex
 10
30.366049
 20
89.150176
 30
0.106
 70
    32
  0
VERTEX
  5
134
330
77
100
AcDbEntity
  8
GVSTRACKS
 62
   181
100
AcDbVertex
100
AcDb3dPolylineVertex
 10
30.546279
 20
89.62592200000001
 30
0.106
 70
    32
  0
VERTEX
  5
135
330
77
100
AcDbEntity
  8
GVSTRACKS
 62
   181
100
AcDbVertex
100
AcDb3dPolylineVertex
 10
30.725259
 20
90.10204599999999
 30
0.106
 70
    32
  0
VERTEX
  5
136
330
77
100
AcDbEntity
  8
GVSTRACKS
 62
   181
100
AcDbVertex
100
AcDb3dPolylineVertex
 10
30.902963
 20
90.579301
 30
0.107
 70
    32
  0
VERTEX
  5
137
330
77
100
AcDbEntity
  8
GVSTRACKS
 62
   181
100
AcDbVertex
100
AcDb3dPolylineVertex
 10
31.079935
 20
91.05670400000001
 30
0.106
 70
    32
  0
VERTEX
  5
138
330
77
100
AcDbEntity
  8
GVSTRACKS
 62
   181
100
AcDbVertex
100
AcDb3dPolylineVertex
 10
31.255744
 20
91.53500200000001
 30
0.106
 70
    32
  0
VERTEX
  5
139
330
77
100
AcDbEntity
  8
GVSTRACKS
 62
   181
100
AcDbVertex
100
AcDb3dPolylineVertex
 10
31.429683
 20
92.0151
 30
0.106
 70
    32
  0
VERTEX
  5
13A
330
77
100
AcDbEntity
  8
GVSTRACKS
 62
   181
100
AcDbVertex
100
AcDb3dPolylineVertex
 10
31.603376
 20
92.49569200000001
 30
0.107
 70
    32
  0
VERTEX
  5
13B
330
77
100
AcDbEntity
  8
GVSTRACKS
 62
   181
100
AcDbVertex
100
AcDb3dPolylineVertex
 10
31.778919
 20
92.977912
 30
0.108
 70
    32
  0
VERTEX
  5
13C
330
77
100
AcDbEntity
  8
GVSTRACKS
 62
   181
100
AcDbVertex
100
AcDb3dPolylineVertex
 10
31.951413
 20
93.461303
 30
0.108
 70
    32
  0
VERTEX
  5
13D
330
77
100
AcDbEntity
  8
GVSTRACKS
 62
   181
100
AcDbVertex
100
AcDb3dPolylineVertex
 10
32.110263
 20
93.93615600000002
 30
0.11
 70
    32
  0
VERTEX
  5
13E
330
77
100
AcDbEntity
  8
GVSTRACKS
 62
   181
100
AcDbVertex
100
AcDb3dPolylineVertex
 10
32.272144
 20
94.410942
 30
0.111
 70
    32
  0
VERTEX
  5
13F
330
77
100
AcDbEntity
  8
GVSTRACKS
 62
   181
100
AcDbVertex
100
AcDb3dPolylineVertex
 10
32.434159
 20
94.88887599999999
 30
0.112
 70
    32
  0
VERTEX
  5
140
330
77
100
AcDbEntity
  8
GVSTRACKS
 62
   181
100
AcDbVertex
100
AcDb3dPolylineVertex
 10
32.593988
 20
95.36890600000001
 30
0.114
 70
    32
  0
VERTEX
  5
141
330
77
100
AcDbEntity
  8
GVSTRACKS
 62
   181
100
AcDbVertex
100
AcDb3dPolylineVertex
 10
32.751134
 20
95.85274899999999
 30
0.115
 70
    32
  0
VERTEX
  5
142
330
77
100
AcDbEntity
  8
GVSTRACKS
 62
   181
100
AcDbVertex
100
AcDb3dPolylineVertex
 10
32.906578
 20
96.33864100000002
 30
0.115
 70
    32
  0
VERTEX
  5
143
330
77
100
AcDbEntity
  8
GVSTRACKS
 62
   181
100
AcDbVertex
100
AcDb3dPolylineVertex
 10
33.062161
 20
96.826954
 30
0.116
 70
    32
  0
VERTEX
  5
144
330
77
100
AcDbEntity
  8
GVSTRACKS
 62
   181
100
AcDbVertex
100
AcDb3dPolylineVertex
 10
33.218806
 20
97.31716099999999
 30
0.116
 70
    32
  0
VERTEX
  5
145
330
77
100
AcDbEntity
  8
GVSTRACKS
 62
   181
100
AcDbVertex
100
AcDb3dPolylineVertex
 10
33.370132
 20
97.794951
 30
0.116
 70
    32
  0
VERTEX
  5
146
330
77
100
AcDbEntity
  8
GVSTRACKS
 62
   181
100
AcDbVertex
100
AcDb3dPolylineVertex
 10
33.520276
 20
98.27473799999999
 30
0.115
 70
    32
  0
VERTEX
  5
147
330
77
100
AcDbEntity
  8
GVSTRACKS
 62
   181
100
AcDbVertex
100
AcDb3dPolylineVertex
 10
33.669169
 20
98.75692700000001
 30
0.115
 70
    32
  0
VERTEX
  5
148
330
77
100
AcDbEntity
  8
GVSTRACKS
 62
   181
100
AcDbVertex
100
AcDb3dPolylineVertex
 10
33.817331
 20
99.24056100000001
 30
0.113
 70
    32
  0
VERTEX
  5
149
330
77
100
AcDbEntity
  8
GVSTRACKS
 62
   181
100
AcDbVertex
100
AcDb3dPolylineVertex
 10
33.962449
 20
99.727654
 30
0.11
 70
    32
  0
VERTEX
  5
14A
330
77
100
AcDbEntity
  8
GVSTRACKS
 62
   181
100
AcDbVertex
100
AcDb3dPolylineVertex
 10
34.106192
 20
100.216341
 30
0.107
 70
    32
  0
VERTEX
  5
14B
330
77
100
AcDbEntity
  8
GVSTRACKS
 62
   181
100
AcDbVertex
100
AcDb3dPolylineVertex
 10
34.251531
 20
100.706193
 30
0.104
 70
    32
  0
VERTEX
  5
14C
330
77
100
AcDbEntity
  8
GVSTRACKS
 62
   181
100
AcDbVertex
100
AcDb3dPolylineVertex
 10
34.392932
 20
101.199367
 30
0.101
 70
    32
  0
VERTEX
  5
14D
330
77
100
AcDbEntity
  8
GVSTRACKS
 62
   181
100
AcDbVertex
100
AcDb3dPolylineVertex
 10
34.533053
 20
101.694399
 30
0.099
 70
    32
  0
VERTEX
  5
14E
330
77
100
AcDbEntity
  8
GVSTRACKS
 62
   181
100
AcDbVertex
100
AcDb3dPolylineVertex
 10
34.659692
 20
102.178163
 30
0.098
 70
    32
  0
VERTEX
  5
14F
330
77
100
AcDbEntity
  8
GVSTRACKS
 62
   181
100
AcDbVertex
100
AcDb3dPolylineVertex
 10
34.786577
 20
102.663936
 30
0.099
 70
    32
  0
VERTEX
  5
150
330
77
100
AcDbEntity
  8
GVSTRACKS
 62
   181
100
AcDbVertex
100
AcDb3dPolylineVertex
 10
34.912638
 20
103.150586
 30
0.102
 70
    32
  0
VERTEX
  5
151
330
77
100
AcDbEntity
  8
GVSTRACKS
 62
   181
100
AcDbVertex
100
AcDb3dPolylineVertex
 10
35.038114
 20
103.639555
 30
0.106
 70
    32
  0
VERTEX
  5
152
330
77
100
AcDbEntity
  8
GVSTRACKS
 62
   181
100
AcDbVertex
100
AcDb3dPolylineVertex
 10
35.1618
 20
104.129369
 30
0.11
 70
    32
  0
VERTEX
  5
153
330
77
100
AcDbEntity
  8
GVSTRACKS
 62
   181
100
AcDbVertex
100
AcDb3dPolylineVertex
 10
35.285357
 20
104.618712
 30
0.114
 70
    32
  0
VERTEX
  5
154
330
77
100
AcDbEntity
  8
GVSTRACKS
 62
   181
100
AcDbVertex
100
AcDb3dPolylineVertex
 10
35.413491
 20
105.109233
 30
0.12
 70
    32
  0
VERTEX
  5
155
330
77
100
AcDbEntity
  8
GVSTRACKS
 62
   181
100
AcDbVertex
100
AcDb3dPolylineVertex
 10
35.539774
 20
105.600238
 30
0.126
 70
    32
  0
VERTEX
  5
156
330
77
100
AcDbEntity
  8
GVSTRACKS
 62
   181
100
AcDbVertex
100
AcDb3dPolylineVertex
 10
35.664051
 20
106.094421
 30
0.131
 70
    32
  0
VERTEX
  5
157
330
77
100
AcDbEntity
  8
GVSTRACKS
 62
   181
100
AcDbVertex
100
AcDb3dPolylineVertex
 10
35.787768
 20
106.587972
 30
0.136
 70
    32
  0
VERTEX
  5
158
330
77
100
AcDbEntity
  8
GVSTRACKS
 62
   181
100
AcDbVertex
100
AcDb3dPolylineVertex
 10
35.916459
 20
107.08175
 30
0.14
 70
    32
  0
VERTEX
  5
159
330
77
100
AcDbEntity
  8
GVSTRACKS
 62
   181
100
AcDbVertex
100
AcDb3dPolylineVertex
 10
36.042196
 20
107.575759
 30
0.143
 70
    32
  0
VERTEX
  5
15A
330
77
100
AcDbEntity
  8
GVSTRACKS
 62
   181
100
AcDbVertex
100
AcDb3dPolylineVertex
 10
36.16982800000001
 20
108.071138
 30
0.147
 70
    32
  0
VERTEX
  5
15B
330
77
100
AcDbEntity
  8
GVSTRACKS
 62
   181
100
AcDbVertex
100
AcDb3dPolylineVertex
 10
36.295905
 20
108.566727
 30
0.149
 70
    32
  0
VERTEX
  5
15C
330
77
100
AcDbEntity
  8
GVSTRACKS
 62
   181
100
AcDbVertex
100
AcDb3dPolylineVertex
 10
36.422137
 20
109.062941
 30
0.15
 70
    32
  0
VERTEX
  5
15D
330
77
100
AcDbEntity
  8
GVSTRACKS
 62
   181
100
AcDbVertex
100
AcDb3dPolylineVertex
 10
36.549468
 20
109.559836
 30
0.151
 70
    32
  0
VERTEX
  5
15E
330
77
100
AcDbEntity
  8
GVSTRACKS
 62
   181
100
AcDbVertex
100
AcDb3dPolylineVertex
 10
36.676733
 20
110.0571
 30
0.151
 70
    32
  0
VERTEX
  5
15F
330
77
100
AcDbEntity
  8
GVSTRACKS
 62
   181
100
AcDbVertex
100
AcDb3dPolylineVertex
 10
36.803634
 20
110.555732
 30
0.152
 70
    32
  0
VERTEX
  5
160
330
77
100
AcDbEntity
  8
GVSTRACKS
 62
   181
100
AcDbVertex
100
AcDb3dPolylineVertex
 10
36.929994
 20
111.054529
 30
0.152
 70
    32
  0
VERTEX
  5
161
330
77
100
AcDbEntity
  8
GVSTRACKS
 62
   181
100
AcDbVertex
100
AcDb3dPolylineVertex
 10
37.057959
 20
111.553938
 30
0.153
 70
    32
  0
VERTEX
  5
162
330
77
100
AcDbEntity
  8
GVSTRACKS
 62
   181
100
AcDbVertex
100
AcDb3dPolylineVertex
 10
37.186536
 20
112.053986
 30
0.156
 70
    32
  0
VERTEX
  5
163
330
77
100
AcDbEntity
  8
GVSTRACKS
 62
   181
100
AcDbVertex
100
AcDb3dPolylineVertex
 10
37.310801
 20
112.53889
 30
0.159
 70
    32
  0
VERTEX
  5
164
330
77
100
AcDbEntity
  8
GVSTRACKS
 62
   181
100
AcDbVertex
100
AcDb3dPolylineVertex
 10
37.434835
 20
113.023611
 30
0.161
 70
    32
  0
VERTEX
  5
165
330
77
100
AcDbEntity
  8
GVSTRACKS
 62
   181
100
AcDbVertex
100
AcDb3dPolylineVertex
 10
37.55898
 20
113.509002
 30
0.164
 70
    32
  0
VERTEX
  5
166
330
77
100
AcDbEntity
  8
GVSTRACKS
 62
   181
100
AcDbVertex
100
AcDb3dPolylineVertex
 10
37.684048
 20
113.995464
 30
0.167
 70
    32
  0
VERTEX
  5
167
330
77
100
AcDbEntity
  8
GVSTRACKS
 62
   181
100
AcDbVertex
100
AcDb3dPolylineVertex
 10
37.80939
 20
114.481674
 30
0.17
 70
    32
  0
VERTEX
  5
168
330
77
100
AcDbEntity
  8
GVSTRACKS
 62
   181
100
AcDbVertex
100
AcDb3dPolylineVertex
 10
37.933944
 20
114.969057
 30
0.173
 70
    32
  0
VERTEX
  5
169
330
77
100
AcDbEntity
  8
GVSTRACKS
 62
   181
100
AcDbVertex
100
AcDb3dPolylineVertex
 10
38.058164
 20
115.456633
 30
0.175
 70
    32
  0
VERTEX
  5
16A
330
77
100
AcDbEntity
  8
GVSTRACKS
 62
   181
100
AcDbVertex
100
AcDb3dPolylineVertex
 10
38.183738
 20
115.944233
 30
0.177
 70
    32
  0
VERTEX
  5
16B
330
77
100
AcDbEntity
  8
GVSTRACKS
 62
   181
100
AcDbVertex
100
AcDb3dPolylineVertex
 10
38.310381
 20
116.432486
 30
0.179
 70
    32
  0
VERTEX
  5
16C
330
77
100
AcDbEntity
  8
GVSTRACKS
 62
   181
100
AcDbVertex
100
AcDb3dPolylineVertex
 10
38.43711500000001
 20
116.921518
 30
0.182
 70
    32
  0
VERTEX
  5
16D
330
77
100
AcDbEntity
  8
GVSTRACKS
 62
   181
100
AcDbVertex
100
AcDb3dPolylineVertex
 10
38.565935
 20
117.410337
 30
0.183
 70
    32
  0
VERTEX
  5
16E
330
77
100
AcDbEntity
  8
GVSTRACKS
 62
   181
100
AcDbVertex
100
AcDb3dPolylineVertex
 10
38.702526
 20
117.897022
 30
0.184
 70
    32
  0
VERTEX
  5
16F
330
77
100
AcDbEntity
  8
GVSTRACKS
 62
   181
100
AcDbVertex
100
AcDb3dPolylineVertex
 10
38.823944
 20
118.389586
 30
0.187
 70
    32
  0
VERTEX
  5
170
330
77
100
AcDbEntity
  8
GVSTRACKS
 62
   181
100
AcDbVertex
100
AcDb3dPolylineVertex
 10
38.951941
 20
118.880277
 30
0.188
 70
    32
  0
VERTEX
  5
171
330
77
100
AcDbEntity
  8
GVSTRACKS
 62
   181
100
AcDbVertex
100
AcDb3dPolylineVertex
 10
39.08546900000001
 20
119.369326
 30
0.189
 70
    32
  0
VERTEX
  5
172
330
77
100
AcDbEntity
  8
GVSTRACKS
 62
   181
100
AcDbVertex
100
AcDb3dPolylineVertex
 10
39.219644
 20
119.858703
 30
0.193
 70
    32
  0
VERTEX
  5
173
330
77
100
AcDbEntity
  8
GVSTRACKS
 62
   181
100
AcDbVertex
100
AcDb3dPolylineVertex
 10
39.34477800000001
 20
120.349108
 30
0.193
 70
    32
  0
VERTEX
  5
174
330
77
100
AcDbEntity
  8
GVSTRACKS
 62
   181
100
AcDbVertex
100
AcDb3dPolylineVertex
 10
39.47664000000001
 20
120.840199
 30
0.195
 70
    32
  0
VERTEX
  5
175
330
77
100
AcDbEntity
  8
GVSTRACKS
 62
   181
100
AcDbVertex
100
AcDb3dPolylineVertex
 10
39.606019
 20
121.330253
 30
0.196
 70
    32
  0
VERTEX
  5
176
330
77
100
AcDbEntity
  8
GVSTRACKS
 62
   181
100
AcDbVertex
100
AcDb3dPolylineVertex
 10
39.734291
 20
121.822591
 30
0.197
 70
    32
  0
VERTEX
  5
177
330
77
100
AcDbEntity
  8
GVSTRACKS
 62
   181
100
AcDbVertex
100
AcDb3dPolylineVertex
 10
39.862941
 20
122.315384
 30
0.199
 70
    32
  0
VERTEX
  5
178
330
77
100
AcDbEntity
  8
GVSTRACKS
 62
   181
100
AcDbVertex
100
AcDb3dPolylineVertex
 10
39.991598
 20
122.807839
 30
0.201
 70
    32
  0
VERTEX
  5
179
330
77
100
AcDbEntity
  8
GVSTRACKS
 62
   181
100
AcDbVertex
100
AcDb3dPolylineVertex
 10
40.120554
 20
123.3008
 30
0.202
 70
    32
  0
VERTEX
  5
17A
330
77
100
AcDbEntity
  8
GVSTRACKS
 62
   181
100
AcDbVertex
100
AcDb3dPolylineVertex
 10
40.24976999999999
 20
123.795394
 30
0.204
 70
    32
  0
VERTEX
  5
17B
330
77
100
AcDbEntity
  8
GVSTRACKS
 62
   181
100
AcDbVertex
100
AcDb3dPolylineVertex
 10
40.38070199999999
 20
124.289762
 30
0.206
 70
    32
  0
VERTEX
  5
17C
330
77
100
AcDbEntity
  8
GVSTRACKS
 62
   181
100
AcDbVertex
100
AcDb3dPolylineVertex
 10
40.51164599999999
 20
124.784572
 30
0.207
 70
    32
  0
VERTEX
  5
17D
330
77
100
AcDbEntity
  8
GVSTRACKS
 62
   181
100
AcDbVertex
100
AcDb3dPolylineVertex
 10
40.643386
 20
125.279769
 30
0.209
 70
    32
  0
VERTEX
  5
17E
330
77
100
AcDbEntity
  8
GVSTRACKS
 62
   181
100
AcDbVertex
100
AcDb3dPolylineVertex
 10
40.77350399999999
 20
125.774853
 30
0.21
 70
    32
  0
VERTEX
  5
17F
330
77
100
AcDbEntity
  8
GVSTRACKS
 62
   181
100
AcDbVertex
100
AcDb3dPolylineVertex
 10
40.905425
 20
126.269924
 30
0.212
 70
    32
  0
VERTEX
  5
180
330
77
100
AcDbEntity
  8
GVSTRACKS
 62
   181
100
AcDbVertex
100
AcDb3dPolylineVertex
 10
41.03818799999999
 20
126.765126
 30
0.214
 70
    32
  0
VERTEX
  5
181
330
77
100
AcDbEntity
  8
GVSTRACKS
 62
   181
100
AcDbVertex
100
AcDb3dPolylineVertex
 10
41.17154099999999
 20
127.260082
 30
0.216
 70
    32
  0
VERTEX
  5
182
330
77
100
AcDbEntity
  8
GVSTRACKS
 62
   181
100
AcDbVertex
100
AcDb3dPolylineVertex
 10
41.301833
 20
127.756586
 30
0.219
 70
    32
  0
VERTEX
  5
183
330
77
100
AcDbEntity
  8
GVSTRACKS
 62
   181
100
AcDbVertex
100
AcDb3dPolylineVertex
 10
41.435135
 20
128.251837
 30
0.221
 70
    32
  0
VERTEX
  5
184
330
77
100
AcDbEntity
  8
GVSTRACKS
 62
   181
100
AcDbVertex
100
AcDb3dPolylineVertex
 10
41.56692399999999
 20
128.746651
 30
0.224
 70
    32
  0
VERTEX
  5
185
330
77
100
AcDbEntity
  8
GVSTRACKS
 62
   181
100
AcDbVertex
100
AcDb3dPolylineVertex
 10
41.69863499999999
 20
129.242209
 30
0.226
 70
    32
  0
VERTEX
  5
186
330
77
100
AcDbEntity
  8
GVSTRACKS
 62
   181
100
AcDbVertex
100
AcDb3dPolylineVertex
 10
41.828684
 20
129.738691
 30
0.229
 70
    32
  0
VERTEX
  5
187
330
77
100
AcDbEntity
  8
GVSTRACKS
 62
   181
100
AcDbVertex
100
AcDb3dPolylineVertex
 10
41.957602
 20
130.235581
 30
0.231
 70
    32
  0
VERTEX
  5
188
330
77
100
AcDbEntity
  8
GVSTRACKS
 62
   181
100
AcDbVertex
100
AcDb3dPolylineVertex
 10
42.086728
 20
130.732589
 30
0.232
 70
    32
  0
VERTEX
  5
189
330
77
100
AcDbEntity
  8
GVSTRACKS
 62
   181
100
AcDbVertex
100
AcDb3dPolylineVertex
 10
42.212662
 20
131.231187
 30
0.233
 70
    32
  0
VERTEX
  5
18A
330
77
100
AcDbEntity
  8
GVSTRACKS
 62
   181
100
AcDbVertex
100
AcDb3dPolylineVertex
 10
42.344037
 20
131.727452
 30
0.236
 70
    32
  0
VERTEX
  5
18B
330
77
100
AcDbEntity
  8
GVSTRACKS
 62
   181
100
AcDbVertex
100
AcDb3dPolylineVertex
 10
42.47275399999999
 20
132.225182
 30
0.237
 70
    32
  0
VERTEX
  5
18C
330
77
100
AcDbEntity
  8
GVSTRACKS
 62
   181
100
AcDbVertex
100
AcDb3dPolylineVertex
 10
42.60067399999999
 20
132.722826
 30
0.237
 70
    32
  0
VERTEX
  5
18D
330
77
100
AcDbEntity
  8
GVSTRACKS
 62
   181
100
AcDbVertex
100
AcDb3dPolylineVertex
 10
42.728758
 20
133.220542
 30
0.239
 70
    32
  0
VERTEX
  5
18E
330
77
100
AcDbEntity
  8
GVSTRACKS
 62
   181
100
AcDbVertex
100
AcDb3dPolylineVertex
 10
42.860417
 20
133.716696
 30
0.24
 70
    32
  0
VERTEX
  5
18F
330
77
100
AcDbEntity
  8
GVSTRACKS
 62
   181
100
AcDbVertex
100
AcDb3dPolylineVertex
 10
42.988881
 20
134.214956
 30
0.241
 70
    32
  0
VERTEX
  5
190
330
77
100
AcDbEntity
  8
GVSTRACKS
 62
   181
100
AcDbVertex
100
AcDb3dPolylineVertex
 10
43.117583
 20
134.712973
 30
0.242
 70
    32
  0
VERTEX
  5
191
330
77
100
AcDbEntity
  8
GVSTRACKS
 62
   181
100
AcDbVertex
100
AcDb3dPolylineVertex
 10
43.24594199999999
 20
135.210527
 30
0.242
 70
    32
  0
VERTEX
  5
192
330
77
100
AcDbEntity
  8
GVSTRACKS
 62
   181
100
AcDbVertex
100
AcDb3dPolylineVertex
 10
43.374966
 20
135.7085129999999
 30
0.242
 70
    32
  0
VERTEX
  5
193
330
77
100
AcDbEntity
  8
GVSTRACKS
 62
   181
100
AcDbVertex
100
AcDb3dPolylineVertex
 10
43.50923
 20
136.20371
 30
0.242
 70
    32
  0
VERTEX
  5
194
330
77
100
AcDbEntity
  8
GVSTRACKS
 62
   181
100
AcDbVertex
100
AcDb3dPolylineVertex
 10
43.64506699999999
 20
136.699792
 30
0.241
 70
    32
  0
VERTEX
  5
195
330
77
100
AcDbEntity
  8
GVSTRACKS
 62
   181
100
AcDbVertex
100
AcDb3dPolylineVertex
 10
43.783026
 20
137.19475
 30
0.24
 70
    32
  0
VERTEX
  5
196
330
77
100
AcDbEntity
  8
GVSTRACKS
 62
   181
100
AcDbVertex
100
AcDb3dPolylineVertex
 10
43.923467
 20
137.687941
 30
0.238
 70
    32
  0
VERTEX
  5
197
330
77
100
AcDbEntity
  8
GVSTRACKS
 62
   181
100
AcDbVertex
100
AcDb3dPolylineVertex
 10
44.06638499999999
 20
138.181604
 30
0.237
 70
    32
  0
VERTEX
  5
198
330
77
100
AcDbEntity
  8
GVSTRACKS
 62
   181
100
AcDbVertex
100
AcDb3dPolylineVertex
 10
44.21264299999999
 20
138.674337
 30
0.237
 70
    32
  0
VERTEX
  5
199
330
77
100
AcDbEntity
  8
GVSTRACKS
 62
   181
100
AcDbVertex
100
AcDb3dPolylineVertex
 10
44.360745
 20
139.166019
 30
0.237
 70
    32
  0
VERTEX
  5
19A
330
77
100
AcDbEntity
  8
GVSTRACKS
 62
   181
100
AcDbVertex
100
AcDb3dPolylineVertex
 10
44.510488
 20
139.657704
 30
0.237
 70
    32
  0
VERTEX
  5
19B
330
77
100
AcDbEntity
  8
GVSTRACKS
 62
   181
100
AcDbVertex
100
AcDb3dPolylineVertex
 10
44.66315699999999
 20
140.14771
 30
0.237
 70
    32
  0
VERTEX
  5
19C
330
77
100
AcDbEntity
  8
GVSTRACKS
 62
   181
100
AcDbVertex
100
AcDb3dPolylineVertex
 10
44.817762
 20
140.636239
 30
0.238
 70
    32
  0
VERTEX
  5
19D
330
77
100
AcDbEntity
  8
GVSTRACKS
 62
   181
100
AcDbVertex
100
AcDb3dPolylineVertex
 10
44.97459899999999
 20
141.124224
 30
0.238
 70
    32
  0
VERTEX
  5
19E
330
77
100
AcDbEntity
  8
GVSTRACKS
 62
   181
100
AcDbVertex
100
AcDb3dPolylineVertex
 10
45.133885
 20
141.611533
 30
0.239
 70
    32
  0
VERTEX
  5
19F
330
77
100
AcDbEntity
  8
GVSTRACKS
 62
   181
100
AcDbVertex
100
AcDb3dPolylineVertex
 10
45.294601
 20
142.097733
 30
0.239
 70
    32
  0
VERTEX
  5
1A0
330
77
100
AcDbEntity
  8
GVSTRACKS
 62
   181
100
AcDbVertex
100
AcDb3dPolylineVertex
 10
45.457327
 20
142.583346
 30
0.24
 70
    32
  0
VERTEX
  5
1A1
330
77
100
AcDbEntity
  8
GVSTRACKS
 62
   181
100
AcDbVertex
100
AcDb3dPolylineVertex
 10
45.621339
 20
143.067969
 30
0.24
 70
    32
  0
VERTEX
  5
1A2
330
77
100
AcDbEntity
  8
GVSTRACKS
 62
   181
100
AcDbVertex
100
AcDb3dPolylineVertex
 10
45.786134
 20
143.551847
 30
0.24
 70
    32
  0
VERTEX
  5
1A3
330
77
100
AcDbEntity
  8
GVSTRACKS
 62
   181
100
AcDbVertex
100
AcDb3dPolylineVertex
 10
45.95208099999999
 20
144.033095
 30
0.241
 70
    32
  0
VERTEX
  5
1A4
330
77
100
AcDbEntity
  8
GVSTRACKS
 62
   181
100
AcDbVertex
100
AcDb3dPolylineVertex
 10
46.11899099999999
 20
144.513384
 30
0.24
 70
    32
  0
VERTEX
  5
1A5
330
77
100
AcDbEntity
  8
GVSTRACKS
 62
   181
100
AcDbVertex
100
AcDb3dPolylineVertex
 10
46.289493
 20
144.993419
 30
0.24
 70
    32
  0
VERTEX
  5
1A6
330
77
100
AcDbEntity
  8
GVSTRACKS
 62
   181
100
AcDbVertex
100
AcDb3dPolylineVertex
 10
46.459099
 20
145.473228
 30
0.24
 70
    32
  0
VERTEX
  5
1A7
330
77
100
AcDbEntity
  8
GVSTRACKS
 62
   181
100
AcDbVertex
100
AcDb3dPolylineVertex
 10
46.631023
 20
145.952707
 30
0.239
 70
    32
  0
VERTEX
  5
1A8
330
77
100
AcDbEntity
  8
GVSTRACKS
 62
   181
100
AcDbVertex
100
AcDb3dPolylineVertex
 10
46.80478599999999
 20
146.432166
 30
0.24
 70
    32
  0
VERTEX
  5
1A9
330
77
100
AcDbEntity
  8
GVSTRACKS
 62
   181
100
AcDbVertex
100
AcDb3dPolylineVertex
 10
46.981929
 20
146.910172
 30
0.24
 70
    32
  0
VERTEX
  5
1AA
330
77
100
AcDbEntity
  8
GVSTRACKS
 62
   181
100
AcDbVertex
100
AcDb3dPolylineVertex
 10
47.158818
 20
147.387113
 30
0.239
 70
    32
  0
VERTEX
  5
1AB
330
77
100
AcDbEntity
  8
GVSTRACKS
 62
   181
100
AcDbVertex
100
AcDb3dPolylineVertex
 10
47.33710199999999
 20
147.865455
 30
0.239
 70
    32
  0
VERTEX
  5
1AC
330
77
100
AcDbEntity
  8
GVSTRACKS
 62
   181
100
AcDbVertex
100
AcDb3dPolylineVertex
 10
47.51741099999999
 20
148.344128
 30
0.24
 70
    32
  0
VERTEX
  5
1AD
330
77
100
AcDbEntity
  8
GVSTRACKS
 62
   181
100
AcDbVertex
100
AcDb3dPolylineVertex
 10
47.69840199999999
 20
148.822433
 30
0.241
 70
    32
  0
VERTEX
  5
1AE
330
77
100
AcDbEntity
  8
GVSTRACKS
 62
   181
100
AcDbVertex
100
AcDb3dPolylineVertex
 10
47.882226
 20
149.30039
 30
0.242
 70
    32
  0
VERTEX
  5
1AF
330
77
100
AcDbEntity
  8
GVSTRACKS
 62
   181
100
AcDbVertex
100
AcDb3dPolylineVertex
 10
48.068014
 20
149.778017
 30
0.243
 70
    32
  0
VERTEX
  5
1B0
330
77
100
AcDbEntity
  8
GVSTRACKS
 62
   181
100
AcDbVertex
100
AcDb3dPolylineVertex
 10
48.254438
 20
150.254841
 30
0.245
 70
    32
  0
VERTEX
  5
1B1
330
77
100
AcDbEntity
  8
GVSTRACKS
 62
   181
100
AcDbVertex
100
AcDb3dPolylineVertex
 10
48.441387
 20
150.731486
 30
0.248
 70
    32
  0
VERTEX
  5
1B2
330
77
100
AcDbEntity
  8
GVSTRACKS
 62
   181
100
AcDbVertex
100
AcDb3dPolylineVertex
 10
48.629508
 20
151.208496
 30
0.251
 70
    32
  0
VERTEX
  5
1B3
330
77
100
AcDbEntity
  8
GVSTRACKS
 62
   181
100
AcDbVertex
100
AcDb3dPolylineVertex
 10
48.819712
 20
151.684904
 30
0.254
 70
    32
  0
VERTEX
  5
1B4
330
77
100
AcDbEntity
  8
GVSTRACKS
 62
   181
100
AcDbVertex
100
AcDb3dPolylineVertex
 10
49.012285
 20
152.160687
 30
0.258
 70
    32
  0
VERTEX
  5
1B5
330
77
100
AcDbEntity
  8
GVSTRACKS
 62
   181
100
AcDbVertex
100
AcDb3dPolylineVertex
 10
49.206546
 20
152.636001
 30
0.262
 70
    32
  0
VERTEX
  5
1B6
330
77
100
AcDbEntity
  8
GVSTRACKS
 62
   181
100
AcDbVertex
100
AcDb3dPolylineVertex
 10
49.402699
 20
153.110698
 30
0.266
 70
    32
  0
VERTEX
  5
1B7
330
77
100
AcDbEntity
  8
GVSTRACKS
 62
   181
100
AcDbVertex
100
AcDb3dPolylineVertex
 10
49.602456
 20
153.583171
 30
0.27
 70
    32
  0
VERTEX
  5
1B8
330
77
100
AcDbEntity
  8
GVSTRACKS
 62
   181
100
AcDbVertex
100
AcDb3dPolylineVertex
 10
49.802951
 20
154.055155
 30
0.274
 70
    32
  0
VERTEX
  5
1B9
330
77
100
AcDbEntity
  8
GVSTRACKS
 62
   181
100
AcDbVertex
100
AcDb3dPolylineVertex
 10
50.004384
 20
154.526629
 30
0.277
 70
    32
  0
VERTEX
  5
1BA
330
77
100
AcDbEntity
  8
GVSTRACKS
 62
   181
100
AcDbVertex
100
AcDb3dPolylineVertex
 10
50.207091
 20
154.996672
 30
0.28
 70
    32
  0
VERTEX
  5
1BB
330
77
100
AcDbEntity
  8
GVSTRACKS
 62
   181
100
AcDbVertex
100
AcDb3dPolylineVertex
 10
50.412929
 20
155.466485
 30
0.282
 70
    32
  0
VERTEX
  5
1BC
330
77
100
AcDbEntity
  8
GVSTRACKS
 62
   181
100
AcDbVertex
100
AcDb3dPolylineVertex
 10
50.615185
 20
155.935786
 30
0.283
 70
    32
  0
VERTEX
  5
1BD
330
77
100
AcDbEntity
  8
GVSTRACKS
 62
   181
100
AcDbVertex
100
AcDb3dPolylineVertex
 10
50.819193
 20
156.404854
 30
0.283
 70
    32
  0
VERTEX
  5
1BE
330
77
100
AcDbEntity
  8
GVSTRACKS
 62
   181
100
AcDbVertex
100
AcDb3dPolylineVertex
 10
51.023077
 20
156.874835
 30
0.284
 70
    32
  0
VERTEX
  5
1BF
330
77
100
AcDbEntity
  8
GVSTRACKS
 62
   181
100
AcDbVertex
100
AcDb3dPolylineVertex
 10
51.228374
 20
157.343001
 30
0.286
 70
    32
  0
VERTEX
  5
1C0
330
77
100
AcDbEntity
  8
GVSTRACKS
 62
   181
100
AcDbVertex
100
AcDb3dPolylineVertex
 10
51.425817
 20
157.816283
 30
0.286
 70
    32
  0
VERTEX
  5
1C1
330
77
100
AcDbEntity
  8
GVSTRACKS
 62
   181
100
AcDbVertex
100
AcDb3dPolylineVertex
 10
51.628682
 20
158.284626
 30
0.285
 70
    32
  0
VERTEX
  5
1C2
330
77
100
AcDbEntity
  8
GVSTRACKS
 62
   181
100
AcDbVertex
100
AcDb3dPolylineVertex
 10
51.837914
 20
158.753001
 30
0.286
 70
    32
  0
VERTEX
  5
1C3
330
77
100
AcDbEntity
  8
GVSTRACKS
 62
   181
100
AcDbVertex
100
AcDb3dPolylineVertex
 10
52.03786199999999
 20
159.222773
 30
0.289
 70
    32
  0
VERTEX
  5
1C4
330
77
100
AcDbEntity
  8
GVSTRACKS
 62
   181
100
AcDbVertex
100
AcDb3dPolylineVertex
 10
52.242879
 20
159.692735
 30
0.293
 70
    32
  0
VERTEX
  5
1C5
330
77
100
AcDbEntity
  8
GVSTRACKS
 62
   181
100
AcDbVertex
100
AcDb3dPolylineVertex
 10
52.45048
 20
160.161248
 30
0.298
 70
    32
  0
VERTEX
  5
1C6
330
77
100
AcDbEntity
  8
GVSTRACKS
 62
   181
100
AcDbVertex
100
AcDb3dPolylineVertex
 10
52.65131
 20
160.63524
 30
0.304
 70
    32
  0
VERTEX
  5
1C7
330
77
100
AcDbEntity
  8
GVSTRACKS
 62
   181
100
AcDbVertex
100
AcDb3dPolylineVertex
 10
52.853494
 20
161.104947
 30
0.308
 70
    32
  0
VERTEX
  5
1C8
330
77
100
AcDbEntity
  8
GVSTRACKS
 62
   181
100
AcDbVertex
100
AcDb3dPolylineVertex
 10
53.0573
 20
161.573257
 30
0.312
 70
    32
  0
VERTEX
  5
1C9
330
77
100
AcDbEntity
  8
GVSTRACKS
 62
   181
100
AcDbVertex
100
AcDb3dPolylineVertex
 10
53.264942
 20
162.042844
 30
0.318
 70
    32
  0
VERTEX
  5
1CA
330
77
100
AcDbEntity
  8
GVSTRACKS
 62
   181
100
AcDbVertex
100
AcDb3dPolylineVertex
 10
53.470828
 20
162.512878
 30
0.322
 70
    32
  0
VERTEX
  5
1CB
330
77
100
AcDbEntity
  8
GVSTRACKS
 62
   181
100
AcDbVertex
100
AcDb3dPolylineVertex
 10
53.675763
 20
162.982201
 30
0.325
 70
    32
  0
VERTEX
  5
1CC
330
77
100
AcDbEntity
  8
GVSTRACKS
 62
   181
100
AcDbVertex
100
AcDb3dPolylineVertex
 10
53.882459
 20
163.451341
 30
0.327
 70
    32
  0
VERTEX
  5
1CD
330
77
100
AcDbEntity
  8
GVSTRACKS
 62
   181
100
AcDbVertex
100
AcDb3dPolylineVertex
 10
54.08821999999999
 20
163.922288
 30
0.33
 70
    32
  0
VERTEX
  5
1CE
330
77
100
AcDbEntity
  8
GVSTRACKS
 62
   181
100
AcDbVertex
100
AcDb3dPolylineVertex
 10
54.295161
 20
164.39184
 30
0.331
 70
    32
  0
VERTEX
  5
1CF
330
77
100
AcDbEntity
  8
GVSTRACKS
 62
   181
100
AcDbVertex
100
AcDb3dPolylineVertex
 10
54.50040699999999
 20
164.862802
 30
0.331
 70
    32
  0
VERTEX
  5
1D0
330
77
100
AcDbEntity
  8
GVSTRACKS
 62
   181
100
AcDbVertex
100
AcDb3dPolylineVertex
 10
54.705836
 20
165.3355379999999
 30
0.331
 70
    32
  0
VERTEX
  5
1D1
330
77
100
AcDbEntity
  8
GVSTRACKS
 62
   181
100
AcDbVertex
100
AcDb3dPolylineVertex
 10
54.90532099999999
 20
165.809946
 30
0.331
 70
    32
  0
VERTEX
  5
1D2
330
77
100
AcDbEntity
  8
GVSTRACKS
 62
   181
100
AcDbVertex
100
AcDb3dPolylineVertex
 10
55.104451
 20
166.28668
 30
0.331
 70
    32
  0
VERTEX
  5
1D3
330
77
100
AcDbEntity
  8
GVSTRACKS
 62
   181
100
AcDbVertex
100
AcDb3dPolylineVertex
 10
55.30151
 20
166.764245
 30
0.332
 70
    32
  0
VERTEX
  5
1D4
330
77
100
AcDbEntity
  8
GVSTRACKS
 62
   181
100
AcDbVertex
100
AcDb3dPolylineVertex
 10
55.495953
 20
167.242237
 30
0.332
 70
    32
  0
VERTEX
  5
1D5
330
77
100
AcDbEntity
  8
GVSTRACKS
 62
   181
100
AcDbVertex
100
AcDb3dPolylineVertex
 10
55.691386
 20
167.720115
 30
0.333
 70
    32
  0
VERTEX
  5
1D6
330
77
100
AcDbEntity
  8
GVSTRACKS
 62
   181
100
AcDbVertex
100
AcDb3dPolylineVertex
 10
55.885283
 20
168.198999
 30
0.334
 70
    32
  0
VERTEX
  5
1D7
330
77
100
AcDbEntity
  8
GVSTRACKS
 62
   181
100
AcDbVertex
100
AcDb3dPolylineVertex
 10
56.077416
 20
168.678579
 30
0.335
 70
    32
  0
VERTEX
  5
1D8
330
77
100
AcDbEntity
  8
GVSTRACKS
 62
   181
100
AcDbVertex
100
AcDb3dPolylineVertex
 10
56.267931
 20
169.158827
 30
0.337
 70
    32
  0
VERTEX
  5
1D9
330
77
100
AcDbEntity
  8
GVSTRACKS
 62
   181
100
AcDbVertex
100
AcDb3dPolylineVertex
 10
56.456163
 20
169.639611
 30
0.339
 70
    32
  0
VERTEX
  5
1DA
330
77
100
AcDbEntity
  8
GVSTRACKS
 62
   181
100
AcDbVertex
100
AcDb3dPolylineVertex
 10
56.643376
 20
170.120567
 30
0.341
 70
    32
  0
VERTEX
  5
1DB
330
77
100
AcDbEntity
  8
GVSTRACKS
 62
   181
100
AcDbVertex
100
AcDb3dPolylineVertex
 10
56.830372
 20
170.601958
 30
0.3439999999999999
 70
    32
  0
VERTEX
  5
1DC
330
77
100
AcDbEntity
  8
GVSTRACKS
 62
   181
100
AcDbVertex
100
AcDb3dPolylineVertex
 10
57.01624699999999
 20
171.083897
 30
0.346
 70
    32
  0
VERTEX
  5
1DD
330
77
100
AcDbEntity
  8
GVSTRACKS
 62
   181
100
AcDbVertex
100
AcDb3dPolylineVertex
 10
57.201944
 20
171.564542
 30
0.3479999999999999
 70
    32
  0
VERTEX
  5
1DE
330
77
100
AcDbEntity
  8
GVSTRACKS
 62
   181
100
AcDbVertex
100
AcDb3dPolylineVertex
 10
57.387365
 20
172.046555
 30
0.351
 70
    32
  0
VERTEX
  5
1DF
330
77
100
AcDbEntity
  8
GVSTRACKS
 62
   181
100
AcDbVertex
100
AcDb3dPolylineVertex
 10
57.570088
 20
172.529048
 30
0.353
 70
    32
  0
VERTEX
  5
1E0
330
77
100
AcDbEntity
  8
GVSTRACKS
 62
   181
100
AcDbVertex
100
AcDb3dPolylineVertex
 10
57.753551
 20
173.011657
 30
0.355
 70
    32
  0
VERTEX
  5
1E1
330
77
100
AcDbEntity
  8
GVSTRACKS
 62
   181
100
AcDbVertex
100
AcDb3dPolylineVertex
 10
57.93583100000001
 20
173.494062
 30
0.357
 70
    32
  0
VERTEX
  5
1E2
330
77
100
AcDbEntity
  8
GVSTRACKS
 62
   181
100
AcDbVertex
100
AcDb3dPolylineVertex
 10
58.11595500000001
 20
173.976784
 30
0.359
 70
    32
  0
VERTEX
  5
1E3
330
77
100
AcDbEntity
  8
GVSTRACKS
 62
   181
100
AcDbVertex
100
AcDb3dPolylineVertex
 10
58.29517
 20
174.459957
 30
0.36
 70
    32
  0
VERTEX
  5
1E4
330
77
100
AcDbEntity
  8
GVSTRACKS
 62
   181
100
AcDbVertex
100
AcDb3dPolylineVertex
 10
58.47357099999999
 20
174.943544
 30
0.362
 70
    32
  0
VERTEX
  5
1E5
330
77
100
AcDbEntity
  8
GVSTRACKS
 62
   181
100
AcDbVertex
100
AcDb3dPolylineVertex
 10
58.650326
 20
175.427555
 30
0.363
 70
    32
  0
VERTEX
  5
1E6
330
77
100
AcDbEntity
  8
GVSTRACKS
 62
   181
100
AcDbVertex
100
AcDb3dPolylineVertex
 10
58.82639300000001
 20
175.912364
 30
0.365
 70
    32
  0
VERTEX
  5
1E7
330
77
100
AcDbEntity
  8
GVSTRACKS
 62
   181
100
AcDbVertex
100
AcDb3dPolylineVertex
 10
59.001707
 20
176.397645
 30
0.367
 70
    32
  0
VERTEX
  5
1E8
330
77
100
AcDbEntity
  8
GVSTRACKS
 62
   181
100
AcDbVertex
100
AcDb3dPolylineVertex
 10
59.175284
 20
176.8835639999999
 30
0.369
 70
    32
  0
VERTEX
  5
1E9
330
77
100
AcDbEntity
  8
GVSTRACKS
 62
   181
100
AcDbVertex
100
AcDb3dPolylineVertex
 10
59.348551
 20
177.370647
 30
0.37
 70
    32
  0
VERTEX
  5
1EA
330
77
100
AcDbEntity
  8
GVSTRACKS
 62
   181
100
AcDbVertex
100
AcDb3dPolylineVertex
 10
59.51491899999999
 20
177.842351
 30
0.372
 70
    32
  0
VERTEX
  5
1EB
330
77
100
AcDbEntity
  8
GVSTRACKS
 62
   181
100
AcDbVertex
100
AcDb3dPolylineVertex
 10
59.68046300000001
 20
178.315625
 30
0.373
 70
    32
  0
VERTEX
  5
1EC
330
77
100
AcDbEntity
  8
GVSTRACKS
 62
   181
100
AcDbVertex
100
AcDb3dPolylineVertex
 10
59.845562
 20
178.789629
 30
0.374
 70
    32
  0
VERTEX
  5
1ED
330
77
100
AcDbEntity
  8
GVSTRACKS
 62
   181
100
AcDbVertex
100
AcDb3dPolylineVertex
 10
60.00943
 20
179.264806
 30
0.375
 70
    32
  0
VERTEX
  5
1EE
330
77
100
AcDbEntity
  8
GVSTRACKS
 62
   181
100
AcDbVertex
100
AcDb3dPolylineVertex
 10
60.17230699999999
 20
179.741303
 30
0.376
 70
    32
  0
VERTEX
  5
1EF
330
77
100
AcDbEntity
  8
GVSTRACKS
 62
   181
100
AcDbVertex
100
AcDb3dPolylineVertex
 10
60.335111
 20
180.218419
 30
0.376
 70
    32
  0
VERTEX
  5
1F0
330
77
100
AcDbEntity
  8
GVSTRACKS
 62
   181
100
AcDbVertex
100
AcDb3dPolylineVertex
 10
60.492303
 20
180.69753
 30
0.378
 70
    32
  0
VERTEX
  5
1F1
330
77
100
AcDbEntity
  8
GVSTRACKS
 62
   181
100
AcDbVertex
100
AcDb3dPolylineVertex
 10
60.64926899999999
 20
181.177628
 30
0.379
 70
    32
  0
VERTEX
  5
1F2
330
77
100
AcDbEntity
  8
GVSTRACKS
 62
   181
100
AcDbVertex
100
AcDb3dPolylineVertex
 10
60.804133
 20
181.658438
 30
0.38
 70
    32
  0
VERTEX
  5
1F3
330
77
100
AcDbEntity
  8
GVSTRACKS
 62
   181
100
AcDbVertex
100
AcDb3dPolylineVertex
 10
60.95780300000001
 20
182.141018
 30
0.382
 70
    32
  0
VERTEX
  5
1F4
330
77
100
AcDbEntity
  8
GVSTRACKS
 62
   181
100
AcDbVertex
100
AcDb3dPolylineVertex
 10
61.111052
 20
182.62418
 30
0.384
 70
    32
  0
VERTEX
  5
1F5
330
77
100
AcDbEntity
  8
GVSTRACKS
 62
   181
100
AcDbVertex
100
AcDb3dPolylineVertex
 10
61.264054
 20
183.108351
 30
0.386
 70
    32
  0
VERTEX
  5
1F6
330
77
100
AcDbEntity
  8
GVSTRACKS
 62
   181
100
AcDbVertex
100
AcDb3dPolylineVertex
 10
61.417411
 20
183.592307
 30
0.387
 70
    32
  0
VERTEX
  5
1F7
330
77
100
AcDbEntity
  8
GVSTRACKS
 62
   181
100
AcDbVertex
100
AcDb3dPolylineVertex
 10
61.57003299999999
 20
184.076928
 30
0.388
 70
    32
  0
VERTEX
  5
1F8
330
77
100
AcDbEntity
  8
GVSTRACKS
 62
   181
100
AcDbVertex
100
AcDb3dPolylineVertex
 10
61.723002
 20
184.561887
 30
0.388
 70
    32
  0
VERTEX
  5
1F9
330
77
100
AcDbEntity
  8
GVSTRACKS
 62
   181
100
AcDbVertex
100
AcDb3dPolylineVertex
 10
61.875829
 20
185.048258
 30
0.388
 70
    32
  0
VERTEX
  5
1FA
330
77
100
AcDbEntity
  8
GVSTRACKS
 62
   181
100
AcDbVertex
100
AcDb3dPolylineVertex
 10
62.020918
 20
185.5360649999999
 30
0.389
 70
    32
  0
VERTEX
  5
1FB
330
77
100
AcDbEntity
  8
GVSTRACKS
 62
   181
100
AcDbVertex
100
AcDb3dPolylineVertex
 10
62.164215
 20
186.023723
 30
0.391
 70
    32
  0
VERTEX
  5
1FC
330
77
100
AcDbEntity
  8
GVSTRACKS
 62
   181
100
AcDbVertex
100
AcDb3dPolylineVertex
 10
62.308189
 20
186.513159
 30
0.393
 70
    32
  0
VERTEX
  5
1FD
330
77
100
AcDbEntity
  8
GVSTRACKS
 62
   181
100
AcDbVertex
100
AcDb3dPolylineVertex
 10
62.44903199999999
 20
187.003429
 30
0.395
 70
    32
  0
VERTEX
  5
1FE
330
77
100
AcDbEntity
  8
GVSTRACKS
 62
   181
100
AcDbVertex
100
AcDb3dPolylineVertex
 10
62.588029
 20
187.494057
 30
0.399
 70
    32
  0
VERTEX
  5
1FF
330
77
100
AcDbEntity
  8
GVSTRACKS
 62
   181
100
AcDbVertex
100
AcDb3dPolylineVertex
 10
62.72448499999999
 20
187.984281
 30
0.4020000000000001
 70
    32
  0
VERTEX
  5
200
330
77
100
AcDbEntity
  8
GVSTRACKS
 62
   181
100
AcDbVertex
100
AcDb3dPolylineVertex
 10
62.859003
 20
188.475291
 30
0.4050000000000001
 70
    32
  0
VERTEX
  5
201
330
77
100
AcDbEntity
  8
GVSTRACKS
 62
   181
100
AcDbVertex
100
AcDb3dPolylineVertex
 10
62.991379
 20
188.967536
 30
0.408
 70
    32
  0
VERTEX
  5
202
330
77
100
AcDbEntity
  8
GVSTRACKS
 62
   181
100
AcDbVertex
100
AcDb3dPolylineVertex
 10
63.122264
 20
189.459925
 30
0.41
 70
    32
  0
VERTEX
  5
203
330
77
100
AcDbEntity
  8
GVSTRACKS
 62
   181
100
AcDbVertex
100
AcDb3dPolylineVertex
 10
63.25085999999999
 20
189.953189
 30
0.411
 70
    32
  0
VERTEX
  5
204
330
77
100
AcDbEntity
  8
GVSTRACKS
 62
   181
100
AcDbVertex
100
AcDb3dPolylineVertex
 10
63.378804
 20
190.447845
 30
0.413
 70
    32
  0
VERTEX
  5
205
330
77
100
AcDbEntity
  8
GVSTRACKS
 62
   181
100
AcDbVertex
100
AcDb3dPolylineVertex
 10
63.50521999999999
 20
190.94347
 30
0.415
 70
    32
  0
VERTEX
  5
206
330
77
100
AcDbEntity
  8
GVSTRACKS
 62
   181
100
AcDbVertex
100
AcDb3dPolylineVertex
 10
63.63061999999999
 20
191.440349
 30
0.417
 70
    32
  0
VERTEX
  5
207
330
77
100
AcDbEntity
  8
GVSTRACKS
 62
   181
100
AcDbVertex
100
AcDb3dPolylineVertex
 10
63.755568
 20
191.938296
 30
0.419
 70
    32
  0
VERTEX
  5
208
330
77
100
AcDbEntity
  8
GVSTRACKS
 62
   181
100
AcDbVertex
100
AcDb3dPolylineVertex
 10
63.87945300000001
 20
192.437063
 30
0.421
 70
    32
  0
VERTEX
  5
209
330
77
100
AcDbEntity
  8
GVSTRACKS
 62
   181
100
AcDbVertex
100
AcDb3dPolylineVertex
 10
64.002279
 20
192.936737
 30
0.423
 70
    32
  0
VERTEX
  5
20A
330
77
100
AcDbEntity
  8
GVSTRACKS
 62
   181
100
AcDbVertex
100
AcDb3dPolylineVertex
 10
64.124137
 20
193.437497
 30
0.425
 70
    32
  0
VERTEX
  5
20B
330
77
100
AcDbEntity
  8
GVSTRACKS
 62
   181
100
AcDbVertex
100
AcDb3dPolylineVertex
 10
64.244552
 20
193.939136
 30
0.427
 70
    32
  0
VERTEX
  5
20C
330
77
100
AcDbEntity
  8
GVSTRACKS
 62
   181
100
AcDbVertex
100
AcDb3dPolylineVertex
 10
64.364661
 20
194.44121
 30
0.429
 70
    32
  0
VERTEX
  5
20D
330
77
100
AcDbEntity
  8
GVSTRACKS
 62
   181
100
AcDbVertex
100
AcDb3dPolylineVertex
 10
64.48274999999999
 20
194.944334
 30
0.431
 70
    32
  0
VERTEX
  5
20E
330
77
100
AcDbEntity
  8
GVSTRACKS
 62
   181
100
AcDbVertex
100
AcDb3dPolylineVertex
 10
64.599621
 20
195.448559
 30
0.434
 70
    32
  0
VERTEX
  5
20F
330
77
100
AcDbEntity
  8
GVSTRACKS
 62
   181
100
AcDbVertex
100
AcDb3dPolylineVertex
 10
64.71091700000001
 20
195.936798
 30
0.4360000000000001
 70
    32
  0
VERTEX
  5
210
330
77
100
AcDbEntity
  8
GVSTRACKS
 62
   181
100
AcDbVertex
100
AcDb3dPolylineVertex
 10
64.821415
 20
196.426371
 30
0.438
 70
    32
  0
VERTEX
  5
211
330
77
100
AcDbEntity
  8
GVSTRACKS
 62
   181
100
AcDbVertex
100
AcDb3dPolylineVertex
 10
64.931418
 20
196.916844
 30
0.439
 70
    32
  0
VERTEX
  5
212
330
77
100
AcDbEntity
  8
GVSTRACKS
 62
   181
100
AcDbVertex
100
AcDb3dPolylineVertex
 10
65.041176
 20
197.408413
 30
0.4400000000000001
 70
    32
  0
VERTEX
  5
213
330
77
100
AcDbEntity
  8
GVSTRACKS
 62
   181
100
AcDbVertex
100
AcDb3dPolylineVertex
 10
65.147966
 20
197.901102
 30
0.4400000000000001
 70
    32
  0
VERTEX
  5
214
330
77
100
AcDbEntity
  8
GVSTRACKS
 62
   181
100
AcDbVertex
100
AcDb3dPolylineVertex
 10
65.25455699999999
 20
198.394115
 30
0.4400000000000001
 70
    32
  0
VERTEX
  5
215
330
77
100
AcDbEntity
  8
GVSTRACKS
 62
   181
100
AcDbVertex
100
AcDb3dPolylineVertex
 10
65.36093499999999
 20
198.888645
 30
0.439
 70
    32
  0
VERTEX
  5
216
330
77
100
AcDbEntity
  8
GVSTRACKS
 62
   181
100
AcDbVertex
100
AcDb3dPolylineVertex
 10
65.46469499999999
 20
199.383602
 30
0.437
 70
    32
  0
VERTEX
  5
217
330
77
100
AcDbEntity
  8
GVSTRACKS
 62
   181
100
AcDbVertex
100
AcDb3dPolylineVertex
 10
65.565554
 20
199.880002
 30
0.435
 70
    32
  0
VERTEX
  5
218
330
77
100
AcDbEntity
  8
GVSTRACKS
 62
   181
100
AcDbVertex
100
AcDb3dPolylineVertex
 10
65.665717
 20
200.376846
 30
0.434
 70
    32
  0
VERTEX
  5
219
330
77
100
AcDbEntity
  8
GVSTRACKS
 62
   181
100
AcDbVertex
100
AcDb3dPolylineVertex
 10
65.76640199999999
 20
200.873938
 30
0.433
 70
    32
  0
VERTEX
  5
21A
330
77
100
AcDbEntity
  8
GVSTRACKS
 62
   181
100
AcDbVertex
100
AcDb3dPolylineVertex
 10
65.86899200000001
 20
201.371635
 30
0.434
 70
    32
  0
VERTEX
  5
21B
330
77
100
AcDbEntity
  8
GVSTRACKS
 62
   181
100
AcDbVertex
100
AcDb3dPolylineVertex
 10
65.970431
 20
201.870152
 30
0.435
 70
    32
  0
VERTEX
  5
21C
330
77
100
AcDbEntity
  8
GVSTRACKS
 62
   181
100
AcDbVertex
100
AcDb3dPolylineVertex
 10
66.07153499999999
 20
202.369075
 30
0.438
 70
    32
  0
VERTEX
  5
21D
330
77
100
AcDbEntity
  8
GVSTRACKS
 62
   181
100
AcDbVertex
100
AcDb3dPolylineVertex
 10
66.172806
 20
202.86855
 30
0.4410000000000001
 70
    32
  0
VERTEX
  5
21E
330
77
100
AcDbEntity
  8
GVSTRACKS
 62
   181
100
AcDbVertex
100
AcDb3dPolylineVertex
 10
66.27325
 20
203.368512
 30
0.4440000000000001
 70
    32
  0
VERTEX
  5
21F
330
77
100
AcDbEntity
  8
GVSTRACKS
 62
   181
100
AcDbVertex
100
AcDb3dPolylineVertex
 10
66.37262199999999
 20
203.868853
 30
0.447
 70
    32
  0
VERTEX
  5
220
330
77
100
AcDbEntity
  8
GVSTRACKS
 62
   181
100
AcDbVertex
100
AcDb3dPolylineVertex
 10
66.470957
 20
204.369564
 30
0.45
 70
    32
  0
VERTEX
  5
221
330
77
100
AcDbEntity
  8
GVSTRACKS
 62
   181
100
AcDbVertex
100
AcDb3dPolylineVertex
 10
66.56858800000001
 20
204.87097
 30
0.4530000000000001
 70
    32
  0
VERTEX
  5
222
330
77
100
AcDbEntity
  8
GVSTRACKS
 62
   181
100
AcDbVertex
100
AcDb3dPolylineVertex
 10
66.665001
 20
205.372872
 30
0.455
 70
    32
  0
VERTEX
  5
223
330
77
100
AcDbEntity
  8
GVSTRACKS
 62
   181
100
AcDbVertex
100
AcDb3dPolylineVertex
 10
66.760514
 20
205.874975
 30
0.4570000000000001
 70
    32
  0
VERTEX
  5
224
330
77
100
AcDbEntity
  8
GVSTRACKS
 62
   181
100
AcDbVertex
100
AcDb3dPolylineVertex
 10
66.856773
 20
206.376855
 30
0.458
 70
    32
  0
VERTEX
  5
225
330
77
100
AcDbEntity
  8
GVSTRACKS
 62
   181
100
AcDbVertex
100
AcDb3dPolylineVertex
 10
66.952025
 20
206.878834
 30
0.4600000000000001
 70
    32
  0
VERTEX
  5
226
330
77
100
AcDbEntity
  8
GVSTRACKS
 62
   181
100
AcDbVertex
100
AcDb3dPolylineVertex
 10
67.047088
 20
207.381189
 30
0.4610000000000001
 70
    32
  0
VERTEX
  5
227
330
77
100
AcDbEntity
  8
GVSTRACKS
 62
   181
100
AcDbVertex
100
AcDb3dPolylineVertex
 10
67.141478
 20
207.884355
 30
0.463
 70
    32
  0
VERTEX
  5
228
330
77
100
AcDbEntity
  8
GVSTRACKS
 62
   181
100
AcDbVertex
100
AcDb3dPolylineVertex
 10
67.233896
 20
208.388403
 30
0.4650000000000001
 70
    32
  0
VERTEX
  5
229
330
77
100
AcDbEntity
  8
GVSTRACKS
 62
   181
100
AcDbVertex
100
AcDb3dPolylineVertex
 10
67.326492
 20
208.892236
 30
0.4660000000000001
 70
    32
  0
VERTEX
  5
22A
330
77
100
AcDbEntity
  8
GVSTRACKS
 62
   181
100
AcDbVertex
100
AcDb3dPolylineVertex
 10
67.417726
 20
209.396685
 30
0.4660000000000001
 70
    32
  0
VERTEX
  5
22B
330
77
100
AcDbEntity
  8
GVSTRACKS
 62
   181
100
AcDbVertex
100
AcDb3dPolylineVertex
 10
67.50794
 20
209.901217
 30
0.4650000000000001
 70
    32
  0
VERTEX
  5
22C
330
77
100
AcDbEntity
  8
GVSTRACKS
 62
   181
100
AcDbVertex
100
AcDb3dPolylineVertex
 10
67.597818
 20
210.406155
 30
0.462
 70
    32
  0
VERTEX
  5
22D
330
77
100
AcDbEntity
  8
GVSTRACKS
 62
   181
100
AcDbVertex
100
AcDb3dPolylineVertex
 10
67.68782
 20
210.911387
 30
0.459
 70
    32
  0
VERTEX
  5
22E
330
77
100
AcDbEntity
  8
GVSTRACKS
 62
   181
100
AcDbVertex
100
AcDb3dPolylineVertex
 10
67.77894599999999
 20
211.416851
 30
0.455
 70
    32
  0
VERTEX
  5
22F
330
77
100
AcDbEntity
  8
GVSTRACKS
 62
   181
100
AcDbVertex
100
AcDb3dPolylineVertex
 10
67.870906
 20
211.922091
 30
0.451
 70
    32
  0
VERTEX
  5
230
330
77
100
AcDbEntity
  8
GVSTRACKS
 62
   181
100
AcDbVertex
100
AcDb3dPolylineVertex
 10
67.96604599999999
 20
212.427021
 30
0.446
 70
    32
  0
VERTEX
  5
231
330
77
100
AcDbEntity
  8
GVSTRACKS
 62
   181
100
AcDbVertex
100
AcDb3dPolylineVertex
 10
68.06099300000001
 20
212.931936
 30
0.442
 70
    32
  0
VERTEX
  5
232
330
77
100
AcDbEntity
  8
GVSTRACKS
 62
   181
100
AcDbVertex
100
AcDb3dPolylineVertex
 10
68.15598299999999
 20
213.437411
 30
0.4400000000000001
 70
    32
  0
VERTEX
  5
233
330
77
100
AcDbEntity
  8
GVSTRACKS
 62
   181
100
AcDbVertex
100
AcDb3dPolylineVertex
 10
68.2471
 20
213.945236
 30
0.438
 70
    32
  0
VERTEX
  5
234
330
77
100
AcDbEntity
  8
GVSTRACKS
 62
   181
100
AcDbVertex
100
AcDb3dPolylineVertex
 10
68.333563
 20
214.452929
 30
0.4360000000000001
 70
    32
  0
VERTEX
  5
235
330
77
100
AcDbEntity
  8
GVSTRACKS
 62
   181
100
AcDbVertex
100
AcDb3dPolylineVertex
 10
68.42163199999999
 20
214.960719
 30
0.434
 70
    32
  0
VERTEX
  5
236
330
77
100
AcDbEntity
  8
GVSTRACKS
 62
   181
100
AcDbVertex
100
AcDb3dPolylineVertex
 10
68.511848
 20
215.469048
 30
0.431
 70
    32
  0
VERTEX
  5
237
330
77
100
AcDbEntity
  8
GVSTRACKS
 62
   181
100
AcDbVertex
100
AcDb3dPolylineVertex
 10
68.59863100000001
 20
215.977828
 30
0.426
 70
    32
  0
VERTEX
  5
238
330
77
100
AcDbEntity
  8
GVSTRACKS
 62
   181
100
AcDbVertex
100
AcDb3dPolylineVertex
 10
68.689098
 20
216.485538
 30
0.419
 70
    32
  0
VERTEX
  5
239
330
77
100
AcDbEntity
  8
GVSTRACKS
 62
   181
100
AcDbVertex
100
AcDb3dPolylineVertex
 10
68.78017800000001
 20
216.993673
 30
0.414
 70
    32
  0
VERTEX
  5
23A
330
77
100
AcDbEntity
  8
GVSTRACKS
 62
   181
100
AcDbVertex
100
AcDb3dPolylineVertex
 10
68.873485
 20
217.501992
 30
0.408
 70
    32
  0
VERTEX
  5
23B
330
77
100
AcDbEntity
  8
GVSTRACKS
 62
   181
100
AcDbVertex
100
AcDb3dPolylineVertex
 10
68.967804
 20
218.010478
 30
0.4030000000000001
 70
    32
  0
SEQEND
  5
23C
330
77
100
AcDbEntity
  8
GVSTRACKS
 62
   181
  0
ENDSEC
  0
SECTION
  2
OBJECTS
  0
DICTIONARY
  5
C
330
0
100
AcDbDictionary
281
     1
  3
ACAD_CIP_PREVIOUS_PRODUCT_INFO
350
23E
  3
ACAD_COLOR
350
62
  3
ACAD_DETAILVIEWSTYLE
350
69
  3
ACAD_GROUP
350
D
  3
ACAD_LAYOUT
350
61
  3
ACAD_MATERIAL
350
10
  3
ACAD_MLEADERSTYLE
350
65
  3
ACAD_MLINESTYLE
350
5E
  3
ACAD_PLOTSETTINGS
350
60
  3
ACAD_PLOTSTYLENAME
350
E
  3
ACAD_SCALELIST
350
42
  3
ACAD_SECTIONVIEWSTYLE
350
67
  3
ACAD_TABLESTYLE
350
63
  3
ACAD_VISUALSTYLE
350
29
  3
ACDB_RECOMPOSE_DATA
350
250
  3
AcDbVariableDictionary
350
243
  0
DICTIONARY
  5
23F
330
54
100
AcDbDictionary
280
     1
281
     1
  3
ADSK_XREC_LAYER_RECONCILED
360
240
  0
DICTIONARY
  5
241
330
74
100
AcDbDictionary
280
     1
281
     1
  3
ADSK_XREC_LAYER_RECONCILED
360
242
  0
XRECORD
  5
23E
102
{ACAD_REACTORS
330
C
102
}
330
C
100
AcDbXrecord
280
     1
300
ACD
300
2020
300
87224ACD_2020_0F
  0
DICTIONARY
  5
62
102
{ACAD_REACTORS
330
C
102
}
330
C
100
AcDbDictionary
281
     1
  0
DICTIONARY
  5
69
102
{ACAD_REACTORS
330
C
102
}
330
C
100
AcDbDictionary
281
     1
  3
Imperial24
350
6A
  0
DICTIONARY
  5
D
102
{ACAD_REACTORS
330
C
102
}
330
C
100
AcDbDictionary
281
     1
  0
DICTIONARY
  5
61
102
{ACAD_REACTORS
330
C
102
}
330
C
100
AcDbDictionary
281
     1
  3
Layout1
350
6E
  3
Model
350
72
  0
DICTIONARY
  5
10
102
{ACAD_REACTORS
330
C
102
}
330
C
100
AcDbDictionary
281
     1
  3
ByBlock
350
19
  3
ByLayer
350
11
  3
Global
350
21
  0
DICTIONARY
  5
65
102
{ACAD_REACTORS
330
C
102
}
330
C
100
AcDbDictionary
281
     1
  3
Standard
350
66
  0
DICTIONARY
  5
5E
102
{ACAD_REACTORS
330
C
102
}
330
C
100
AcDbDictionary
281
     1
  3
Standard
350
5F
  0
DICTIONARY
  5
60
102
{ACAD_REACTORS
330
C
102
}
330
C
100
AcDbDictionary
281
     1
  0
ACDBDICTIONARYWDFLT
  5
E
102
{ACAD_REACTORS
330
C
102
}
330
C
100
AcDbDictionary
281
     1
  3
Normal
350
F
100
AcDbDictionaryWithDefault
340
F
  0
DICTIONARY
  5
42
102
{ACAD_REACTORS
330
C
102
}
330
C
100
AcDbDictionary
281
     1
  3
A0
350
43
  3
A1
350
44
  3
A2
350
45
  3
A3
350
46
  3
A4
350
47
  3
A5
350
48
  3
A6
350
49
  3
A7
350
4A
  3
A8
350
4B
  3
A9
350
4C
  3
B0
350
4D
  3
B1
350
4E
  3
B2
350
4F
  3
B3
350
50
  3
B4
350
51
  3
B5
350
52
  3
B6
350
53
  0
DICTIONARY
  5
67
102
{ACAD_REACTORS
330
C
102
}
330
C
100
AcDbDictionary
281
     1
  3
Imperial24
350
68
  0
DICTIONARY
  5
63
102
{ACAD_REACTORS
330
C
102
}
330
C
100
AcDbDictionary
281
     1
  3
Standard
350
64
  0
DICTIONARY
  5
29
102
{ACAD_REACTORS
330
C
102
}
330
C
100
AcDbDictionary
281
     1
  3
2dWireframe
350
2F
  3
Basic
350
2E
  3
Brighten
350
35
  3
ColorChange
350
39
  3
Conceptual
350
32
  3
Dim
350
34
  3
EdgeColorOff
350
41
  3
Facepattern
350
38
  3
Flat
350
2A
  3
FlatWithEdges
350
2B
  3
Gouraud
350
2C
  3
GouraudWithEdges
350
2D
  3
Hidden
350
31
  3
JitterOff
350
3F
  3
Linepattern
350
37
  3
OverhangOff
350
40
  3
Realistic
350
33
  3
Shaded
350
3E
  3
Shaded with edges
350
3D
  3
Shades of Gray
350
3A
  3
Sketchy
350
3B
  3
Thicken
350
36
  3
Wireframe
350
30
  3
X-Ray
350
3C
  0
XRECORD
  5
250
102
{ACAD_REACTORS
330
C
102
}
330
C
100
AcDbXrecord
280
     1
 90
        1
330
64
  0
DICTIONARY
  5
243
102
{ACAD_REACTORS
330
C
102
}
330
C
100
AcDbDictionary
281
     1
  3
CANNOSCALE
350
249
  3
CMLEADERSTYLE
350
245
  3
CTABLESTYLE
350
244
  3
CVIEWDETAILSTYLE
350
246
  3
CVIEWSECTIONSTYLE
350
247
  3
LAYEREVAL
350
24B
  3
LAYERNOTIFY
350
24C
  3
LIGHTINGUNITS
350
24A
  3
MSLTSCALE
350
248
  0
XRECORD
  5
240
102
{ACAD_REACTORS
330
23F
102
}
330
23F
100
AcDbXrecord
280
     1
290
     1
  0
XRECORD
  5
242
102
{ACAD_REACTORS
330
241
102
}
330
241
100
AcDbXrecord
280
     1
290
     1
  0
ACDBDETAILVIEWSTYLE
  5
6A
102
{ACAD_REACTORS
330
69
102
}
330
69
100
AcDbModelDocViewStyle
 70
     0
  3
Imperial24
290
     0
300
Imperial24
 90
        0
100
AcDbDetailViewStyle
 70
     0
 71
     0
 90
        3
 71
     1
340
55
 62
   256
 40
0.24
340
0
 62
   256
 40
0.24
300

 40
0.36
280
     3
 71
     2
340
5C
 90
       25
 62
   256
 71
     3
340
55
 62
   256
 40
0.24
 90
        1
 40
0.75
 90
        1
300
%<\AcVar ViewType \f "%tc1">% %<\AcVar ViewDetailId>%\PSCALE %<\AcVar ViewScale \f "%sn">%
 71
     4
340
5C
 90
       25
 62
   256
340
5C
 90
       25
 62
   256
280
     0
  0
LAYOUT
  5
6E
102
{ACAD_REACTORS
330
61
102
}
330
61
100
AcDbPlotSettings
  1

  2
Canon iR-ADV C3525/3530 PS3
  4

  6

 40
0.0
 41
0.0
 42
0.0
 43
0.0
 44
0.0
 45
0.0
 46
0.0
 47
0.0
 48
0.0
 49
0.0
140
0.0
141
0.0
142
1.0
143
1.0
 70
   688
 72
     0
 73
     0
 74
     5
  7

 75
    16
147
1.0
 76
     0
 77
     2
 78
   300
148
0.0
149
0.0
100
AcDbLayout
  1
Layout1
 70
     1
 71
     1
 10
0.0
 20
0.0
 11
12.0
 21
9.0
 12
0.0
 22
0.0
 32
0.0
 14
1.000000000000000E+20
 24
1.000000000000000E+20
 34
1.000000000000000E+20
 15
-1.000000000000000E+20
 25
-1.000000000000000E+20
 35
-1.000000000000000E+20
146
0.0
 13
0.0
 23
0.0
 33
0.0
 16
1.0
 26
0.0
 36
0.0
 17
0.0
 27
1.0
 37
0.0
 76
     0
330
6B
  0
LAYOUT
  5
72
102
{ACAD_REACTORS
330
61
102
}
330
61
100
AcDbPlotSettings
  1

  2
Canon iR-ADV C3525/3530 PS3
  4

  6

 40
0.0
 41
0.0
 42
0.0
 43
0.0
 44
0.0
 45
0.0
 46
0.0
 47
0.0
 48
0.0
 49
0.0
140
0.0
141
0.0
142
1.0
143
1.0
 70
  1712
 72
     0
 73
     0
 74
     0
  7

 75
     0
147
1.0
 76
     0
 77
     2
 78
   300
148
0.0
149
0.0
100
AcDbLayout
  1
Model
 70
     1
 71
     0
 10
0.0
 20
0.0
 11
12.0
 21
9.0
 12
0.0
 22
0.0
 32
0.0
 14
0.0
 24
0.0
 34
0.0
 15
0.0
 25
0.0
 35
0.0
146
0.0
 13
0.0
 23
0.0
 33
0.0
 16
1.0
 26
0.0
 36
0.0
 17
0.0
 27
1.0
 37
0.0
 76
     0
330
6F
331
76
  0
MATERIAL
  5
19
102
{ACAD_XDICTIONARY
360
1A
102
}
102
{ACAD_REACTORS
330
10
102
}
330
10
100
AcDbMaterial
  1
ByBlock
 72
     0
 43
0.0208333333333333
 43
0.0
 43
0.0
 43
0.0
 43
0.0
 43
0.0208333333333333
 43
0.0
 43
0.0
 43
0.0
 43
0.0
 43
1.0
 43
0.0
 43
0.0
 43
0.0
 43
0.0
 43
1.0
 77
     0
 47
0.0208333333333333
 47
0.0
 47
0.0
 47
0.0
 47
0.0
 47
0.0208333333333333
 47
0.0
 47
0.0
 47
0.0
 47
0.0
 47
1.0
 47
0.0
 47
0.0
 47
0.0
 47
0.0
 47
1.0
171
     0
 49
0.0208333333333333
 49
0.0
 49
0.0
 49
0.0
 49
0.0
 49
0.0208333333333333
 49
0.0
 49
0.0
 49
0.0
 49
0.0
 49
1.0
 49
0.0
 49
0.0
 49
0.0
 49
0.0
 49
1.0
175
     0
142
0.0208333333333333
142
0.0
142
0.0
142
0.0
142
0.0
142
0.0208333333333333
142
0.0
142
0.0
142
0.0
142
0.0
142
1.0
142
0.0
142
0.0
142
0.0
142
0.0
142
1.0
179
     0
144
0.0208333333333333
144
0.0
144
0.0
144
0.0
144
0.0
144
0.0208333333333333
144
0.0
144
0.0
144
0.0
144
0.0
144
1.0
144
0.0
144
0.0
144
0.0
144
0.0
144
1.0
147
0.0208333333333333
147
0.0
147
0.0
147
0.0
147
0.0
147
0.0208333333333333
147
0.0
147
0.0
147
0.0
147
0.0
147
1.0
147
0.0
147
0.0
147
0.0
147
0.0
147
1.0
  0
MATERIAL
  5
11
102
{ACAD_XDICTIONARY
360
12
102
}
102
{ACAD_REACTORS
330
10
102
}
330
10
100
AcDbMaterial
  1
ByLayer
 72
     0
 43
0.0208333333333333
 43
0.0
 43
0.0
 43
0.0
 43
0.0
 43
0.0208333333333333
 43
0.0
 43
0.0
 43
0.0
 43
0.0
 43
1.0
 43
0.0
 43
0.0
 43
0.0
 43
0.0
 43
1.0
 77
     0
 47
0.0208333333333333
 47
0.0
 47
0.0
 47
0.0
 47
0.0
 47
0.0208333333333333
 47
0.0
 47
0.0
 47
0.0
 47
0.0
 47
1.0
 47
0.0
 47
0.0
 47
0.0
 47
0.0
 47
1.0
171
     0
 49
0.0208333333333333
 49
0.0
 49
0.0
 49
0.0
 49
0.0
 49
0.0208333333333333
 49
0.0
 49
0.0
 49
0.0
 49
0.0
 49
1.0
 49
0.0
 49
0.0
 49
0.0
 49
0.0
 49
1.0
175
     0
142
0.0208333333333333
142
0.0
142
0.0
142
0.0
142
0.0
142
0.0208333333333333
142
0.0
142
0.0
142
0.0
142
0.0
142
1.0
142
0.0
142
0.0
142
0.0
142
0.0
142
1.0
179
     0
144
0.0208333333333333
144
0.0
144
0.0
144
0.0
144
0.0
144
0.0208333333333333
144
0.0
144
0.0
144
0.0
144
0.0
144
1.0
144
0.0
144
0.0
144
0.0
144
0.0
144
1.0
147
0.0208333333333333
147
0.0
147
0.0
147
0.0
147
0.0
147
0.0208333333333333
147
0.0
147
0.0
147
0.0
147
0.0
147
1.0
147
0.0
147
0.0
147
0.0
147
0.0
147
1.0
  0
MATERIAL
  5
21
102
{ACAD_XDICTIONARY
360
22
102
}
102
{ACAD_REACTORS
330
10
102
}
330
10
100
AcDbMaterial
  1
Global
 72
     0
 43
0.0208333333333333
 43
0.0
 43
0.0
 43
0.0
 43
0.0
 43
0.0208333333333333
 43
0.0
 43
0.0
 43
0.0
 43
0.0
 43
1.0
 43
0.0
 43
0.0
 43
0.0
 43
0.0
 43
1.0
 77
     0
 47
0.0208333333333333
 47
0.0
 47
0.0
 47
0.0
 47
0.0
 47
0.0208333333333333
 47
0.0
 47
0.0
 47
0.0
 47
0.0
 47
1.0
 47
0.0
 47
0.0
 47
0.0
 47
0.0
 47
1.0
171
     0
 49
0.0208333333333333
 49
0.0
 49
0.0
 49
0.0
 49
0.0
 49
0.0208333333333333
 49
0.0
 49
0.0
 49
0.0
 49
0.0
 49
1.0
 49
0.0
 49
0.0
 49
0.0
 49
0.0
 49
1.0
175
     0
142
0.0208333333333333
142
0.0
142
0.0
142
0.0
142
0.0
142
0.0208333333333333
142
0.0
142
0.0
142
0.0
142
0.0
142
1.0
142
0.0
142
0.0
142
0.0
142
0.0
142
1.0
179
     0
144
0.0208333333333333
144
0.0
144
0.0
144
0.0
144
0.0
144
0.0208333333333333
144
0.0
144
0.0
144
0.0
144
0.0
144
1.0
144
0.0
144
0.0
144
0.0
144
0.0
144
1.0
147
0.0208333333333333
147
0.0
147
0.0
147
0.0
147
0.0
147
0.0208333333333333
147
0.0
147
0.0
147
0.0
147
0.0
147
1.0
147
0.0
147
0.0
147
0.0
147
0.0
147
1.0
  0
MLEADERSTYLE
  5
66
102
{ACAD_REACTORS
330
65
102
}
330
65
100
AcDbMLeaderStyle
179
     2
170
     2
171
     1
172
     0
 90
        2
 40
0.0
 41
0.0
173
     1
 91
-1056964608
340
5A
 92
       -2
290
     1
 42
0.09
291
     1
 43
0.36
  3
Standard
 44
0.18
300

342
55
174
     1
178
     6
175
     1
176
     0
 93
-1056964608
 45
0.18
292
     0
297
     0
 46
0.18
 94
-1056964608
 47
1.0
 49
1.0
140
1.0
293
     1
141
0.0
294
     1
177
     0
142
1.0
295
     0
296
     0
143
0.125
271
     0
272
     9
273
     9
298
     0
  0
MLINESTYLE
  5
5F
102
{ACAD_REACTORS
330
5E
102
}
330
5E
100
AcDbMlineStyle
  2
STANDARD
 70
     0
  3

 62
   256
 51
90.0
 52
90.0
 71
     2
 49
0.5
 62
   256
  6
BYLAYER
 49
-0.5
 62
   256
  6
BYLAYER
  0
ACDBPLACEHOLDER
  5
F
102
{ACAD_REACTORS
330
E
102
}
330
E
  0
SCALE
  5
43
102
{ACAD_REACTORS
330
42
102
}
330
42
100
AcDbScale
 70
     0
300
1:1
140
1.0
141
1.0
290
     1
  0
SCALE
  5
44
102
{ACAD_REACTORS
330
42
102
}
330
42
100
AcDbScale
 70
     0
300
1/128" = 1'-0"
140
0.0078125
141
12.0
290
     0
  0
SCALE
  5
45
102
{ACAD_REACTORS
330
42
102
}
330
42
100
AcDbScale
 70
     0
300
1/64" = 1'-0"
140
0.015625
141
12.0
290
     0
  0
SCALE
  5
46
102
{ACAD_REACTORS
330
42
102
}
330
42
100
AcDbScale
 70
     0
300
1/32" = 1'-0"
140
0.03125
141
12.0
290
     0
  0
SCALE
  5
47
102
{ACAD_REACTORS
330
42
102
}
330
42
100
AcDbScale
 70
     0
300
1/16" = 1'-0"
140
0.0625
141
12.0
290
     0
  0
SCALE
  5
48
102
{ACAD_REACTORS
330
42
102
}
330
42
100
AcDbScale
 70
     0
300
3/32" = 1'-0"
140
0.09375
141
12.0
290
     0
  0
SCALE
  5
49
102
{ACAD_REACTORS
330
42
102
}
330
42
100
AcDbScale
 70
     0
300
1/8" = 1'-0"
140
0.125
141
12.0
290
     0
  0
SCALE
  5
4A
102
{ACAD_REACTORS
330
42
102
}
330
42
100
AcDbScale
 70
     0
300
3/16" = 1'-0"
140
0.1875
141
12.0
290
     0
  0
SCALE
  5
4B
102
{ACAD_REACTORS
330
42
102
}
330
42
100
AcDbScale
 70
     0
300
1/4" = 1'-0"
140
0.25
141
12.0
290
     0
  0
SCALE
  5
4C
102
{ACAD_REACTORS
330
42
102
}
330
42
100
AcDbScale
 70
     0
300
3/8" = 1'-0"
140
0.375
141
12.0
290
     0
  0
SCALE
  5
4D
102
{ACAD_REACTORS
330
42
102
}
330
42
100
AcDbScale
 70
     0
300
1/2" = 1'-0"
140
0.5
141
12.0
290
     0
  0
SCALE
  5
4E
102
{ACAD_REACTORS
330
42
102
}
330
42
100
AcDbScale
 70
     0
300
3/4" = 1'-0"
140
0.75
141
12.0
290
     0
  0
SCALE
  5
4F
102
{ACAD_REACTORS
330
42
102
}
330
42
100
AcDbScale
 70
     0
300
1" = 1'-0"
140
1.0
141
12.0
290
     0
  0
SCALE
  5
50
102
{ACAD_REACTORS
330
42
102
}
330
42
100
AcDbScale
 70
     0
300
1-1/2" = 1'-0"
140
1.5
141
12.0
290
     0
  0
SCALE
  5
51
102
{ACAD_REACTORS
330
42
102
}
330
42
100
AcDbScale
 70
     0
300
3" = 1'-0"
140
3.0
141
12.0
290
     0
  0
SCALE
  5
52
102
{ACAD_REACTORS
330
42
102
}
330
42
100
AcDbScale
 70
     0
300
6" = 1'-0"
140
6.0
141
12.0
290
     0
  0
SCALE
  5
53
102
{ACAD_REACTORS
330
42
102
}
330
42
100
AcDbScale
 70
     0
300
1'-0" = 1'-0"
140
12.0
141
12.0
290
     0
  0
ACDBSECTIONVIEWSTYLE
  5
68
102
{ACAD_REACTORS
330
67
102
}
330
67
100
AcDbModelDocViewStyle
 70
     0
  3
Imperial24
290
     0
300
Imperial24
 90
        0
100
AcDbSectionViewStyle
 70
     0
 71
     0
 90
       78
 71
     1
340
55
 62
   256
 40
0.24
340
0
340
0
 62
   256
 40
0.24
300
I, O, Q, S, X, Z
 40
0.48
 90
        3
 40
0.18
 90
        1
 71
     2
340
5C
 90
       25
 62
   256
340
5C
 90
       50
 62
   256
 40
0.24
 40
0.0
 40
0.24
 71
     3
340
55
 62
   256
 40
0.24
 90
        1
 40
0.75
 90
        1
300
%<\AcVar ViewType \f "%tc1">% %<\AcVar ViewSectionStartId>%-%<\AcVar ViewSectionEndId>%\PSCALE %<\AcVar ViewScale \f "%sn">%
 71
     4
 62
   256
 62
   257
300
ANSI31
 40
1.0
 90
        0
290
     0
290
     0
 90
        6
 40
0.0
 40
1.570796326794896
 40
0.2617993877991494
 40
1.308996938995747
 40
-0.2617993877991494
 40
1.832595714594046
  0
TABLESTYLE
  5
64
102
{ACAD_XDICTIONARY
360
24E
102
}
102
{ACAD_REACTORS
330
63
102
}
330
63
100
AcDbTableStyle
280
     0
  3
Standard
 70
     0
 71
     0
 40
0.06
 41
0.06
280
     0
281
     0
  7
Standard
140
0.18
170
     2
 62
     0
 63
     7
283
     0
 90
      512
 91
        0
  1

274
    -2
284
     1
 64
     0
275
    -2
285
     1
 65
     0
276
    -2
286
     1
 66
     0
277
    -2
287
     1
 67
     0
278
    -2
288
     1
 68
     0
279
    -2
289
     1
 69
     0
  7
Standard
140
0.25
170
     5
 62
     0
 63
     7
283
     0
 90
      512
 91
        0
  1

274
    -2
284
     1
 64
     0
275
    -2
285
     1
 65
     0
276
    -2
286
     1
 66
     0
277
    -2
287
     1
 67
     0
278
    -2
288
     1
 68
     0
279
    -2
289
     1
 69
     0
  7
Standard
140
0.18
170
     5
 62
     0
 63
     7
283
     0
 90
      512
 91
        0
  1

274
    -2
284
     1
 64
     0
275
    -2
285
     1
 65
     0
276
    -2
286
     1
 66
     0
277
    -2
287
     1
 67
     0
278
    -2
288
     1
 68
     0
279
    -2
289
     1
 69
     0
  0
VISUALSTYLE
  5
2F
102
{ACAD_REACTORS
330
29
102
}
330
29
100
AcDbVisualStyle
  2
2dWireframe
 70
     4
177
     3
291
     0
 70
    58
 90
        0
176
     1
 90
        2
176
     1
 90
        0
176
     1
 90
        0
176
     1
 40
0.6
176
     1
 40
30.0
176
     1
 62
     7
420
 16777215
176
     1
 90
        1
176
     1
 90
        4
176
     1
 62
     7
176
     1
 62
   257
176
     1
 90
        1
176
     1
 90
        1
176
     1
 40
1.0
176
     1
 90
        0
176
     1
 62
   257
176
     1
 40
1.0
176
     1
 90
        1
176
     1
 90
        6
176
     1
 90
        2
176
     1
 62
     7
176
     1
 90
        5
176
     1
 90
        0
176
     1
 90
        0
176
     1
290
     0
176
     1
 90
        1
176
     1
 40
0.0
176
     1
 90
        0
176
     1
290
     1
176
     1
290
     1
176
     1
290
     0
176
     1
290
     0
176
     1
290
     0
176
     1
290
     0
176
     1
290
     0
176
     1
290
     0
176
     1
290
     0
176
     1
 90
       50
176
     1
 40
0.0
176
     1
 40
1.0
176
     1
 90
        0
176
     1
 62
    18
420
        0
176
     1
 90
       50
176
     1
 90
        3
176
     1
 62
     5
420
      255
176
     1
290
     0
176
     1
 90
       50
176
     1
 90
       50
176
     1
 90
       50
176
     1
290
     0
176
     1
 90
       50
176
     1
 62
   256
176
     0
 40
1.0
176
     0
 90
        2
176
     1
  1
strokes_ogs.tif
176
     1
290
     0
176
     1
 40
1.0
176
     1
 40
1.0
176
     1
  0
VISUALSTYLE
  5
2E
102
{ACAD_REACTORS
330
29
102
}
330
29
100
AcDbVisualStyle
  2
Basic
 70
     7
177
     3
291
     1
 70
    58
 90
        1
176
     1
 90
        0
176
     1
 90
        1
176
     1
 90
        0
176
     1
 40
0.6
176
     1
 40
30.0
176
     1
 62
     7
420
 16777215
176
     1
 90
        0
176
     1
 90
        4
176
     1
 62
     7
176
     1
 62
   257
176
     1
 90
        1
176
     1
 90
        1
176
     1
 40
1.0
176
     1
 90
        8
176
     1
 62
     7
176
     1
 40
1.0
176
     1
 90
        1
176
     1
 90
        6
176
     1
 90
        2
176
     1
 62
     7
176
     1
 90
        5
176
     1
 90
        0
176
     1
 90
        0
176
     1
290
     0
176
     1
 90
        1
176
     1
 40
0.0
176
     1
 90
        0
176
     1
290
     0
176
     1
290
     1
176
     1
290
     1
176
     1
290
     0
176
     1
290
     0
176
     1
290
     0
176
     1
290
     0
176
     1
290
     0
176
     1
290
     0
176
     1
 90
       50
176
     1
 40
0.0
176
     1
 40
1.0
176
     1
 90
        0
176
     1
 62
    18
420
        0
176
     1
 90
       50
176
     1
 90
        3
176
     1
 62
     5
420
      255
176
     1
290
     0
176
     1
 90
       50
176
     1
 90
       50
176
     1
 90
       50
176
     1
290
     0
176
     1
 90
       50
176
     1
 62
   256
176
     0
 40
1.0
176
     0
 90
        2
176
     1
  1
strokes_ogs.tif
176
     1
290
     0
176
     1
 40
1.0
176
     1
 40
1.0
176
     1
  0
VISUALSTYLE
  5
35
102
{ACAD_REACTORS
330
29
102
}
330
29
100
AcDbVisualStyle
  2
Brighten
 70
    12
177
     3
291
     1
 70
    58
 90
        2
176
     1
 90
        2
176
     1
 90
        0
176
     1
 90
        0
176
     1
 40
0.6
176
     1
 40
30.0
176
     1
 62
     7
420
 16777215
176
     1
 90
        1
176
     1
 90
        4
176
     1
 62
     7
176
     1
 62
   257
176
     1
 90
        1
176
     1
 90
        1
176
     1
 40
1.0
176
     1
 90
        8
176
     1
 62
     7
176
     1
 40
1.0
176
     1
 90
        1
176
     1
 90
        6
176
     1
 90
        2
176
     1
 62
     7
176
     1
 90
        5
176
     1
 90
        0
176
     1
 90
        0
176
     1
290
     0
176
     1
 90
        1
176
     1
 40
50.0
176
     1
 90
        0
176
     1
290
     0
176
     1
290
     1
176
     1
290
     1
176
     1
290
     0
176
     1
290
     0
176
     1
290
     0
176
     1
290
     0
176
     1
290
     0
176
     1
290
     0
176
     1
 90
       50
176
     1
 40
0.0
176
     1
 40
1.0
176
     1
 90
        0
176
     1
 62
    18
420
        0
176
     1
 90
       50
176
     1
 90
        3
176
     1
 62
     5
420
      255
176
     1
290
     0
176
     1
 90
       50
176
     1
 90
       50
176
     1
 90
       50
176
     1
290
     0
176
     1
 90
       50
176
     1
 62
   256
176
     0
 40
1.0
176
     0
 90
        2
176
     1
  1
strokes_ogs.tif
176
     1
290
     0
176
     1
 40
1.0
176
     1
 40
1.0
176
     1
  0
VISUALSTYLE
  5
39
102
{ACAD_REACTORS
330
29
102
}
330
29
100
AcDbVisualStyle
  2
ColorChange
 70
    16
177
     3
291
     1
 70
    58
 90
        2
176
     1
 90
        2
176
     1
 90
        3
176
     1
 90
        0
176
     1
 40
0.6
176
     1
 40
30.0
176
     1
 62
     8
420
  8421504
176
     1
 90
        1
176
     1
 90
        4
176
     1
 62
     7
176
     1
 62
   257
176
     1
 90
        1
176
     1
 90
        1
176
     1
 40
1.0
176
     1
 90
        8
176
     1
 62
     8
420
  8421504
176
     1
 40
1.0
176
     1
 90
        1
176
     1
 90
        6
176
     1
 90
        2
176
     1
 62
     7
176
     1
 90
        5
176
     1
 90
        0
176
     1
 90
        0
176
     1
290
     0
176
     1
 90
        1
176
     1
 40
0.0
176
     1
 90
        0
176
     1
290
     0
176
     1
290
     1
176
     1
290
     1
176
     1
290
     0
176
     1
290
     0
176
     1
290
     0
176
     1
290
     0
176
     1
290
     0
176
     1
290
     0
176
     1
 90
       50
176
     1
 40
0.0
176
     1
 40
1.0
176
     1
 90
        0
176
     1
 62
    18
420
        0
176
     1
 90
       50
176
     1
 90
        3
176
     1
 62
     5
420
      255
176
     1
290
     0
176
     1
 90
       50
176
     1
 90
       50
176
     1
 90
       50
176
     1
290
     0
176
     1
 90
       50
176
     1
 62
   256
176
     0
 40
1.0
176
     0
 90
        2
176
     1
  1
strokes_ogs.tif
176
     1
290
     0
176
     1
 40
1.0
176
     1
 40
1.0
176
     1
  0
VISUALSTYLE
  5
32
102
{ACAD_REACTORS
330
29
102
}
330
29
100
AcDbVisualStyle
  2
Conceptual
 70
     9
177
     3
291
     0
 70
    58
 90
        3
176
     1
 90
        2
176
     1
 90
        0
176
     1
 90
        0
176
     1
 40
0.6
176
     1
 40
30.0
176
     1
 62
     7
420
 16777215
176
     1
 90
        2
176
     1
 90
        2
176
     1
 62
     7
176
     1
 62
   257
176
     1
 90
        1
176
     1
 90
        1
176
     1
 40
179.0
176
     1
 90
        8
176
     1
 62
     7
176
     1
 40
1.0
176
     1
 90
        1
176
     1
 90
        6
176
     1
 90
        2
176
     1
 62
     7
176
     1
 90
        3
176
     1
 90
        0
176
     1
 90
        0
176
     1
290
     0
176
     1
 90
        1
176
     1
 40
0.0
176
     1
 90
        0
176
     1
290
     0
176
     1
290
     1
176
     1
290
     1
176
     1
290
     0
176
     1
290
     0
176
     1
290
     0
176
     1
290
     0
176
     1
290
     0
176
     1
290
     0
176
     1
 90
       50
176
     1
 40
0.0
176
     1
 40
1.0
176
     1
 90
        0
176
     1
 62
    18
420
        0
176
     1
 90
       50
176
     1
 90
        3
176
     1
 62
     5
420
      255
176
     1
290
     0
176
     1
 90
       50
176
     1
 90
       50
176
     1
 90
       50
176
     1
290
     0
176
     1
 90
       50
176
     1
 62
   256
176
     0
 40
1.0
176
     0
 90
        2
176
     1
  1
strokes_ogs.tif
176
     1
290
     0
176
     1
 40
1.0
176
     1
 40
1.0
176
     1
  0
VISUALSTYLE
  5
34
102
{ACAD_REACTORS
330
29
102
}
330
29
100
AcDbVisualStyle
  2
Dim
 70
    11
177
     3
291
     1
 70
    58
 90
        2
176
     1
 90
        2
176
     1
 90
        0
176
     1
 90
        0
176
     1
 40
0.6
176
     1
 40
30.0
176
     1
 62
     7
420
 16777215
176
     1
 90
        1
176
     1
 90
        4
176
     1
 62
     7
176
     1
 62
   257
176
     1
 90
        1
176
     1
 90
        1
176
     1
 40
1.0
176
     1
 90
        8
176
     1
 62
     7
176
     1
 40
1.0
176
     1
 90
        1
176
     1
 90
        6
176
     1
 90
        2
176
     1
 62
     7
176
     1
 90
        5
176
     1
 90
        0
176
     1
 90
        0
176
     1
290
     0
176
     1
 90
        1
176
     1
 40
-50.0
176
     1
 90
        0
176
     1
290
     0
176
     1
290
     1
176
     1
290
     1
176
     1
290
     0
176
     1
290
     0
176
     1
290
     0
176
     1
290
     0
176
     1
290
     0
176
     1
290
     0
176
     1
 90
       50
176
     1
 40
0.0
176
     1
 40
1.0
176
     1
 90
        0
176
     1
 62
    18
420
        0
176
     1
 90
       50
176
     1
 90
        3
176
     1
 62
     5
420
      255
176
     1
290
     0
176
     1
 90
       50
176
     1
 90
       50
176
     1
 90
       50
176
     1
290
     0
176
     1
 90
       50
176
     1
 62
   256
176
     0
 40
1.0
176
     0
 90
        2
176
     1
  1
strokes_ogs.tif
176
     1
290
     0
176
     1
 40
1.0
176
     1
 40
1.0
176
     1
  0
VISUALSTYLE
  5
41
102
{ACAD_REACTORS
330
29
102
}
330
29
100
AcDbVisualStyle
  2
EdgeColorOff
 70
    22
177
     3
291
     1
 70
    58
 90
        2
176
     0
 90
        2
176
     0
 90
        0
176
     0
 90
        0
176
     0
 40
0.6
176
     0
 40
30.0
176
     0
 62
     7
420
 16777215
176
     0
 90
        1
176
     0
 90
        4
176
     0
 62
     7
176
     0
 62
   257
176
     0
 90
        1
176
     0
 90
        1
176
     0
 40
1.0
176
     0
 90
        8
176
     2
 62
     7
176
     0
 40
1.0
176
     0
 90
        1
176
     0
 90
        6
176
     0
 90
        2
176
     0
 62
     7
176
     0
 90
        5
176
     0
 90
        0
176
     0
 90
        0
176
     0
290
     0
176
     0
 90
        1
176
     0
 40
0.0
176
     0
 90
        0
176
     0
290
     0
176
     1
290
     1
176
     1
290
     1
176
     1
290
     0
176
     1
290
     0
176
     1
290
     0
176
     1
290
     0
176
     1
290
     0
176
     1
290
     0
176
     1
 90
       50
176
     0
 40
0.0
176
     0
 40
1.0
176
     0
 90
        0
176
     0
 62
    18
420
        0
176
     0
 90
       50
176
     0
 90
        3
176
     0
 62
     5
420
      255
176
     0
290
     0
176
     1
 90
       50
176
     0
 90
       50
176
     0
 90
       50
176
     0
290
     0
176
     1
 90
       50
176
     0
 62
   256
176
     0
 40
1.0
176
     0
 90
        2
176
     0
  1
strokes_ogs.tif
176
     0
290
     0
176
     1
 40
1.0
176
     0
 40
1.0
176
     0
  0
VISUALSTYLE
  5
38
102
{ACAD_REACTORS
330
29
102
}
330
29
100
AcDbVisualStyle
  2
Facepattern
 70
    15
177
     3
291
     1
 70
    58
 90
        2
176
     1
 90
        2
176
     1
 90
        0
176
     1
 90
        0
176
     1
 40
0.6
176
     1
 40
30.0
176
     1
 62
     7
420
 16777215
176
     1
 90
        1
176
     1
 90
        4
176
     1
 62
     7
176
     1
 62
   257
176
     1
 90
        1
176
     1
 90
        1
176
     1
 40
1.0
176
     1
 90
        8
176
     1
 62
     7
176
     1
 40
1.0
176
     1
 90
        1
176
     1
 90
        6
176
     1
 90
        2
176
     1
 62
     7
176
     1
 90
        5
176
     1
 90
        0
176
     1
 90
        0
176
     1
290
     0
176
     1
 90
        1
176
     1
 40
0.0
176
     1
 90
        0
176
     1
290
     0
176
     1
290
     1
176
     1
290
     1
176
     1
290
     0
176
     1
290
     0
176
     1
290
     0
176
     1
290
     0
176
     1
290
     0
176
     1
290
     0
176
     1
 90
       50
176
     1
 40
0.0
176
     1
 40
1.0
176
     1
 90
        0
176
     1
 62
    18
420
        0
176
     1
 90
       50
176
     1
 90
        3
176
     1
 62
     5
420
      255
176
     1
290
     0
176
     1
 90
       50
176
     1
 90
       50
176
     1
 90
       50
176
     1
290
     0
176
     1
 90
       50
176
     1
 62
   256
176
     0
 40
1.0
176
     0
 90
        2
176
     1
  1
strokes_ogs.tif
176
     1
290
     0
176
     1
 40
1.0
176
     1
 40
1.0
176
     1
  0
VISUALSTYLE
  5
2A
102
{ACAD_REACTORS
330
29
102
}
330
29
100
AcDbVisualStyle
  2
Flat
 70
     0
177
     3
291
     1
 70
    58
 90
        2
176
     1
 90
        1
176
     1
 90
        1
176
     1
 90
        2
176
     1
 40
0.6
176
     1
 40
30.0
176
     1
 62
     7
420
 16777215
176
     1
 90
        0
176
     1
 90
        0
176
     1
 62
     7
176
     1
 62
   257
176
     1
 90
        1
176
     1
 90
        1
176
     1
 40
1.0
176
     1
 90
        8
176
     1
 62
     7
176
     1
 40
1.0
176
     1
 90
        1
176
     1
 90
        6
176
     1
 90
        2
176
     1
 62
     7
176
     1
 90
        5
176
     1
 90
        0
176
     1
 90
        0
176
     1
290
     0
176
     1
 90
       13
176
     1
 40
0.0
176
     1
 90
        0
176
     1
290
     0
176
     1
290
     1
176
     1
290
     1
176
     1
290
     0
176
     1
290
     0
176
     1
290
     0
176
     1
290
     0
176
     1
290
     0
176
     1
290
     0
176
     1
 90
       50
176
     1
 40
0.0
176
     1
 40
1.0
176
     1
 90
        0
176
     1
 62
    18
420
        0
176
     1
 90
       50
176
     1
 90
        3
176
     1
 62
     5
420
      255
176
     1
290
     0
176
     1
 90
       50
176
     1
 90
       50
176
     1
 90
       50
176
     1
290
     0
176
     1
 90
       50
176
     1
 62
   256
176
     0
 40
1.0
176
     0
 90
        2
176
     1
  1
strokes_ogs.tif
176
     1
290
     0
176
     1
 40
1.0
176
     1
 40
1.0
176
     1
  0
VISUALSTYLE
  5
2B
102
{ACAD_REACTORS
330
29
102
}
330
29
100
AcDbVisualStyle
  2
FlatWithEdges
 70
     1
177
     3
291
     1
 70
    58
 90
        2
176
     1
 90
        1
176
     1
 90
        1
176
     1
 90
        2
176
     1
 40
0.6
176
     1
 40
30.0
176
     1
 62
     7
420
 16777215
176
     1
 90
        1
176
     1
 90
        0
176
     1
 62
     7
176
     1
 62
   257
176
     1
 90
        1
176
     1
 90
        1
176
     1
 40
1.0
176
     1
 90
        0
176
     1
 62
   257
176
     1
 40
1.0
176
     1
 90
        1
176
     1
 90
        6
176
     1
 90
        2
176
     1
 62
     7
176
     1
 90
        5
176
     1
 90
        0
176
     1
 90
        0
176
     1
290
     0
176
     1
 90
       13
176
     1
 40
0.0
176
     1
 90
        0
176
     1
290
     0
176
     1
290
     1
176
     1
290
     1
176
     1
290
     0
176
     1
290
     0
176
     1
290
     0
176
     1
290
     0
176
     1
290
     0
176
     1
290
     0
176
     1
 90
       50
176
     1
 40
0.0
176
     1
 40
1.0
176
     1
 90
        0
176
     1
 62
    18
420
        0
176
     1
 90
       50
176
     1
 90
        3
176
     1
 62
     5
420
      255
176
     1
290
     0
176
     1
 90
       50
176
     1
 90
       50
176
     1
 90
       50
176
     1
290
     0
176
     1
 90
       50
176
     1
 62
   256
176
     0
 40
1.0
176
     0
 90
        2
176
     1
  1
strokes_ogs.tif
176
     1
290
     0
176
     1
 40
1.0
176
     1
 40
1.0
176
     1
  0
VISUALSTYLE
  5
2C
102
{ACAD_REACTORS
330
29
102
}
330
29
100
AcDbVisualStyle
  2
Gouraud
 70
     2
177
     3
291
     1
 70
    58
 90
        2
176
     1
 90
        2
176
     1
 90
        1
176
     1
 90
        2
176
     1
 40
0.6
176
     1
 40
30.0
176
     1
 62
     7
420
 16777215
176
     1
 90
        0
176
     1
 90
        0
176
     1
 62
     7
176
     1
 62
   257
176
     1
 90
        1
176
     1
 90
        1
176
     1
 40
1.0
176
     1
 90
        0
176
     1
 62
     7
176
     1
 40
1.0
176
     1
 90
        1
176
     1
 90
        6
176
     1
 90
        2
176
     1
 62
     7
176
     1
 90
        5
176
     1
 90
        0
176
     1
 90
        0
176
     1
290
     0
176
     1
 90
       13
176
     1
 40
0.0
176
     1
 90
        0
176
     1
290
     0
176
     1
290
     1
176
     1
290
     1
176
     1
290
     0
176
     1
290
     0
176
     1
290
     0
176
     1
290
     0
176
     1
290
     0
176
     1
290
     0
176
     1
 90
       50
176
     1
 40
0.0
176
     1
 40
1.0
176
     1
 90
        0
176
     1
 62
    18
420
        0
176
     1
 90
       50
176
     1
 90
        3
176
     1
 62
     5
420
      255
176
     1
290
     0
176
     1
 90
       50
176
     1
 90
       50
176
     1
 90
       50
176
     1
290
     0
176
     1
 90
       50
176
     1
 62
   256
176
     0
 40
1.0
176
     0
 90
        2
176
     1
  1
strokes_ogs.tif
176
     1
290
     0
176
     1
 40
1.0
176
     1
 40
1.0
176
     1
  0
VISUALSTYLE
  5
2D
102
{ACAD_REACTORS
330
29
102
}
330
29
100
AcDbVisualStyle
  2
GouraudWithEdges
 70
     3
177
     3
291
     1
 70
    58
 90
        2
176
     1
 90
        2
176
     1
 90
        1
176
     1
 90
        2
176
     1
 40
0.6
176
     1
 40
30.0
176
     1
 62
     7
420
 16777215
176
     1
 90
        1
176
     1
 90
        0
176
     1
 62
     7
176
     1
 62
   257
176
     1
 90
        1
176
     1
 90
        1
176
     1
 40
1.0
176
     1
 90
        0
176
     1
 62
   257
176
     1
 40
1.0
176
     1
 90
        1
176
     1
 90
        6
176
     1
 90
        2
176
     1
 62
     7
176
     1
 90
        5
176
     1
 90
        0
176
     1
 90
        0
176
     1
290
     0
176
     1
 90
       13
176
     1
 40
0.0
176
     1
 90
        0
176
     1
290
     0
176
     1
290
     1
176
     1
290
     1
176
     1
290
     0
176
     1
290
     0
176
     1
290
     0
176
     1
290
     0
176
     1
290
     0
176
     1
290
     0
176
     1
 90
       50
176
     1
 40
0.0
176
     1
 40
1.0
176
     1
 90
        0
176
     1
 62
    18
420
        0
176
     1
 90
       50
176
     1
 90
        3
176
     1
 62
     5
420
      255
176
     1
290
     0
176
     1
 90
       50
176
     1
 90
       50
176
     1
 90
       50
176
     1
290
     0
176
     1
 90
       50
176
     1
 62
   256
176
     0
 40
1.0
176
     0
 90
        2
176
     1
  1
strokes_ogs.tif
176
     1
290
     0
176
     1
 40
1.0
176
     1
 40
1.0
176
     1
  0
VISUALSTYLE
  5
31
102
{ACAD_REACTORS
330
29
102
}
330
29
100
AcDbVisualStyle
  2
Hidden
 70
     6
177
     3
291
     0
 70
    58
 90
        1
176
     1
 90
        2
176
     1
 90
        2
176
     1
 90
        0
176
     1
 40
0.6
176
     1
 40
30.0
176
     1
 62
     7
420
 16777215
176
     1
 90
        2
176
     1
 90
        2
176
     1
 62
     7
176
     1
 62
   257
176
     1
 90
        2
176
     1
 90
        1
176
     1
 40
40.0
176
     1
 90
        0
176
     1
 62
   257
176
     1
 40
1.0
176
     1
 90
        1
176
     1
 90
        6
176
     1
 90
        2
176
     1
 62
     7
176
     1
 90
        3
176
     1
 90
        0
176
     1
 90
        0
176
     1
290
     0
176
     1
 90
        1
176
     1
 40
0.0
176
     1
 90
        0
176
     1
290
     0
176
     1
290
     1
176
     1
290
     1
176
     1
290
     0
176
     1
290
     0
176
     1
290
     0
176
     1
290
     0
176
     1
290
     0
176
     1
290
     0
176
     1
 90
       50
176
     1
 40
0.0
176
     1
 40
1.0
176
     1
 90
        0
176
     1
 62
    18
420
        0
176
     1
 90
       50
176
     1
 90
        3
176
     1
 62
     5
420
      255
176
     1
290
     0
176
     1
 90
       50
176
     1
 90
       50
176
     1
 90
       50
176
     1
290
     0
176
     1
 90
       50
176
     1
 62
   256
176
     0
 40
1.0
176
     0
 90
        2
176
     1
  1
strokes_ogs.tif
176
     1
290
     0
176
     1
 40
1.0
176
     1
 40
1.0
176
     1
  0
VISUALSTYLE
  5
3F
102
{ACAD_REACTORS
330
29
102
}
330
29
100
AcDbVisualStyle
  2
JitterOff
 70
    20
177
     3
291
     1
 70
    58
 90
        2
176
     0
 90
        2
176
     0
 90
        0
176
     0
 90
        0
176
     0
 40
0.6
176
     0
 40
30.0
176
     0
 62
     7
420
 16777215
176
     0
 90
        1
176
     0
 90
        4
176
     0
 62
     7
176
     0
 62
   257
176
     0
 90
        1
176
     0
 90
        1
176
     0
 40
1.0
176
     0
 90
       10
176
     2
 62
     7
176
     0
 40
1.0
176
     0
 90
        1
176
     0
 90
        6
176
     0
 90
        2
176
     0
 62
     7
176
     0
 90
        5
176
     0
 90
        0
176
     0
 90
        0
176
     0
290
     0
176
     0
 90
        1
176
     0
 40
0.0
176
     0
 90
        0
176
     0
290
     0
176
     1
290
     1
176
     1
290
     1
176
     1
290
     0
176
     1
290
     0
176
     1
290
     0
176
     1
290
     0
176
     1
290
     0
176
     1
290
     0
176
     1
 90
       50
176
     0
 40
0.0
176
     0
 40
1.0
176
     0
 90
        0
176
     0
 62
    18
420
        0
176
     0
 90
       50
176
     0
 90
        3
176
     0
 62
     5
420
      255
176
     0
290
     0
176
     1
 90
       50
176
     0
 90
       50
176
     0
 90
       50
176
     0
290
     0
176
     1
 90
       50
176
     0
 62
   256
176
     0
 40
1.0
176
     0
 90
        2
176
     0
  1
strokes_ogs.tif
176
     0
290
     0
176
     1
 40
1.0
176
     0
 40
1.0
176
     0
  0
VISUALSTYLE
  5
37
102
{ACAD_REACTORS
330
29
102
}
330
29
100
AcDbVisualStyle
  2
Linepattern
 70
    14
177
     3
291
     1
 70
    58
 90
        2
176
     1
 90
        2
176
     1
 90
        0
176
     1
 90
        0
176
     1
 40
0.6
176
     1
 40
30.0
176
     1
 62
     7
420
 16777215
176
     1
 90
        1
176
     1
 90
        4
176
     1
 62
     7
176
     1
 62
   257
176
     1
 90
        7
176
     1
 90
        7
176
     1
 40
1.0
176
     1
 90
        8
176
     1
 62
     7
176
     1
 40
1.0
176
     1
 90
        1
176
     1
 90
        6
176
     1
 90
        2
176
     1
 62
     7
176
     1
 90
        5
176
     1
 90
        0
176
     1
 90
        0
176
     1
290
     0
176
     1
 90
        1
176
     1
 40
0.0
176
     1
 90
        0
176
     1
290
     0
176
     1
290
     1
176
     1
290
     1
176
     1
290
     0
176
     1
290
     0
176
     1
290
     0
176
     1
290
     0
176
     1
290
     0
176
     1
290
     0
176
     1
 90
       50
176
     1
 40
0.0
176
     1
 40
1.0
176
     1
 90
        0
176
     1
 62
    18
420
        0
176
     1
 90
       50
176
     1
 90
        3
176
     1
 62
     5
420
      255
176
     1
290
     0
176
     1
 90
       50
176
     1
 90
       50
176
     1
 90
       50
176
     1
290
     0
176
     1
 90
       50
176
     1
 62
   256
176
     0
 40
1.0
176
     0
 90
        2
176
     1
  1
strokes_ogs.tif
176
     1
290
     0
176
     1
 40
1.0
176
     1
 40
1.0
176
     1
  0
VISUALSTYLE
  5
40
102
{ACAD_REACTORS
330
29
102
}
330
29
100
AcDbVisualStyle
  2
OverhangOff
 70
    21
177
     3
291
     1
 70
    58
 90
        2
176
     0
 90
        2
176
     0
 90
        0
176
     0
 90
        0
176
     0
 40
0.6
176
     0
 40
30.0
176
     0
 62
     7
420
 16777215
176
     0
 90
        1
176
     0
 90
        4
176
     0
 62
     7
176
     0
 62
   257
176
     0
 90
        1
176
     0
 90
        1
176
     0
 40
1.0
176
     0
 90
        9
176
     2
 62
     7
176
     0
 40
1.0
176
     0
 90
        1
176
     0
 90
        6
176
     0
 90
        2
176
     0
 62
     7
176
     0
 90
        5
176
     0
 90
        0
176
     0
 90
        0
176
     0
290
     0
176
     0
 90
        1
176
     0
 40
0.0
176
     0
 90
        0
176
     0
290
     0
176
     1
290
     1
176
     1
290
     1
176
     1
290
     0
176
     1
290
     0
176
     1
290
     0
176
     1
290
     0
176
     1
290
     0
176
     1
290
     0
176
     1
 90
       50
176
     0
 40
0.0
176
     0
 40
1.0
176
     0
 90
        0
176
     0
 62
    18
420
        0
176
     0
 90
       50
176
     0
 90
        3
176
     0
 62
     5
420
      255
176
     0
290
     0
176
     1
 90
       50
176
     0
 90
       50
176
     0
 90
       50
176
     0
290
     0
176
     1
 90
       50
176
     0
 62
   256
176
     0
 40
1.0
176
     0
 90
        2
176
     0
  1
strokes_ogs.tif
176
     0
290
     0
176
     1
 40
1.0
176
     0
 40
1.0
176
     0
  0
VISUALSTYLE
  5
33
102
{ACAD_REACTORS
330
29
102
}
330
29
100
AcDbVisualStyle
  2
Realistic
 70
     8
177
     3
291
     0
 70
    58
 90
        2
176
     1
 90
        3
176
     1
 90
        0
176
     1
 90
        2
176
     1
 40
0.6
176
     1
 40
30.0
176
     1
 62
     7
420
 16777215
176
     1
 90
        0
176
     1
 90
        0
176
     1
 62
     7
176
     1
 62
   257
176
     1
 90
        1
176
     1
 90
        1
176
     1
 40
1.0
176
     1
 90
        8
176
     1
 62
   257
176
     1
 40
1.0
176
     1
 90
        1
176
     1
 90
        6
176
     1
 90
        2
176
     1
 62
     7
176
     1
 90
        3
176
     1
 90
        0
176
     1
 90
        0
176
     1
290
     0
176
     1
 90
       13
176
     1
 40
0.0
176
     1
 90
        0
176
     1
290
     0
176
     1
290
     1
176
     1
290
     1
176
     1
290
     0
176
     1
290
     0
176
     1
290
     0
176
     1
290
     0
176
     1
290
     0
176
     1
290
     0
176
     1
 90
       50
176
     1
 40
0.0
176
     1
 40
1.0
176
     1
 90
        0
176
     1
 62
    18
420
        0
176
     1
 90
       50
176
     1
 90
        3
176
     1
 62
     5
420
      255
176
     1
290
     0
176
     1
 90
       50
176
     1
 90
       50
176
     1
 90
       50
176
     1
290
     0
176
     1
 90
       50
176
     1
 62
   256
176
     0
 40
1.0
176
     0
 90
        2
176
     1
  1
strokes_ogs.tif
176
     1
290
     0
176
     1
 40
1.0
176
     1
 40
1.0
176
     1
  0
VISUALSTYLE
  5
3E
102
{ACAD_REACTORS
330
29
102
}
330
29
100
AcDbVisualStyle
  2
Shaded
 70
    27
177
     3
291
     0
 70
    58
 90
        2
176
     1
 90
        2
176
     1
 90
        1
176
     1
 90
        2
176
     1
 40
0.6
176
     1
 40
30.0
176
     1
 62
     7
420
 16777215
176
     1
 90
        0
176
     1
 90
        4
176
     1
 62
     7
176
     1
 62
   257
176
     1
 90
        1
176
     1
 90
        1
176
     1
 40
1.0
176
     1
 90
        8
176
     1
 62
   257
176
     1
 40
1.0
176
     1
 90
        1
176
     1
 90
        6
176
     1
 90
        2
176
     1
 62
     8
420
  7895160
176
     1
 90
        3
176
     1
 90
        0
176
     1
 90
        0
176
     1
290
     0
176
     1
 90
        5
176
     1
 40
0.0
176
     1
 90
        0
176
     1
290
     0
176
     1
290
     1
176
     1
290
     1
176
     1
290
     0
176
     1
290
     0
176
     1
290
     0
176
     1
290
     0
176
     1
290
     0
176
     1
290
     0
176
     1
 90
       50
176
     1
 40
0.0
176
     1
 40
1.0
176
     1
 90
        0
176
     1
 62
    18
420
        0
176
     1
 90
       50
176
     1
 90
        3
176
     1
 62
     5
420
      255
176
     1
290
     0
176
     1
 90
       50
176
     1
 90
       50
176
     1
 90
       50
176
     1
290
     0
176
     1
 90
       50
176
     1
 62
   256
176
     0
 40
1.0
176
     0
 90
        2
176
     1
  1
strokes_ogs.tif
176
     1
290
     0
176
     1
 40
1.0
176
     1
 40
1.0
176
     1
  0
VISUALSTYLE
  5
3D
102
{ACAD_REACTORS
330
29
102
}
330
29
100
AcDbVisualStyle
  2
Shaded with edges
 70
    26
177
     3
291
     0
 70
    58
 90
        2
176
     1
 90
        2
176
     1
 90
        1
176
     1
 90
        2
176
     1
 40
0.6
176
     1
 40
30.0
176
     1
 62
     7
420
 16777215
176
     1
 90
        1
176
     1
 90
        2
176
     1
 62
     7
176
     1
 62
   257
176
     1
 90
        2
176
     1
 90
        1
176
     1
 40
1.0
176
     1
 90
        8
176
     1
 62
   257
176
     1
 40
1.0
176
     1
 90
        1
176
     1
 90
        6
176
     1
 90
        2
176
     1
 62
     7
176
     1
 90
        3
176
     1
 90
        0
176
     1
 90
        0
176
     1
290
     0
176
     1
 90
        5
176
     1
 40
0.0
176
     1
 90
        0
176
     1
290
     0
176
     1
290
     1
176
     1
290
     1
176
     1
290
     0
176
     1
290
     0
176
     1
290
     0
176
     1
290
     0
176
     1
290
     0
176
     1
290
     0
176
     1
 90
       50
176
     1
 40
0.0
176
     1
 40
1.0
176
     1
 90
        0
176
     1
 62
    18
420
        0
176
     1
 90
       50
176
     1
 90
        3
176
     1
 62
     5
420
      255
176
     1
290
     0
176
     1
 90
       50
176
     1
 90
       50
176
     1
 90
       50
176
     1
290
     0
176
     1
 90
       50
176
     1
 62
   256
176
     0
 40
1.0
176
     0
 90
        2
176
     1
  1
strokes_ogs.tif
176
     1
290
     0
176
     1
 40
1.0
176
     1
 40
1.0
176
     1
  0
VISUALSTYLE
  5
3A
102
{ACAD_REACTORS
330
29
102
}
330
29
100
AcDbVisualStyle
  2
Shades of Gray
 70
    23
177
     3
291
     0
 70
    58
 90
        2
176
     1
 90
        2
176
     1
 90
        3
176
     1
 90
        0
176
     1
 40
0.6
176
     1
 40
30.0
176
     1
 62
     7
420
 16777215
176
     1
 90
        2
176
     1
 90
        2
176
     1
 62
     7
176
     1
 62
     7
176
     1
 90
        1
176
     1
 90
        1
176
     1
 40
40.0
176
     1
 90
        8
176
     1
 62
     7
176
     1
 40
1.0
176
     1
 90
        1
176
     1
 90
        6
176
     1
 90
        2
176
     1
 62
     7
176
     1
 90
        3
176
     1
 90
        0
176
     1
 90
        0
176
     1
290
     0
176
     1
 90
        1
176
     1
 40
0.0
176
     1
 90
        0
176
     1
290
     0
176
     1
290
     1
176
     1
290
     1
176
     1
290
     0
176
     1
290
     0
176
     1
290
     0
176
     1
290
     0
176
     1
290
     0
176
     1
290
     0
176
     1
 90
       50
176
     1
 40
0.0
176
     1
 40
1.0
176
     1
 90
        0
176
     1
 62
    18
420
        0
176
     1
 90
       50
176
     1
 90
        3
176
     1
 62
     5
420
      255
176
     1
290
     0
176
     1
 90
       50
176
     1
 90
       50
176
     1
 90
       50
176
     1
290
     0
176
     1
 90
       50
176
     1
 62
   256
176
     0
 40
1.0
176
     0
 90
        2
176
     1
  1
strokes_ogs.tif
176
     1
290
     0
176
     1
 40
1.0
176
     1
 40
1.0
176
     1
  0
VISUALSTYLE
  5
3B
102
{ACAD_REACTORS
330
29
102
}
330
29
100
AcDbVisualStyle
  2
Sketchy
 70
    24
177
     3
291
     0
 70
    58
 90
        1
176
     1
 90
        2
176
     1
 90
        2
176
     1
 90
        0
176
     1
 40
0.6
176
     1
 40
30.0
176
     1
 62
     7
420
 16777215
176
     1
 90
        2
176
     1
 90
        2
176
     1
 62
     7
176
     1
 62
     7
176
     1
 90
        1
176
     1
 90
        1
176
     1
 40
40.0
176
     1
 90
       11
176
     1
 62
     7
176
     1
 40
1.0
176
     1
 90
        1
176
     1
 90
        6
176
     1
 90
        2
176
     1
 62
     7
176
     1
 90
        6
176
     1
 90
        0
176
     1
 90
        0
176
     1
290
     0
176
     1
 90
        1
176
     1
 40
0.0
176
     1
 90
        0
176
     1
290
     0
176
     1
290
     1
176
     1
290
     1
176
     1
290
     0
176
     1
290
     0
176
     1
290
     0
176
     1
290
     0
176
     1
290
     0
176
     1
290
     0
176
     1
 90
       50
176
     1
 40
0.0
176
     1
 40
1.0
176
     1
 90
        0
176
     1
 62
    18
420
        0
176
     1
 90
       50
176
     1
 90
        3
176
     1
 62
     5
420
      255
176
     1
290
     0
176
     1
 90
       50
176
     1
 90
       50
176
     1
 90
       50
176
     1
290
     0
176
     1
 90
       50
176
     1
 62
   256
176
     0
 40
1.0
176
     0
 90
        2
176
     1
  1
strokes_ogs.tif
176
     1
290
     0
176
     1
 40
1.0
176
     1
 40
1.0
176
     1
  0
VISUALSTYLE
  5
36
102
{ACAD_REACTORS
330
29
102
}
330
29
100
AcDbVisualStyle
  2
Thicken
 70
    13
177
     3
291
     1
 70
    58
 90
        2
176
     1
 90
        2
176
     1
 90
        0
176
     1
 90
        0
176
     1
 40
0.6
176
     1
 40
30.0
176
     1
 62
     7
420
 16777215
176
     1
 90
        1
176
     1
 90
        4
176
     1
 62
     7
176
     1
 62
   257
176
     1
 90
        1
176
     1
 90
        1
176
     1
 40
1.0
176
     1
 90
       12
176
     1
 62
     7
176
     1
 40
1.0
176
     1
 90
        1
176
     1
 90
        6
176
     1
 90
        2
176
     1
 62
     7
176
     1
 90
        5
176
     1
 90
        0
176
     1
 90
        0
176
     1
290
     0
176
     1
 90
        1
176
     1
 40
0.0
176
     1
 90
        0
176
     1
290
     0
176
     1
290
     1
176
     1
290
     1
176
     1
290
     0
176
     1
290
     0
176
     1
290
     0
176
     1
290
     0
176
     1
290
     0
176
     1
290
     0
176
     1
 90
       50
176
     1
 40
0.0
176
     1
 40
1.0
176
     1
 90
        0
176
     1
 62
    18
420
        0
176
     1
 90
       50
176
     1
 90
        3
176
     1
 62
     5
420
      255
176
     1
290
     0
176
     1
 90
       50
176
     1
 90
       50
176
     1
 90
       50
176
     1
290
     0
176
     1
 90
       50
176
     1
 62
   256
176
     0
 40
1.0
176
     0
 90
        2
176
     1
  1
strokes_ogs.tif
176
     1
290
     0
176
     1
 40
1.0
176
     1
 40
1.0
176
     1
  0
VISUALSTYLE
  5
30
102
{ACAD_REACTORS
330
29
102
}
330
29
100
AcDbVisualStyle
  2
Wireframe
 70
     5
177
     3
291
     0
 70
    58
 90
        0
176
     1
 90
        2
176
     1
 90
        0
176
     1
 90
        0
176
     1
 40
0.6
176
     1
 40
30.0
176
     1
 62
     7
420
 16777215
176
     1
 90
        1
176
     1
 90
        4
176
     1
 62
     7
176
     1
 62
   257
176
     1
 90
        1
176
     1
 90
        1
176
     1
 40
1.0
176
     1
 90
        0
176
     1
 62
   257
176
     1
 40
1.0
176
     1
 90
        1
176
     1
 90
        6
176
     1
 90
        2
176
     1
 62
     7
176
     1
 90
        3
176
     1
 90
        0
176
     1
 90
        0
176
     1
290
     0
176
     1
 90
        1
176
     1
 40
0.0
176
     1
 90
        0
176
     1
290
     0
176
     1
290
     1
176
     1
290
     1
176
     1
290
     0
176
     1
290
     0
176
     1
290
     0
176
     1
290
     0
176
     1
290
     0
176
     1
290
     0
176
     1
 90
       50
176
     1
 40
0.0
176
     1
 40
1.0
176
     1
 90
        0
176
     1
 62
    18
420
        0
176
     1
 90
       50
176
     1
 90
        3
176
     1
 62
     5
420
      255
176
     1
290
     0
176
     1
 90
       50
176
     1
 90
       50
176
     1
 90
       50
176
     1
290
     0
176
     1
 90
       50
176
     1
 62
   256
176
     0
 40
1.0
176
     0
 90
        2
176
     1
  1
strokes_ogs.tif
176
     1
290
     0
176
     1
 40
1.0
176
     1
 40
1.0
176
     1
  0
VISUALSTYLE
  5
3C
102
{ACAD_REACTORS
330
29
102
}
330
29
100
AcDbVisualStyle
  2
X-Ray
 70
    25
177
     3
291
     0
 70
    58
 90
        2
176
     1
 90
        2
176
     1
 90
        1
176
     1
 90
        1
176
     1
 40
0.5
176
     1
 40
30.0
176
     1
 62
     7
420
 16777215
176
     1
 90
        1
176
     1
 90
        0
176
     1
 62
     7
176
     1
 62
   257
176
     1
 90
        1
176
     1
 90
        1
176
     1
 40
1.0
176
     1
 90
        8
176
     1
 62
     7
176
     1
 40
1.0
176
     1
 90
        1
176
     1
 90
        6
176
     1
 90
        2
176
     1
 62
     7
176
     1
 90
        3
176
     1
 90
        0
176
     1
 90
        0
176
     1
290
     0
176
     1
 90
       13
176
     1
 40
0.0
176
     1
 90
        0
176
     1
290
     0
176
     1
290
     1
176
     1
290
     1
176
     1
290
     0
176
     1
290
     0
176
     1
290
     0
176
     1
290
     0
176
     1
290
     0
176
     1
290
     0
176
     1
 90
       50
176
     1
 40
0.0
176
     1
 40
1.0
176
     1
 90
        0
176
     1
 62
    18
420
        0
176
     1
 90
       50
176
     1
 90
        3
176
     1
 62
     5
420
      255
176
     1
290
     0
176
     1
 90
       50
176
     1
 90
       50
176
     1
 90
       50
176
     1
290
     0
176
     1
 90
       50
176
     1
 62
   256
176
     0
 40
1.0
176
     0
 90
        2
176
     1
  1
strokes_ogs.tif
176
     1
290
     0
176
     1
 40
1.0
176
     1
 40
1.0
176
     1
  0
DICTIONARYVAR
  5
249
102
{ACAD_REACTORS
330
243
102
}
330
243
100
DictionaryVariables
280
     0
  1
1:1
  0
DICTIONARYVAR
  5
245
102
{ACAD_REACTORS
330
243
102
}
330
243
100
DictionaryVariables
280
     0
  1
STANDARD
  0
DICTIONARYVAR
  5
244
102
{ACAD_REACTORS
330
243
102
}
330
243
100
DictionaryVariables
280
     0
  1
STANDARD
  0
DICTIONARYVAR
  5
246
102
{ACAD_REACTORS
330
243
102
}
330
243
100
DictionaryVariables
280
     0
  1
Imperial24
  0
DICTIONARYVAR
  5
247
102
{ACAD_REACTORS
330
243
102
}
330
243
100
DictionaryVariables
280
     0
  1
Imperial24
  0
DICTIONARYVAR
  5
24B
102
{ACAD_REACTORS
330
243
102
}
330
243
100
DictionaryVariables
280
     0
  1
1
  0
DICTIONARYVAR
  5
24C
102
{ACAD_REACTORS
330
243
102
}
330
243
100
DictionaryVariables
280
     0
  1
15
  0
DICTIONARYVAR
  5
24A
102
{ACAD_REACTORS
330
243
102
}
330
243
100
DictionaryVariables
280
     0
  1
0
  0
DICTIONARYVAR
  5
248
102
{ACAD_REACTORS
330
243
102
}
330
243
100
DictionaryVariables
280
     0
  1
0
  0
DICTIONARY
  5
1A
330
19
100
AcDbDictionary
280
     1
281
     1
  3
BUMPTILE
360
1C
  3
DIFFUSETILE
360
1B
  3
OPACITYTILE
360
1F
  3
REFLECTIONTILE
360
1E
  3
REFRACTIONTILE
360
20
  3
SPECULARTILE
360
1D
  0
DICTIONARY
  5
12
330
11
100
AcDbDictionary
280
     1
281
     1
  3
BUMPTILE
360
14
  3
DIFFUSETILE
360
13
  3
OPACITYTILE
360
17
  3
REFLECTIONTILE
360
16
  3
REFRACTIONTILE
360
18
  3
SPECULARTILE
360
15
  0
DICTIONARY
  5
22
330
21
100
AcDbDictionary
280
     1
281
     1
  3
BUMPTILE
360
24
  3
DIFFUSETILE
360
23
  3
OPACITYTILE
360
27
  3
REFLECTIONTILE
360
26
  3
REFRACTIONTILE
360
28
  3
SPECULARTILE
360
25
  0
DICTIONARY
  5
24E
330
64
100
AcDbDictionary
280
     1
281
     1
  3
ACAD_ROUNDTRIP_2008_TABLESTYLE_CELLSTYLEMAP
360
24F
  0
XRECORD
  5
1C
102
{ACAD_REACTORS
330
1A
102
}
330
1A
100
AcDbXrecord
280
     1
270
     1
271
     1
  0
XRECORD
  5
1B
102
{ACAD_REACTORS
330
1A
102
}
330
1A
100
AcDbXrecord
280
     1
270
     1
271
     1
  0
XRECORD
  5
1F
102
{ACAD_REACTORS
330
1A
102
}
330
1A
100
AcDbXrecord
280
     1
270
     1
271
     1
  0
XRECORD
  5
1E
102
{ACAD_REACTORS
330
1A
102
}
330
1A
100
AcDbXrecord
280
     1
270
     1
271
     1
  0
XRECORD
  5
20
102
{ACAD_REACTORS
330
1A
102
}
330
1A
100
AcDbXrecord
280
     1
270
     1
271
     1
  0
XRECORD
  5
1D
102
{ACAD_REACTORS
330
1A
102
}
330
1A
100
AcDbXrecord
280
     1
270
     1
271
     1
  0
XRECORD
  5
14
102
{ACAD_REACTORS
330
12
102
}
330
12
100
AcDbXrecord
280
     1
270
     1
271
     1
  0
XRECORD
  5
13
102
{ACAD_REACTORS
330
12
102
}
330
12
100
AcDbXrecord
280
     1
270
     1
271
     1
  0
XRECORD
  5
17
102
{ACAD_REACTORS
330
12
102
}
330
12
100
AcDbXrecord
280
     1
270
     1
271
     1
  0
XRECORD
  5
16
102
{ACAD_REACTORS
330
12
102
}
330
12
100
AcDbXrecord
280
     1
270
     1
271
     1
  0
XRECORD
  5
18
102
{ACAD_REACTORS
330
12
102
}
330
12
100
AcDbXrecord
280
     1
270
     1
271
     1
  0
XRECORD
  5
15
102
{ACAD_REACTORS
330
12
102
}
330
12
100
AcDbXrecord
280
     1
270
     1
271
     1
  0
XRECORD
  5
24
102
{ACAD_REACTORS
330
22
102
}
330
22
100
AcDbXrecord
280
     1
270
     1
271
     1
  0
XRECORD
  5
23
102
{ACAD_REACTORS
330
22
102
}
330
22
100
AcDbXrecord
280
     1
270
     1
271
     1
  0
XRECORD
  5
27
102
{ACAD_REACTORS
330
22
102
}
330
22
100
AcDbXrecord
280
     1
270
     1
271
     1
  0
XRECORD
  5
26
102
{ACAD_REACTORS
330
22
102
}
330
22
100
AcDbXrecord
280
     1
270
     1
271
     1
  0
XRECORD
  5
28
102
{ACAD_REACTORS
330
22
102
}
330
22
100
AcDbXrecord
280
     1
270
     1
271
     1
  0
XRECORD
  5
25
102
{ACAD_REACTORS
330
22
102
}
330
22
100
AcDbXrecord
280
     1
270
     1
271
     1
  0
CELLSTYLEMAP
  5
24F
102
{ACAD_REACTORS
330
24E
102
}
330
24E
100
AcDbCellStyleMap
 90
        3
300
CELLSTYLE
  1
TABLEFORMAT_BEGIN
 90
        5
170
     1
 91
        0
 92
    32768
 62
   257
 93
        1
300
CONTENTFORMAT
  1
CONTENTFORMAT_BEGIN
 90
        0
 91
        0
 92
      512
 93
        0
300

 40
0.0
140
1.0
 94
        5
 62
     0
340
55
144
0.25
309
CONTENTFORMAT_END
171
     0
 94
        0
309
TABLEFORMAT_END
  1
CELLSTYLE_BEGIN
 90
        1
 91
        1
300
_TITLE
309
CELLSTYLE_END
300
CELLSTYLE
  1
TABLEFORMAT_BEGIN
 90
        5
170
     1
 91
        0
 92
        0
 62
   257
 93
        1
300
CONTENTFORMAT
  1
CONTENTFORMAT_BEGIN
 90
        0
 91
        0
 92
      512
 93
        0
300

 40
0.0
140
1.0
 94
        5
 62
     0
340
55
144
0.18
309
CONTENTFORMAT_END
171
     0
 94
        0
309
TABLEFORMAT_END
  1
CELLSTYLE_BEGIN
 90
        2
 91
        1
300
_HEADER
309
CELLSTYLE_END
300
CELLSTYLE
  1
TABLEFORMAT_BEGIN
 90
        5
170
     1
 91
        0
 92
        0
 62
   257
 93
        1
300
CONTENTFORMAT
  1
CONTENTFORMAT_BEGIN
 90
        0
 91
        0
 92
      512
 93
        0
300

 40
0.0
140
1.0
 94
        2
 62
     0
340
55
144
0.18
309
CONTENTFORMAT_END
171
     0
 94
        0
309
TABLEFORMAT_END
  1
CELLSTYLE_BEGIN
 90
        3
 91
        2
300
_DATA
309
CELLSTYLE_END
  0
ENDSEC
  0
EOF
