  999
3DReshaper Library: The high level reverse engineering accessible to everybody
  999
DXF interface June 2002 (C) TECHNODIGIT
  999
Web: www.3dreshaper.com  -  Email: support@3dreshaper.com
  0
SECTION
  2
TABLES
  0
TABLE
  2
LTYPE
  70
2
  0
LTYPE
  2
CONTINUOUS
  70
0
  3
Solid line ____________________
  72
65
  73
0
  40
0.000000
  0
LTYPE
  2
DASHED
  70
0
  3
Dashed _  _  _  _  _  _  _  _  _
  72
65
  73
2
  40
20.000000
  49
10
  49
-10
  0
ENDTAB
  0
TABLE
  2
LAYER
  70
1
  0
LAYER
  2
GVSTracks
  70
0
  62
7
  6
Continuous
  0
ENDTAB
  0
ENDSEC
  0
SECTION
  2
ENTITIES
  0
POLYLINE
  8
GVSTracks
  6
Continuous
  62
181
  66
1
  10
0
  20
0
  30
0
  70
8
  0
VERTEX
  8
GVSTracks
  10
0.000000
  20
0.000000
  30
0.000000
  70
32
  0
VERTEX
  8
GVSTracks
  10
0.122992
  20
0.484688
  30
-0.009000
  70
32
  0
VERTEX
  8
GVSTracks
  10
0.242959
  20
0.971217
  30
-0.007000
  70
32
  0
VERTEX
  8
GVSTracks
  10
0.358728
  20
1.458229
  30
-0.004000
  70
32
  0
VERTEX
  8
GVSTracks
  10
0.474618
  20
1.944756
  30
-0.003000
  70
32
  0
VERTEX
  8
GVSTracks
  10
0.590707
  20
2.433459
  30
-0.002000
  70
32
  0
VERTEX
  8
GVSTracks
  10
0.705799
  20
2.921710
  30
0.000000
  70
32
  0
VERTEX
  8
GVSTracks
  10
0.819681
  20
3.409515
  30
0.000000
  70
32
  0
VERTEX
  8
GVSTracks
  10
0.931827
  20
3.898562
  30
0.000000
  70
32
  0
VERTEX
  8
GVSTracks
  10
1.045950
  20
4.386602
  30
0.000000
  70
32
  0
VERTEX
  8
GVSTracks
  10
1.159274
  20
4.875071
  30
0.000000
  70
32
  0
VERTEX
  8
GVSTracks
  10
1.271058
  20
5.362861
  30
-0.001000
  70
32
  0
VERTEX
  8
GVSTracks
  10
1.385350
  20
5.854255
  30
-0.001000
  70
32
  0
VERTEX
  8
GVSTracks
  10
1.501083
  20
6.345888
  30
-0.001000
  70
32
  0
VERTEX
  8
GVSTracks
  10
1.617805
  20
6.837018
  30
-0.002000
  70
32
  0
VERTEX
  8
GVSTracks
  10
1.732613
  20
7.323871
  30
-0.002000
  70
32
  0
VERTEX
  8
GVSTracks
  10
1.847879
  20
7.812636
  30
-0.003000
  70
32
  0
VERTEX
  8
GVSTracks
  10
1.964289
  20
8.301221
  30
-0.005000
  70
32
  0
VERTEX
  8
GVSTracks
  10
2.080555
  20
8.789622
  30
-0.006000
  70
32
  0
VERTEX
  8
GVSTracks
  10
2.195927
  20
9.282801
  30
-0.008000
  70
32
  0
VERTEX
  8
GVSTracks
  10
2.309179
  20
9.772882
  30
-0.011000
  70
32
  0
VERTEX
  8
GVSTracks
  10
2.425015
  20
10.265133
  30
-0.014000
  70
32
  0
VERTEX
  8
GVSTracks
  10
2.538462
  20
10.760532
  30
-0.018000
  70
32
  0
VERTEX
  8
GVSTracks
  10
2.654038
  20
11.255763
  30
-0.023000
  70
32
  0
VERTEX
  8
GVSTracks
  10
2.764353
  20
11.751606
  30
-0.028000
  70
32
  0
VERTEX
  8
GVSTracks
  10
2.873630
  20
12.246525
  30
-0.034000
  70
32
  0
VERTEX
  8
GVSTracks
  10
2.984516
  20
12.739821
  30
-0.039000
  70
32
  0
VERTEX
  8
GVSTracks
  10
3.093636
  20
13.229200
  30
-0.042000
  70
32
  0
VERTEX
  8
GVSTracks
  10
3.205224
  20
13.723222
  30
-0.044000
  70
32
  0
VERTEX
  8
GVSTracks
  10
3.314090
  20
14.212742
  30
-0.045000
  70
32
  0
VERTEX
  8
GVSTracks
  10
3.425960
  20
14.705659
  30
-0.045000
  70
32
  0
VERTEX
  8
GVSTracks
  10
3.537903
  20
15.200975
  30
-0.046000
  70
32
  0
VERTEX
  8
GVSTracks
  10
3.645473
  20
15.690138
  30
-0.048000
  70
32
  0
VERTEX
  8
GVSTracks
  10
3.753673
  20
16.182242
  30
-0.048000
  70
32
  0
VERTEX
  8
GVSTracks
  10
3.868466
  20
16.674599
  30
-0.047000
  70
32
  0
VERTEX
  8
GVSTracks
  10
3.978892
  20
17.171413
  30
-0.046000
  70
32
  0
VERTEX
  8
GVSTracks
  10
4.084910
  20
17.661868
  30
-0.045000
  70
32
  0
VERTEX
  8
GVSTracks
  10
4.198551
  20
18.151940
  30
-0.040000
  70
32
  0
VERTEX
  8
GVSTracks
  10
4.312495
  20
18.642394
  30
-0.035000
  70
32
  0
VERTEX
  8
GVSTracks
  10
4.419650
  20
19.136929
  30
-0.029000
  70
32
  0
VERTEX
  8
GVSTracks
  10
4.528555
  20
19.631746
  30
-0.025000
  70
32
  0
VERTEX
  8
GVSTracks
  10
4.639037
  20
20.126632
  30
-0.021000
  70
32
  0
VERTEX
  8
GVSTracks
  10
4.749129
  20
20.614802
  30
-0.018000
  70
32
  0
VERTEX
  8
GVSTracks
  10
4.858188
  20
21.106234
  30
-0.017000
  70
32
  0
VERTEX
  8
GVSTracks
  10
4.970825
  20
21.602615
  30
-0.015000
  70
32
  0
VERTEX
  8
GVSTracks
  10
5.082628
  20
22.095812
  30
-0.014000
  70
32
  0
VERTEX
  8
GVSTracks
  10
5.195206
  20
22.586704
  30
-0.014000
  70
32
  0
VERTEX
  8
GVSTracks
  10
5.307438
  20
23.076051
  30
-0.013000
  70
32
  0
VERTEX
  8
GVSTracks
  10
5.421508
  20
23.563782
  30
-0.011000
  70
32
  0
VERTEX
  8
GVSTracks
  10
5.535614
  20
24.060041
  30
-0.011000
  70
32
  0
VERTEX
  8
GVSTracks
  10
5.650412
  20
24.553567
  30
-0.011000
  70
32
  0
VERTEX
  8
GVSTracks
  10
5.762564
  20
25.043570
  30
-0.011000
  70
32
  0
VERTEX
  8
GVSTracks
  10
5.882339
  20
25.539009
  30
-0.011000
  70
32
  0
VERTEX
  8
GVSTracks
  10
5.995218
  20
26.031401
  30
-0.013000
  70
32
  0
VERTEX
  8
GVSTracks
  10
6.111947
  20
26.529005
  30
-0.013000
  70
32
  0
VERTEX
  8
GVSTracks
  10
6.225240
  20
27.021152
  30
-0.014000
  70
32
  0
VERTEX
  8
GVSTracks
  10
6.340455
  20
27.517930
  30
-0.015000
  70
32
  0
VERTEX
  8
GVSTracks
  10
6.453707
  20
28.007495
  30
-0.015000
  70
32
  0
VERTEX
  8
GVSTracks
  10
6.566536
  20
28.502080
  30
-0.016000
  70
32
  0
VERTEX
  8
GVSTracks
  10
6.681958
  20
29.000092
  30
-0.017000
  70
32
  0
VERTEX
  8
GVSTracks
  10
6.796214
  20
29.489772
  30
-0.018000
  70
32
  0
VERTEX
  8
GVSTracks
  10
6.911931
  20
29.982384
  30
-0.019000
  70
32
  0
VERTEX
  8
GVSTracks
  10
7.028464
  20
30.478892
  30
-0.020000
  70
32
  0
VERTEX
  8
GVSTracks
  10
7.145311
  20
30.966180
  30
-0.019000
  70
32
  0
VERTEX
  8
GVSTracks
  10
7.263194
  20
31.455813
  30
-0.020000
  70
32
  0
VERTEX
  8
GVSTracks
  10
7.383157
  20
31.947771
  30
-0.020000
  70
32
  0
VERTEX
  8
GVSTracks
  10
7.503045
  20
32.442761
  30
-0.020000
  70
32
  0
VERTEX
  8
GVSTracks
  10
7.629008
  20
32.937843
  30
-0.017000
  70
32
  0
VERTEX
  8
GVSTracks
  10
7.754148
  20
33.422340
  30
-0.016000
  70
32
  0
VERTEX
  8
GVSTracks
  10
7.885463
  20
33.907459
  30
-0.015000
  70
32
  0
VERTEX
  8
GVSTracks
  10
8.023017
  20
34.391624
  30
-0.014000
  70
32
  0
VERTEX
  8
GVSTracks
  10
8.157257
  20
34.878986
  30
-0.012000
  70
32
  0
VERTEX
  8
GVSTracks
  10
8.292645
  20
35.369448
  30
-0.011000
  70
32
  0
VERTEX
  8
GVSTracks
  10
8.439544
  20
35.860207
  30
-0.009000
  70
32
  0
VERTEX
  8
GVSTracks
  10
8.578671
  20
36.340947
  30
-0.008000
  70
32
  0
VERTEX
  8
GVSTracks
  10
8.712553
  20
36.826323
  30
-0.007000
  70
32
  0
VERTEX
  8
GVSTracks
  10
8.855304
  20
37.311753
  30
-0.006000
  70
32
  0
VERTEX
  8
GVSTracks
  10
9.000073
  20
37.799965
  30
-0.004000
  70
32
  0
VERTEX
  8
GVSTracks
  10
9.149630
  20
38.288354
  30
-0.002000
  70
32
  0
VERTEX
  8
GVSTracks
  10
9.298977
  20
38.779341
  30
0.001000
  70
32
  0
VERTEX
  8
GVSTracks
  10
9.447991
  20
39.258668
  30
0.003000
  70
32
  0
VERTEX
  8
GVSTracks
  10
9.597088
  20
39.740231
  30
0.005000
  70
32
  0
VERTEX
  8
GVSTracks
  10
9.749765
  20
40.222217
  30
0.007000
  70
32
  0
VERTEX
  8
GVSTracks
  10
9.901900
  20
40.707384
  30
0.009000
  70
32
  0
VERTEX
  8
GVSTracks
  10
10.056859
  20
41.193057
  30
0.009000
  70
32
  0
VERTEX
  8
GVSTracks
  10
10.210525
  20
41.680963
  30
0.007000
  70
32
  0
VERTEX
  8
GVSTracks
  10
10.365576
  20
42.156769
  30
0.006000
  70
32
  0
VERTEX
  8
GVSTracks
  10
10.521478
  20
42.633662
  30
0.004000
  70
32
  0
VERTEX
  8
GVSTracks
  10
10.676835
  20
43.113256
  30
0.001000
  70
32
  0
VERTEX
  8
GVSTracks
  10
10.837845
  20
43.592922
  30
-0.002000
  70
32
  0
VERTEX
  8
GVSTracks
  10
10.998514
  20
44.075834
  30
-0.004000
  70
32
  0
VERTEX
  8
GVSTracks
  10
11.161420
  20
44.559673
  30
-0.004000
  70
32
  0
VERTEX
  8
GVSTracks
  10
11.327239
  20
45.044320
  30
-0.003000
  70
32
  0
VERTEX
  8
GVSTracks
  10
11.494161
  20
45.530817
  30
-0.002000
  70
32
  0
VERTEX
  8
GVSTracks
  10
11.659310
  20
46.003908
  30
0.000000
  70
32
  0
VERTEX
  8
GVSTracks
  10
11.824157
  20
46.478817
  30
0.003000
  70
32
  0
VERTEX
  8
GVSTracks
  10
11.993021
  20
46.953066
  30
0.007000
  70
32
  0
VERTEX
  8
GVSTracks
  10
12.164788
  20
47.427770
  30
0.012000
  70
32
  0
VERTEX
  8
GVSTracks
  10
12.339918
  20
47.901824
  30
0.017000
  70
32
  0
VERTEX
  8
GVSTracks
  10
12.514868
  20
48.378504
  30
0.023000
  70
32
  0
VERTEX
  8
GVSTracks
  10
12.696493
  20
48.852458
  30
0.028000
  70
32
  0
VERTEX
  8
GVSTracks
  10
12.880402
  20
49.325874
  30
0.032000
  70
32
  0
VERTEX
  8
GVSTracks
  10
13.066134
  20
49.800463
  30
0.035000
  70
32
  0
VERTEX
  8
GVSTracks
  10
13.255007
  20
50.273151
  30
0.038000
  70
32
  0
VERTEX
  8
GVSTracks
  10
13.445143
  20
50.745990
  30
0.041000
  70
32
  0
VERTEX
  8
GVSTracks
  10
13.637888
  20
51.219042
  30
0.045000
  70
32
  0
VERTEX
  8
GVSTracks
  10
13.833746
  20
51.691760
  30
0.049000
  70
32
  0
VERTEX
  8
GVSTracks
  10
14.029825
  20
52.165729
  30
0.054000
  70
32
  0
VERTEX
  8
GVSTracks
  10
14.228756
  20
52.640145
  30
0.059000
  70
32
  0
VERTEX
  8
GVSTracks
  10
14.423228
  20
53.100868
  30
0.062000
  70
32
  0
VERTEX
  8
GVSTracks
  10
14.620751
  20
53.561803
  30
0.066000
  70
32
  0
VERTEX
  8
GVSTracks
  10
14.818509
  20
54.023612
  30
0.068000
  70
32
  0
VERTEX
  8
GVSTracks
  10
15.018349
  20
54.485724
  30
0.070000
  70
32
  0
VERTEX
  8
GVSTracks
  10
15.219047
  20
54.948282
  30
0.071000
  70
32
  0
VERTEX
  8
GVSTracks
  10
15.422316
  20
55.411274
  30
0.073000
  70
32
  0
VERTEX
  8
GVSTracks
  10
15.625647
  20
55.875017
  30
0.073000
  70
32
  0
VERTEX
  8
GVSTracks
  10
15.831347
  20
56.339341
  30
0.073000
  70
32
  0
VERTEX
  8
GVSTracks
  10
16.037702
  20
56.804862
  30
0.074000
  70
32
  0
VERTEX
  8
GVSTracks
  10
16.243835
  20
57.271244
  30
0.075000
  70
32
  0
VERTEX
  8
GVSTracks
  10
16.452110
  20
57.738591
  30
0.076000
  70
32
  0
VERTEX
  8
GVSTracks
  10
16.663903
  20
58.204405
  30
0.077000
  70
32
  0
VERTEX
  8
GVSTracks
  10
16.876086
  20
58.671719
  30
0.078000
  70
32
  0
VERTEX
  8
GVSTracks
  10
17.090006
  20
59.138784
  30
0.079000
  70
32
  0
VERTEX
  8
GVSTracks
  10
17.307162
  20
59.605722
  30
0.081000
  70
32
  0
VERTEX
  8
GVSTracks
  10
17.528850
  20
60.070476
  30
0.082000
  70
32
  0
VERTEX
  8
GVSTracks
  10
17.743691
  20
60.522964
  30
0.082000
  70
32
  0
VERTEX
  8
GVSTracks
  10
17.960396
  20
60.974291
  30
0.082000
  70
32
  0
VERTEX
  8
GVSTracks
  10
18.180340
  20
61.425064
  30
0.082000
  70
32
  0
VERTEX
  8
GVSTracks
  10
18.390216
  20
61.878884
  30
0.082000
  70
32
  0
VERTEX
  8
GVSTracks
  10
18.606260
  20
62.330257
  30
0.082000
  70
32
  0
VERTEX
  8
GVSTracks
  10
18.825467
  20
62.780098
  30
0.081000
  70
32
  0
VERTEX
  8
GVSTracks
  10
19.038941
  20
63.232935
  30
0.084000
  70
32
  0
VERTEX
  8
GVSTracks
  10
19.254956
  20
63.684971
  30
0.085000
  70
32
  0
VERTEX
  8
GVSTracks
  10
19.475211
  20
64.150443
  30
0.085000
  70
32
  0
VERTEX
  8
GVSTracks
  10
19.694618
  20
64.600651
  30
0.087000
  70
32
  0
VERTEX
  8
GVSTracks
  10
19.908565
  20
65.053002
  30
0.088000
  70
32
  0
VERTEX
  8
GVSTracks
  10
20.125156
  20
65.504175
  30
0.088000
  70
32
  0
VERTEX
  8
GVSTracks
  10
20.341601
  20
65.955466
  30
0.088000
  70
32
  0
VERTEX
  8
GVSTracks
  10
20.558581
  20
66.406630
  30
0.088000
  70
32
  0
VERTEX
  8
GVSTracks
  10
20.774557
  20
66.858585
  30
0.087000
  70
32
  0
VERTEX
  8
GVSTracks
  10
20.991179
  20
67.310177
  30
0.085000
  70
32
  0
VERTEX
  8
GVSTracks
  10
21.208305
  20
67.763423
  30
0.084000
  70
32
  0
VERTEX
  8
GVSTracks
  10
21.423309
  20
68.217191
  30
0.083000
  70
32
  0
VERTEX
  8
GVSTracks
  10
21.641014
  20
68.671561
  30
0.081000
  70
32
  0
VERTEX
  8
GVSTracks
  10
21.858234
  20
69.127184
  30
0.080000
  70
32
  0
VERTEX
  8
GVSTracks
  10
22.075662
  20
69.582923
  30
0.078000
  70
32
  0
VERTEX
  8
GVSTracks
  10
22.292188
  20
70.038776
  30
0.077000
  70
32
  0
VERTEX
  8
GVSTracks
  10
22.508671
  20
70.495879
  30
0.076000
  70
32
  0
VERTEX
  8
GVSTracks
  10
22.727603
  20
70.951401
  30
0.075000
  70
32
  0
VERTEX
  8
GVSTracks
  10
22.939605
  20
71.409790
  30
0.074000
  70
32
  0
VERTEX
  8
GVSTracks
  10
23.148036
  20
71.869317
  30
0.074000
  70
32
  0
VERTEX
  8
GVSTracks
  10
23.357895
  20
72.327647
  30
0.074000
  70
32
  0
VERTEX
  8
GVSTracks
  10
23.568474
  20
72.785901
  30
0.075000
  70
32
  0
VERTEX
  8
GVSTracks
  10
23.776541
  20
73.243780
  30
0.075000
  70
32
  0
VERTEX
  8
GVSTracks
  10
23.980412
  20
73.705549
  30
0.075000
  70
32
  0
VERTEX
  8
GVSTracks
  10
24.184843
  20
74.164028
  30
0.074000
  70
32
  0
VERTEX
  8
GVSTracks
  10
24.387475
  20
74.624205
  30
0.074000
  70
32
  0
VERTEX
  8
GVSTracks
  10
24.589240
  20
75.084398
  30
0.073000
  70
32
  0
VERTEX
  8
GVSTracks
  10
24.791783
  20
75.544877
  30
0.072000
  70
32
  0
VERTEX
  8
GVSTracks
  10
24.992190
  20
76.005862
  30
0.070000
  70
32
  0
VERTEX
  8
GVSTracks
  10
25.190730
  20
76.468132
  30
0.069000
  70
32
  0
VERTEX
  8
GVSTracks
  10
25.391567
  20
76.929881
  30
0.067000
  70
32
  0
VERTEX
  8
GVSTracks
  10
25.591076
  20
77.392966
  30
0.066000
  70
32
  0
VERTEX
  8
GVSTracks
  10
25.787237
  20
77.857620
  30
0.065000
  70
32
  0
VERTEX
  8
GVSTracks
  10
25.983929
  20
78.323267
  30
0.065000
  70
32
  0
VERTEX
  8
GVSTracks
  10
26.178580
  20
78.789382
  30
0.066000
  70
32
  0
VERTEX
  8
GVSTracks
  10
26.375998
  20
79.256122
  30
0.067000
  70
32
  0
VERTEX
  8
GVSTracks
  10
26.565674
  20
79.725630
  30
0.070000
  70
32
  0
VERTEX
  8
GVSTracks
  10
26.754290
  20
80.195443
  30
0.072000
  70
32
  0
VERTEX
  8
GVSTracks
  10
26.943230
  20
80.665527
  30
0.075000
  70
32
  0
VERTEX
  8
GVSTracks
  10
27.132714
  20
81.136227
  30
0.077000
  70
32
  0
VERTEX
  8
GVSTracks
  10
27.322582
  20
81.605749
  30
0.081000
  70
32
  0
VERTEX
  8
GVSTracks
  10
27.516710
  20
82.075537
  30
0.085000
  70
32
  0
VERTEX
  8
GVSTracks
  10
27.708428
  20
82.545179
  30
0.086000
  70
32
  0
VERTEX
  8
GVSTracks
  10
27.902138
  20
83.015035
  30
0.090000
  70
32
  0
VERTEX
  8
GVSTracks
  10
28.094296
  20
83.483984
  30
0.093000
  70
32
  0
VERTEX
  8
GVSTracks
  10
28.293317
  20
83.951940
  30
0.096000
  70
32
  0
VERTEX
  8
GVSTracks
  10
28.492568
  20
84.418094
  30
0.097000
  70
32
  0
VERTEX
  8
GVSTracks
  10
28.682476
  20
84.887181
  30
0.101000
  70
32
  0
VERTEX
  8
GVSTracks
  10
28.875516
  20
85.351213
  30
0.103000
  70
32
  0
VERTEX
  8
GVSTracks
  10
29.064478
  20
85.814940
  30
0.104000
  70
32
  0
VERTEX
  8
GVSTracks
  10
29.257656
  20
86.291735
  30
0.105000
  70
32
  0
VERTEX
  8
GVSTracks
  10
29.447622
  20
86.770535
  30
0.107000
  70
32
  0
VERTEX
  8
GVSTracks
  10
29.633994
  20
87.247388
  30
0.107000
  70
32
  0
VERTEX
  8
GVSTracks
  10
29.821032
  20
87.723466
  30
0.107000
  70
32
  0
VERTEX
  8
GVSTracks
  10
30.003581
  20
88.198970
  30
0.107000
  70
32
  0
VERTEX
  8
GVSTracks
  10
30.186160
  20
88.674804
  30
0.107000
  70
32
  0
VERTEX
  8
GVSTracks
  10
30.366049
  20
89.150176
  30
0.106000
  70
32
  0
VERTEX
  8
GVSTracks
  10
30.546279
  20
89.625922
  30
0.106000
  70
32
  0
VERTEX
  8
GVSTracks
  10
30.725259
  20
90.102046
  30
0.106000
  70
32
  0
VERTEX
  8
GVSTracks
  10
30.902963
  20
90.579301
  30
0.107000
  70
32
  0
VERTEX
  8
GVSTracks
  10
31.079935
  20
91.056704
  30
0.106000
  70
32
  0
VERTEX
  8
GVSTracks
  10
31.255744
  20
91.535002
  30
0.106000
  70
32
  0
VERTEX
  8
GVSTracks
  10
31.429683
  20
92.015100
  30
0.106000
  70
32
  0
VERTEX
  8
GVSTracks
  10
31.603376
  20
92.495692
  30
0.107000
  70
32
  0
VERTEX
  8
GVSTracks
  10
31.778919
  20
92.977912
  30
0.108000
  70
32
  0
VERTEX
  8
GVSTracks
  10
31.951413
  20
93.461303
  30
0.108000
  70
32
  0
VERTEX
  8
GVSTracks
  10
32.110263
  20
93.936156
  30
0.110000
  70
32
  0
VERTEX
  8
GVSTracks
  10
32.272144
  20
94.410942
  30
0.111000
  70
32
  0
VERTEX
  8
GVSTracks
  10
32.434159
  20
94.888876
  30
0.112000
  70
32
  0
VERTEX
  8
GVSTracks
  10
32.593988
  20
95.368906
  30
0.114000
  70
32
  0
VERTEX
  8
GVSTracks
  10
32.751134
  20
95.852749
  30
0.115000
  70
32
  0
VERTEX
  8
GVSTracks
  10
32.906578
  20
96.338641
  30
0.115000
  70
32
  0
VERTEX
  8
GVSTracks
  10
33.062161
  20
96.826954
  30
0.116000
  70
32
  0
VERTEX
  8
GVSTracks
  10
33.218806
  20
97.317161
  30
0.116000
  70
32
  0
VERTEX
  8
GVSTracks
  10
33.370132
  20
97.794951
  30
0.116000
  70
32
  0
VERTEX
  8
GVSTracks
  10
33.520276
  20
98.274738
  30
0.115000
  70
32
  0
VERTEX
  8
GVSTracks
  10
33.669169
  20
98.756927
  30
0.115000
  70
32
  0
VERTEX
  8
GVSTracks
  10
33.817331
  20
99.240561
  30
0.113000
  70
32
  0
VERTEX
  8
GVSTracks
  10
33.962449
  20
99.727654
  30
0.110000
  70
32
  0
VERTEX
  8
GVSTracks
  10
34.106192
  20
100.216341
  30
0.107000
  70
32
  0
VERTEX
  8
GVSTracks
  10
34.251531
  20
100.706193
  30
0.104000
  70
32
  0
VERTEX
  8
GVSTracks
  10
34.392932
  20
101.199367
  30
0.101000
  70
32
  0
VERTEX
  8
GVSTracks
  10
34.533053
  20
101.694399
  30
0.099000
  70
32
  0
VERTEX
  8
GVSTracks
  10
34.659692
  20
102.178163
  30
0.098000
  70
32
  0
VERTEX
  8
GVSTracks
  10
34.786577
  20
102.663936
  30
0.099000
  70
32
  0
VERTEX
  8
GVSTracks
  10
34.912638
  20
103.150586
  30
0.102000
  70
32
  0
VERTEX
  8
GVSTracks
  10
35.038114
  20
103.639555
  30
0.106000
  70
32
  0
VERTEX
  8
GVSTracks
  10
35.161800
  20
104.129369
  30
0.110000
  70
32
  0
VERTEX
  8
GVSTracks
  10
35.285357
  20
104.618712
  30
0.114000
  70
32
  0
VERTEX
  8
GVSTracks
  10
35.413491
  20
105.109233
  30
0.120000
  70
32
  0
VERTEX
  8
GVSTracks
  10
35.539774
  20
105.600238
  30
0.126000
  70
32
  0
VERTEX
  8
GVSTracks
  10
35.664051
  20
106.094421
  30
0.131000
  70
32
  0
VERTEX
  8
GVSTracks
  10
35.787768
  20
106.587972
  30
0.136000
  70
32
  0
VERTEX
  8
GVSTracks
  10
35.916459
  20
107.081750
  30
0.140000
  70
32
  0
VERTEX
  8
GVSTracks
  10
36.042196
  20
107.575759
  30
0.143000
  70
32
  0
VERTEX
  8
GVSTracks
  10
36.169828
  20
108.071138
  30
0.147000
  70
32
  0
VERTEX
  8
GVSTracks
  10
36.295905
  20
108.566727
  30
0.149000
  70
32
  0
VERTEX
  8
GVSTracks
  10
36.422137
  20
109.062941
  30
0.150000
  70
32
  0
VERTEX
  8
GVSTracks
  10
36.549468
  20
109.559836
  30
0.151000
  70
32
  0
VERTEX
  8
GVSTracks
  10
36.676733
  20
110.057100
  30
0.151000
  70
32
  0
VERTEX
  8
GVSTracks
  10
36.803634
  20
110.555732
  30
0.152000
  70
32
  0
VERTEX
  8
GVSTracks
  10
36.929994
  20
111.054529
  30
0.152000
  70
32
  0
VERTEX
  8
GVSTracks
  10
37.057959
  20
111.553938
  30
0.153000
  70
32
  0
VERTEX
  8
GVSTracks
  10
37.186536
  20
112.053986
  30
0.156000
  70
32
  0
VERTEX
  8
GVSTracks
  10
37.310801
  20
112.538890
  30
0.159000
  70
32
  0
VERTEX
  8
GVSTracks
  10
37.434835
  20
113.023611
  30
0.161000
  70
32
  0
VERTEX
  8
GVSTracks
  10
37.558980
  20
113.509002
  30
0.164000
  70
32
  0
VERTEX
  8
GVSTracks
  10
37.684048
  20
113.995464
  30
0.167000
  70
32
  0
VERTEX
  8
GVSTracks
  10
37.809390
  20
114.481674
  30
0.170000
  70
32
  0
VERTEX
  8
GVSTracks
  10
37.933944
  20
114.969057
  30
0.173000
  70
32
  0
VERTEX
  8
GVSTracks
  10
38.058164
  20
115.456633
  30
0.175000
  70
32
  0
VERTEX
  8
GVSTracks
  10
38.183738
  20
115.944233
  30
0.177000
  70
32
  0
VERTEX
  8
GVSTracks
  10
38.310381
  20
116.432486
  30
0.179000
  70
32
  0
VERTEX
  8
GVSTracks
  10
38.437115
  20
116.921518
  30
0.182000
  70
32
  0
VERTEX
  8
GVSTracks
  10
38.565935
  20
117.410337
  30
0.183000
  70
32
  0
VERTEX
  8
GVSTracks
  10
38.702526
  20
117.897022
  30
0.184000
  70
32
  0
VERTEX
  8
GVSTracks
  10
38.823944
  20
118.389586
  30
0.187000
  70
32
  0
VERTEX
  8
GVSTracks
  10
38.951941
  20
118.880277
  30
0.188000
  70
32
  0
VERTEX
  8
GVSTracks
  10
39.085469
  20
119.369326
  30
0.189000
  70
32
  0
VERTEX
  8
GVSTracks
  10
39.219644
  20
119.858703
  30
0.193000
  70
32
  0
VERTEX
  8
GVSTracks
  10
39.344778
  20
120.349108
  30
0.193000
  70
32
  0
VERTEX
  8
GVSTracks
  10
39.476640
  20
120.840199
  30
0.195000
  70
32
  0
VERTEX
  8
GVSTracks
  10
39.606019
  20
121.330253
  30
0.196000
  70
32
  0
VERTEX
  8
GVSTracks
  10
39.734291
  20
121.822591
  30
0.197000
  70
32
  0
VERTEX
  8
GVSTracks
  10
39.862941
  20
122.315384
  30
0.199000
  70
32
  0
VERTEX
  8
GVSTracks
  10
39.991598
  20
122.807839
  30
0.201000
  70
32
  0
VERTEX
  8
GVSTracks
  10
40.120554
  20
123.300800
  30
0.202000
  70
32
  0
VERTEX
  8
GVSTracks
  10
40.249770
  20
123.795394
  30
0.204000
  70
32
  0
VERTEX
  8
GVSTracks
  10
40.380702
  20
124.289762
  30
0.206000
  70
32
  0
VERTEX
  8
GVSTracks
  10
40.511646
  20
124.784572
  30
0.207000
  70
32
  0
VERTEX
  8
GVSTracks
  10
40.643386
  20
125.279769
  30
0.209000
  70
32
  0
VERTEX
  8
GVSTracks
  10
40.773504
  20
125.774853
  30
0.210000
  70
32
  0
VERTEX
  8
GVSTracks
  10
40.905425
  20
126.269924
  30
0.212000
  70
32
  0
VERTEX
  8
GVSTracks
  10
41.038188
  20
126.765126
  30
0.214000
  70
32
  0
VERTEX
  8
GVSTracks
  10
41.171541
  20
127.260082
  30
0.216000
  70
32
  0
VERTEX
  8
GVSTracks
  10
41.301833
  20
127.756586
  30
0.219000
  70
32
  0
VERTEX
  8
GVSTracks
  10
41.435135
  20
128.251837
  30
0.221000
  70
32
  0
VERTEX
  8
GVSTracks
  10
41.566924
  20
128.746651
  30
0.224000
  70
32
  0
VERTEX
  8
GVSTracks
  10
41.698635
  20
129.242209
  30
0.226000
  70
32
  0
VERTEX
  8
GVSTracks
  10
41.828684
  20
129.738691
  30
0.229000
  70
32
  0
VERTEX
  8
GVSTracks
  10
41.957602
  20
130.235581
  30
0.231000
  70
32
  0
VERTEX
  8
GVSTracks
  10
42.086728
  20
130.732589
  30
0.232000
  70
32
  0
VERTEX
  8
GVSTracks
  10
42.212662
  20
131.231187
  30
0.233000
  70
32
  0
VERTEX
  8
GVSTracks
  10
42.344037
  20
131.727452
  30
0.236000
  70
32
  0
VERTEX
  8
GVSTracks
  10
42.472754
  20
132.225182
  30
0.237000
  70
32
  0
VERTEX
  8
GVSTracks
  10
42.600674
  20
132.722826
  30
0.237000
  70
32
  0
VERTEX
  8
GVSTracks
  10
42.728758
  20
133.220542
  30
0.239000
  70
32
  0
VERTEX
  8
GVSTracks
  10
42.860417
  20
133.716696
  30
0.240000
  70
32
  0
VERTEX
  8
GVSTracks
  10
42.988881
  20
134.214956
  30
0.241000
  70
32
  0
VERTEX
  8
GVSTracks
  10
43.117583
  20
134.712973
  30
0.242000
  70
32
  0
VERTEX
  8
GVSTracks
  10
43.245942
  20
135.210527
  30
0.242000
  70
32
  0
VERTEX
  8
GVSTracks
  10
43.374966
  20
135.708513
  30
0.242000
  70
32
  0
VERTEX
  8
GVSTracks
  10
43.509230
  20
136.203710
  30
0.242000
  70
32
  0
VERTEX
  8
GVSTracks
  10
43.645067
  20
136.699792
  30
0.241000
  70
32
  0
VERTEX
  8
GVSTracks
  10
43.783026
  20
137.194750
  30
0.240000
  70
32
  0
VERTEX
  8
GVSTracks
  10
43.923467
  20
137.687941
  30
0.238000
  70
32
  0
VERTEX
  8
GVSTracks
  10
44.066385
  20
138.181604
  30
0.237000
  70
32
  0
VERTEX
  8
GVSTracks
  10
44.212643
  20
138.674337
  30
0.237000
  70
32
  0
VERTEX
  8
GVSTracks
  10
44.360745
  20
139.166019
  30
0.237000
  70
32
  0
VERTEX
  8
GVSTracks
  10
44.510488
  20
139.657704
  30
0.237000
  70
32
  0
VERTEX
  8
GVSTracks
  10
44.663157
  20
140.147710
  30
0.237000
  70
32
  0
VERTEX
  8
GVSTracks
  10
44.817762
  20
140.636239
  30
0.238000
  70
32
  0
VERTEX
  8
GVSTracks
  10
44.974599
  20
141.124224
  30
0.238000
  70
32
  0
VERTEX
  8
GVSTracks
  10
45.133885
  20
141.611533
  30
0.239000
  70
32
  0
VERTEX
  8
GVSTracks
  10
45.294601
  20
142.097733
  30
0.239000
  70
32
  0
VERTEX
  8
GVSTracks
  10
45.457327
  20
142.583346
  30
0.240000
  70
32
  0
VERTEX
  8
GVSTracks
  10
45.621339
  20
143.067969
  30
0.240000
  70
32
  0
VERTEX
  8
GVSTracks
  10
45.786134
  20
143.551847
  30
0.240000
  70
32
  0
VERTEX
  8
GVSTracks
  10
45.952081
  20
144.033095
  30
0.241000
  70
32
  0
VERTEX
  8
GVSTracks
  10
46.118991
  20
144.513384
  30
0.240000
  70
32
  0
VERTEX
  8
GVSTracks
  10
46.289493
  20
144.993419
  30
0.240000
  70
32
  0
VERTEX
  8
GVSTracks
  10
46.459099
  20
145.473228
  30
0.240000
  70
32
  0
VERTEX
  8
GVSTracks
  10
46.631023
  20
145.952707
  30
0.239000
  70
32
  0
VERTEX
  8
GVSTracks
  10
46.804786
  20
146.432166
  30
0.240000
  70
32
  0
VERTEX
  8
GVSTracks
  10
46.981929
  20
146.910172
  30
0.240000
  70
32
  0
VERTEX
  8
GVSTracks
  10
47.158818
  20
147.387113
  30
0.239000
  70
32
  0
VERTEX
  8
GVSTracks
  10
47.337102
  20
147.865455
  30
0.239000
  70
32
  0
VERTEX
  8
GVSTracks
  10
47.517411
  20
148.344128
  30
0.240000
  70
32
  0
VERTEX
  8
GVSTracks
  10
47.698402
  20
148.822433
  30
0.241000
  70
32
  0
VERTEX
  8
GVSTracks
  10
47.882226
  20
149.300390
  30
0.242000
  70
32
  0
VERTEX
  8
GVSTracks
  10
48.068014
  20
149.778017
  30
0.243000
  70
32
  0
VERTEX
  8
GVSTracks
  10
48.254438
  20
150.254841
  30
0.245000
  70
32
  0
VERTEX
  8
GVSTracks
  10
48.441387
  20
150.731486
  30
0.248000
  70
32
  0
VERTEX
  8
GVSTracks
  10
48.629508
  20
151.208496
  30
0.251000
  70
32
  0
VERTEX
  8
GVSTracks
  10
48.819712
  20
151.684904
  30
0.254000
  70
32
  0
VERTEX
  8
GVSTracks
  10
49.012285
  20
152.160687
  30
0.258000
  70
32
  0
VERTEX
  8
GVSTracks
  10
49.206546
  20
152.636001
  30
0.262000
  70
32
  0
VERTEX
  8
GVSTracks
  10
49.402699
  20
153.110698
  30
0.266000
  70
32
  0
VERTEX
  8
GVSTracks
  10
49.602456
  20
153.583171
  30
0.270000
  70
32
  0
VERTEX
  8
GVSTracks
  10
49.802951
  20
154.055155
  30
0.274000
  70
32
  0
VERTEX
  8
GVSTracks
  10
50.004384
  20
154.526629
  30
0.277000
  70
32
  0
VERTEX
  8
GVSTracks
  10
50.207091
  20
154.996672
  30
0.280000
  70
32
  0
VERTEX
  8
GVSTracks
  10
50.412929
  20
155.466485
  30
0.282000
  70
32
  0
VERTEX
  8
GVSTracks
  10
50.615185
  20
155.935786
  30
0.283000
  70
32
  0
VERTEX
  8
GVSTracks
  10
50.819193
  20
156.404854
  30
0.283000
  70
32
  0
VERTEX
  8
GVSTracks
  10
51.023077
  20
156.874835
  30
0.284000
  70
32
  0
VERTEX
  8
GVSTracks
  10
51.228374
  20
157.343001
  30
0.286000
  70
32
  0
VERTEX
  8
GVSTracks
  10
51.425817
  20
157.816283
  30
0.286000
  70
32
  0
VERTEX
  8
GVSTracks
  10
51.628682
  20
158.284626
  30
0.285000
  70
32
  0
VERTEX
  8
GVSTracks
  10
51.837914
  20
158.753001
  30
0.286000
  70
32
  0
VERTEX
  8
GVSTracks
  10
52.037862
  20
159.222773
  30
0.289000
  70
32
  0
VERTEX
  8
GVSTracks
  10
52.242879
  20
159.692735
  30
0.293000
  70
32
  0
VERTEX
  8
GVSTracks
  10
52.450480
  20
160.161248
  30
0.298000
  70
32
  0
VERTEX
  8
GVSTracks
  10
52.651310
  20
160.635240
  30
0.304000
  70
32
  0
VERTEX
  8
GVSTracks
  10
52.853494
  20
161.104947
  30
0.308000
  70
32
  0
VERTEX
  8
GVSTracks
  10
53.057300
  20
161.573257
  30
0.312000
  70
32
  0
VERTEX
  8
GVSTracks
  10
53.264942
  20
162.042844
  30
0.318000
  70
32
  0
VERTEX
  8
GVSTracks
  10
53.470828
  20
162.512878
  30
0.322000
  70
32
  0
VERTEX
  8
GVSTracks
  10
53.675763
  20
162.982201
  30
0.325000
  70
32
  0
VERTEX
  8
GVSTracks
  10
53.882459
  20
163.451341
  30
0.327000
  70
32
  0
VERTEX
  8
GVSTracks
  10
54.088220
  20
163.922288
  30
0.330000
  70
32
  0
VERTEX
  8
GVSTracks
  10
54.295161
  20
164.391840
  30
0.331000
  70
32
  0
VERTEX
  8
GVSTracks
  10
54.500407
  20
164.862802
  30
0.331000
  70
32
  0
VERTEX
  8
GVSTracks
  10
54.705836
  20
165.335538
  30
0.331000
  70
32
  0
VERTEX
  8
GVSTracks
  10
54.905321
  20
165.809946
  30
0.331000
  70
32
  0
VERTEX
  8
GVSTracks
  10
55.104451
  20
166.286680
  30
0.331000
  70
32
  0
VERTEX
  8
GVSTracks
  10
55.301510
  20
166.764245
  30
0.332000
  70
32
  0
VERTEX
  8
GVSTracks
  10
55.495953
  20
167.242237
  30
0.332000
  70
32
  0
VERTEX
  8
GVSTracks
  10
55.691386
  20
167.720115
  30
0.333000
  70
32
  0
VERTEX
  8
GVSTracks
  10
55.885283
  20
168.198999
  30
0.334000
  70
32
  0
VERTEX
  8
GVSTracks
  10
56.077416
  20
168.678579
  30
0.335000
  70
32
  0
VERTEX
  8
GVSTracks
  10
56.267931
  20
169.158827
  30
0.337000
  70
32
  0
VERTEX
  8
GVSTracks
  10
56.456163
  20
169.639611
  30
0.339000
  70
32
  0
VERTEX
  8
GVSTracks
  10
56.643376
  20
170.120567
  30
0.341000
  70
32
  0
VERTEX
  8
GVSTracks
  10
56.830372
  20
170.601958
  30
0.344000
  70
32
  0
VERTEX
  8
GVSTracks
  10
57.016247
  20
171.083897
  30
0.346000
  70
32
  0
VERTEX
  8
GVSTracks
  10
57.201944
  20
171.564542
  30
0.348000
  70
32
  0
VERTEX
  8
GVSTracks
  10
57.387365
  20
172.046555
  30
0.351000
  70
32
  0
VERTEX
  8
GVSTracks
  10
57.570088
  20
172.529048
  30
0.353000
  70
32
  0
VERTEX
  8
GVSTracks
  10
57.753551
  20
173.011657
  30
0.355000
  70
32
  0
VERTEX
  8
GVSTracks
  10
57.935831
  20
173.494062
  30
0.357000
  70
32
  0
VERTEX
  8
GVSTracks
  10
58.115955
  20
173.976784
  30
0.359000
  70
32
  0
VERTEX
  8
GVSTracks
  10
58.295170
  20
174.459957
  30
0.360000
  70
32
  0
VERTEX
  8
GVSTracks
  10
58.473571
  20
174.943544
  30
0.362000
  70
32
  0
VERTEX
  8
GVSTracks
  10
58.650326
  20
175.427555
  30
0.363000
  70
32
  0
VERTEX
  8
GVSTracks
  10
58.826393
  20
175.912364
  30
0.365000
  70
32
  0
VERTEX
  8
GVSTracks
  10
59.001707
  20
176.397645
  30
0.367000
  70
32
  0
VERTEX
  8
GVSTracks
  10
59.175284
  20
176.883564
  30
0.369000
  70
32
  0
VERTEX
  8
GVSTracks
  10
59.348551
  20
177.370647
  30
0.370000
  70
32
  0
VERTEX
  8
GVSTracks
  10
59.514919
  20
177.842351
  30
0.372000
  70
32
  0
VERTEX
  8
GVSTracks
  10
59.680463
  20
178.315625
  30
0.373000
  70
32
  0
VERTEX
  8
GVSTracks
  10
59.845562
  20
178.789629
  30
0.374000
  70
32
  0
VERTEX
  8
GVSTracks
  10
60.009430
  20
179.264806
  30
0.375000
  70
32
  0
VERTEX
  8
GVSTracks
  10
60.172307
  20
179.741303
  30
0.376000
  70
32
  0
VERTEX
  8
GVSTracks
  10
60.335111
  20
180.218419
  30
0.376000
  70
32
  0
VERTEX
  8
GVSTracks
  10
60.492303
  20
180.697530
  30
0.378000
  70
32
  0
VERTEX
  8
GVSTracks
  10
60.649269
  20
181.177628
  30
0.379000
  70
32
  0
VERTEX
  8
GVSTracks
  10
60.804133
  20
181.658438
  30
0.380000
  70
32
  0
VERTEX
  8
GVSTracks
  10
60.957803
  20
182.141018
  30
0.382000
  70
32
  0
VERTEX
  8
GVSTracks
  10
61.111052
  20
182.624180
  30
0.384000
  70
32
  0
VERTEX
  8
GVSTracks
  10
61.264054
  20
183.108351
  30
0.386000
  70
32
  0
VERTEX
  8
GVSTracks
  10
61.417411
  20
183.592307
  30
0.387000
  70
32
  0
VERTEX
  8
GVSTracks
  10
61.570033
  20
184.076928
  30
0.388000
  70
32
  0
VERTEX
  8
GVSTracks
  10
61.723002
  20
184.561887
  30
0.388000
  70
32
  0
VERTEX
  8
GVSTracks
  10
61.875829
  20
185.048258
  30
0.388000
  70
32
  0
VERTEX
  8
GVSTracks
  10
62.020918
  20
185.536065
  30
0.389000
  70
32
  0
VERTEX
  8
GVSTracks
  10
62.164215
  20
186.023723
  30
0.391000
  70
32
  0
VERTEX
  8
GVSTracks
  10
62.308189
  20
186.513159
  30
0.393000
  70
32
  0
VERTEX
  8
GVSTracks
  10
62.449032
  20
187.003429
  30
0.395000
  70
32
  0
VERTEX
  8
GVSTracks
  10
62.588029
  20
187.494057
  30
0.399000
  70
32
  0
VERTEX
  8
GVSTracks
  10
62.724485
  20
187.984281
  30
0.402000
  70
32
  0
VERTEX
  8
GVSTracks
  10
62.859003
  20
188.475291
  30
0.405000
  70
32
  0
VERTEX
  8
GVSTracks
  10
62.991379
  20
188.967536
  30
0.408000
  70
32
  0
VERTEX
  8
GVSTracks
  10
63.122264
  20
189.459925
  30
0.410000
  70
32
  0
VERTEX
  8
GVSTracks
  10
63.250860
  20
189.953189
  30
0.411000
  70
32
  0
VERTEX
  8
GVSTracks
  10
63.378804
  20
190.447845
  30
0.413000
  70
32
  0
VERTEX
  8
GVSTracks
  10
63.505220
  20
190.943470
  30
0.415000
  70
32
  0
VERTEX
  8
GVSTracks
  10
63.630620
  20
191.440349
  30
0.417000
  70
32
  0
VERTEX
  8
GVSTracks
  10
63.755568
  20
191.938296
  30
0.419000
  70
32
  0
VERTEX
  8
GVSTracks
  10
63.879453
  20
192.437063
  30
0.421000
  70
32
  0
VERTEX
  8
GVSTracks
  10
64.002279
  20
192.936737
  30
0.423000
  70
32
  0
VERTEX
  8
GVSTracks
  10
64.124137
  20
193.437497
  30
0.425000
  70
32
  0
VERTEX
  8
GVSTracks
  10
64.244552
  20
193.939136
  30
0.427000
  70
32
  0
VERTEX
  8
GVSTracks
  10
64.364661
  20
194.441210
  30
0.429000
  70
32
  0
VERTEX
  8
GVSTracks
  10
64.482750
  20
194.944334
  30
0.431000
  70
32
  0
VERTEX
  8
GVSTracks
  10
64.599621
  20
195.448559
  30
0.434000
  70
32
  0
VERTEX
  8
GVSTracks
  10
64.710917
  20
195.936798
  30
0.436000
  70
32
  0
VERTEX
  8
GVSTracks
  10
64.821415
  20
196.426371
  30
0.438000
  70
32
  0
VERTEX
  8
GVSTracks
  10
64.931418
  20
196.916844
  30
0.439000
  70
32
  0
VERTEX
  8
GVSTracks
  10
65.041176
  20
197.408413
  30
0.440000
  70
32
  0
VERTEX
  8
GVSTracks
  10
65.147966
  20
197.901102
  30
0.440000
  70
32
  0
VERTEX
  8
GVSTracks
  10
65.254557
  20
198.394115
  30
0.440000
  70
32
  0
VERTEX
  8
GVSTracks
  10
65.360935
  20
198.888645
  30
0.439000
  70
32
  0
VERTEX
  8
GVSTracks
  10
65.464695
  20
199.383602
  30
0.437000
  70
32
  0
VERTEX
  8
GVSTracks
  10
65.565554
  20
199.880002
  30
0.435000
  70
32
  0
VERTEX
  8
GVSTracks
  10
65.665717
  20
200.376846
  30
0.434000
  70
32
  0
VERTEX
  8
GVSTracks
  10
65.766402
  20
200.873938
  30
0.433000
  70
32
  0
VERTEX
  8
GVSTracks
  10
65.868992
  20
201.371635
  30
0.434000
  70
32
  0
VERTEX
  8
GVSTracks
  10
65.970431
  20
201.870152
  30
0.435000
  70
32
  0
VERTEX
  8
GVSTracks
  10
66.071535
  20
202.369075
  30
0.438000
  70
32
  0
VERTEX
  8
GVSTracks
  10
66.172806
  20
202.868550
  30
0.441000
  70
32
  0
VERTEX
  8
GVSTracks
  10
66.273250
  20
203.368512
  30
0.444000
  70
32
  0
VERTEX
  8
GVSTracks
  10
66.372622
  20
203.868853
  30
0.447000
  70
32
  0
VERTEX
  8
GVSTracks
  10
66.470957
  20
204.369564
  30
0.450000
  70
32
  0
VERTEX
  8
GVSTracks
  10
66.568588
  20
204.870970
  30
0.453000
  70
32
  0
VERTEX
  8
GVSTracks
  10
66.665001
  20
205.372872
  30
0.455000
  70
32
  0
VERTEX
  8
GVSTracks
  10
66.760514
  20
205.874975
  30
0.457000
  70
32
  0
VERTEX
  8
GVSTracks
  10
66.856773
  20
206.376855
  30
0.458000
  70
32
  0
VERTEX
  8
GVSTracks
  10
66.952025
  20
206.878834
  30
0.460000
  70
32
  0
VERTEX
  8
GVSTracks
  10
67.047088
  20
207.381189
  30
0.461000
  70
32
  0
VERTEX
  8
GVSTracks
  10
67.141478
  20
207.884355
  30
0.463000
  70
32
  0
VERTEX
  8
GVSTracks
  10
67.233896
  20
208.388403
  30
0.465000
  70
32
  0
VERTEX
  8
GVSTracks
  10
67.326492
  20
208.892236
  30
0.466000
  70
32
  0
VERTEX
  8
GVSTracks
  10
67.417726
  20
209.396685
  30
0.466000
  70
32
  0
VERTEX
  8
GVSTracks
  10
67.507940
  20
209.901217
  30
0.465000
  70
32
  0
VERTEX
  8
GVSTracks
  10
67.597818
  20
210.406155
  30
0.462000
  70
32
  0
VERTEX
  8
GVSTracks
  10
67.687820
  20
210.911387
  30
0.459000
  70
32
  0
VERTEX
  8
GVSTracks
  10
67.778946
  20
211.416851
  30
0.455000
  70
32
  0
VERTEX
  8
GVSTracks
  10
67.870906
  20
211.922091
  30
0.451000
  70
32
  0
VERTEX
  8
GVSTracks
  10
67.966046
  20
212.427021
  30
0.446000
  70
32
  0
VERTEX
  8
GVSTracks
  10
68.060993
  20
212.931936
  30
0.442000
  70
32
  0
VERTEX
  8
GVSTracks
  10
68.155983
  20
213.437411
  30
0.440000
  70
32
  0
VERTEX
  8
GVSTracks
  10
68.247100
  20
213.945236
  30
0.438000
  70
32
  0
VERTEX
  8
GVSTracks
  10
68.333563
  20
214.452929
  30
0.436000
  70
32
  0
VERTEX
  8
GVSTracks
  10
68.421632
  20
214.960719
  30
0.434000
  70
32
  0
VERTEX
  8
GVSTracks
  10
68.511848
  20
215.469048
  30
0.431000
  70
32
  0
VERTEX
  8
GVSTracks
  10
68.598631
  20
215.977828
  30
0.426000
  70
32
  0
VERTEX
  8
GVSTracks
  10
68.689098
  20
216.485538
  30
0.419000
  70
32
  0
VERTEX
  8
GVSTracks
  10
68.780178
  20
216.993673
  30
0.414000
  70
32
  0
VERTEX
  8
GVSTracks
  10
68.873485
  20
217.501992
  30
0.408000
  70
32
  0
VERTEX
  8
GVSTracks
  10
68.967804
  20
218.010478
  30
0.403000
  70
32
  0
SEQEND
  8
GVSTracks
  0
ENDSEC
  0
EOF
