<svg id="Calque_1" data-name="Calque 1" xmlns="http://www.w3.org/2000/svg" viewBox="0 0 32 32"><defs><style>.cls-1{fill:#fff;stroke:#fff;stroke-width:0.5px;}.cls-1,.cls-3,.cls-4{stroke-miterlimit:10;}.cls-2{fill:#22b14c;}.cls-3,.cls-4{fill:none;stroke:#22b14c;}.cls-4{stroke-width:2px;}</style></defs><title>MeshWizard-Fast</title><g id="cheetah"><path class="cls-1" d="M31.27,9.87c-.4-.69-.28-.67-.44-.84l-.17-.14a7.4,7.4,0,0,0-1.3-.37,1,1,0,0,0-.72-.28c-.38,0-.54.4-1.71,1.43a5.73,5.73,0,0,1-1.53.94,6.27,6.27,0,0,1-3.21.3,15.69,15.69,0,0,1-2.51-.65,27.55,27.55,0,0,0-3.56-1.08,9.12,9.12,0,0,0-2.76,0,7.27,7.27,0,0,0-4.14,1.68c-.39.36-.18.27-1.78,2.67A15.41,15.41,0,0,1,5.32,16.3a4.48,4.48,0,0,1-2.17,1.43,6.61,6.61,0,0,1-1.88.2c-.36,0-.66-.13-.84.05a.87.87,0,0,0,0,1c.49.63,1.89.29,2.47.15a7.51,7.51,0,0,0,3.4-2A14.42,14.42,0,0,0,7.69,15.4c.69-1,1-1.46,1.33-2,.41-.73.63-1.27.89-1.24h0A14.11,14.11,0,0,0,11,13.62c.23.23.38.25.59.56a2.3,2.3,0,0,1,.24.5,17.29,17.29,0,0,1,.47,1.85.6.6,0,0,0,.1.35,4.65,4.65,0,0,0,.2.52,12.13,12.13,0,0,0,.93,1.6,7.18,7.18,0,0,0,1.12,1.34,1.24,1.24,0,0,0,.69.35c.05,0,.44,0,.55-.15s0-.32-.34-.82l-.59-1a4.35,4.35,0,0,1-.61-1.17,1.34,1.34,0,0,0-.09-.36,3.35,3.35,0,0,1-.14-.83,3.46,3.46,0,0,1,.25-1.09c.19-.59.3-.71.42-.74a.38.38,0,0,1,.29.06c.84.42,2.38.56,3,.82a3.33,3.33,0,0,1,.5.25,3.54,3.54,0,0,1,.58.44c.36.32.56.49.64.79,0,.12.1.41-.44,1.53a6.16,6.16,0,0,1-.79,1.39,2.74,2.74,0,0,1-1.38,1.08,1.72,1.72,0,0,0-.73.32,1.45,1.45,0,0,0-.3.39.82.82,0,0,0-.11.7.68.68,0,0,0,.39.27.69.69,0,0,0,.35,0c.31,0,.52-.21,1-.56l.66-.48a5.14,5.14,0,0,0,1.22-.9,8.47,8.47,0,0,0,.69-.89A9,9,0,0,0,21,18.67c.26-.52.23-.63.39-.74a1.14,1.14,0,0,1,1.43.29c.2.24.22.53.25,1.09,0,.75.07,1.18-.2,1.54a3,3,0,0,1-.93.69c-.36.21-.58.3-.6.49a.54.54,0,0,0,.3.45c.16.08.36.09.89-.1a2.79,2.79,0,0,0,1.33-.74,2.37,2.37,0,0,0,.39-1.39,11.71,11.71,0,0,0-.09-1.18,5.15,5.15,0,0,1-.07-1.66,3,3,0,0,1,.26-.76c.49-.91,1.22-.67,2.15-1.52.71-.65,1.39-1.81,1.85-2.25l.28-.24a3.94,3.94,0,0,1,.48-.31h.08c.78-.39,1.18-.16,1.77-.59.28-.2.76-.55.74-1C31.71,10.5,31.6,10.43,31.27,9.87ZM30,10.18c-.26,0-.46-.34-.44-.63S29.73,9,30,9s.46.3.47.56S30.24,10.19,30,10.18Z"/></g><g id="mesh"><path class="cls-2" d="M31.16,16,18,18.91l0,11.6,13.18,1ZM29.91,30.31l-10.85-.86L19,19.77l10.92-2.35Z"/><polygon class="cls-3" points="29.91 17.42 29.91 30.31 19.06 29.45 18.99 19.77 29.91 17.42"/><line class="cls-4" x1="19.12" y1="29.45" x2="29.9" y2="17.83"/></g></svg>