<svg id="Calque_1" data-name="Calque 1" xmlns="http://www.w3.org/2000/svg" viewBox="0 0 32 32"><defs><style>.cls-1,.cls-2{fill:#fff;}.cls-1{stroke:#fff;stroke-width:0.25px;}.cls-1,.cls-4,.cls-5{stroke-miterlimit:10;}.cls-3{fill:#22b14c;}.cls-4,.cls-5{fill:none;stroke:#22b14c;}.cls-5{stroke-width:2px;}</style></defs><title>MeshWizard-Slow</title><g id="turtle"><path class="cls-1" d="M19.31,10.64a6.63,6.63,0,0,1-.07,1,10,10,0,0,1-.38,1.43,5.42,5.42,0,0,1-2.06,2.16c-1.26.9-2.48,1.87-3.76,2.75-2.74,1.88-3.5,2.32-3.87,2.52A13.4,13.4,0,0,1,5.72,22a7.62,7.62,0,0,1-2.56.17,2.54,2.54,0,0,1-1.79-.63,1.5,1.5,0,0,1-.39-1,1.59,1.59,0,0,1,.71-1.16c.31-.2.47-.13.68-.34a1.34,1.34,0,0,0,.3-1c0-1.29-.29-3.32-.34-4a6.57,6.57,0,0,1,1.39-4.3A7.88,7.88,0,0,1,7.26,7.34,6.89,6.89,0,0,1,10,6.62a5.36,5.36,0,0,1,2.75.53,8.35,8.35,0,0,1,1.76,1.32c.39.38.86.66,1.24,1a1,1,0,0,0,.42.26,1,1,0,0,0,.64,0c.39-.13.41-.33.75-.49h0A1.56,1.56,0,0,1,19,9.55,1.69,1.69,0,0,1,19.31,10.64Z"/><path class="cls-2" d="M30.43,7a6,6,0,0,0-3.22-1.74,6,6,0,0,0-5.52,2.48,7.25,7.25,0,0,0-1.27,2.71c-.27,1.23-.05,1.86-.56,3.05a5.18,5.18,0,0,1-.57,1,5.62,5.62,0,0,1-1.1,1.08C17,16.43,16,17.1,15.73,17.29c-.7.47-1.38.95-2.07,1.42-2.22,1.5-2.14,1.47-2.57,1.74a26.8,26.8,0,0,1-3.53,1.92h0a7.37,7.37,0,0,1-3.29.75,5.65,5.65,0,0,1-2.82-.43c-.16-.1-.68-.43-1-.25A1,1,0,0,0,0,23H0a1.14,1.14,0,0,0,.41,1.13,1.84,1.84,0,0,0,1.17.3c1.19.05,1.77-.26,2,0s-.21.48-.15,1.05a1.6,1.6,0,0,0,.67,1.12,1.82,1.82,0,0,0,1.61.12A2.26,2.26,0,0,0,6.69,26a3.15,3.15,0,0,0,.48-.81c.48-.94,1.92-1.2,3.15-1.41.94-.16.85,0,2.57-.19,2.72-.23,4.07-.35,4.25-.38.7-.1,1.24-.2,1.69.12s.37.66.77,1.44a3.46,3.46,0,0,0,1.6,1.79,2.27,2.27,0,0,0,2.41-.37,2.09,2.09,0,0,0,.52-1.4,2.75,2.75,0,0,0-.49-1.47A11.47,11.47,0,0,0,22.55,22a4.28,4.28,0,0,1-.71-2.19,5.71,5.71,0,0,1,.45-3.5,4.78,4.78,0,0,1,2.22-2.22,2.13,2.13,0,0,1,1.19-.26c.68.06.79.45,1.6.75a3.71,3.71,0,0,0,2.14.11,3.1,3.1,0,0,0,1.46-.64,3.41,3.41,0,0,0,1-2.1A5.83,5.83,0,0,0,30.43,7ZM28,10c-.24,0-.45-.61-.42-1.1s.24-1,.48-1,.49.56.48,1S28.25,10,28,10Z"/></g><g id="mesh"><path class="cls-3" d="M31.16,16,18,18.91l0,11.6,13.18,1ZM29.91,30.31l-10.85-.86L19,19.77l10.92-2.35Z"/><polygon class="cls-4" points="29.91 17.42 29.91 30.31 19.06 29.45 18.99 19.77 29.91 17.42"/><line class="cls-5" x1="19.12" y1="29.45" x2="29.9" y2="17.83"/></g></svg>