<svg id="Calque_1" data-name="Calque 1" xmlns="http://www.w3.org/2000/svg" viewBox="0 0 32 32"><defs><style>.cls-1{fill:#fff;stroke:#fff;stroke-width:0.25px;}.cls-1,.cls-3,.cls-4{stroke-miterlimit:10;}.cls-2{fill:#22b14c;}.cls-3,.cls-4{fill:none;stroke:#22b14c;}.cls-4{stroke-width:2px;}</style></defs><title>MeshWizard-Intermediate</title><g id="rabbit"><path class="cls-1" d="M30.55,8a4.45,4.45,0,0,0-1.79-1.62c-.93-.46-1.36-.25-3.05-.72a8.25,8.25,0,0,1-2.08-.76c-1.24-.7-1.16-1.24-2.57-2.37A9.63,9.63,0,0,0,18.22.9,8.73,8.73,0,0,0,15.59.37,6.74,6.74,0,0,0,12.32,1a4.32,4.32,0,0,0-.82.66,1.81,1.81,0,0,0-.53.75,1.45,1.45,0,0,0,.27,1.09C12.19,5.08,16,5.77,16,5.77a35.57,35.57,0,0,0,5.73.5h0a.62.62,0,0,1,.57.44c0,.22-.26.25-.54.69a2.83,2.83,0,0,0-.36,1.24v.6c-.35.5-1.89,0-2.84-.3-1.2-.4-1.66-.69-2.27-.92a8.17,8.17,0,0,0-5.93.42,6,6,0,0,0-3,2.45c-.8,1.49-.55,3-1.33,3.19-.51.16-.76-.46-1.87-.55A3.18,3.18,0,0,0,2.26,14a3.22,3.22,0,0,0-1.18,1.38A3.1,3.1,0,0,0,1,17.74,3.12,3.12,0,0,0,3,19.36a6,6,0,0,0,3.59-.56,18.32,18.32,0,0,0,1.29,1.35c1.33,1.23,2.93,2.26,3.66,2.08,0,0,.21-.07.27,0s-.13.38-.37.78a5.61,5.61,0,0,0-.56,1,1.68,1.68,0,0,0,.16,1.65,1.21,1.21,0,0,0,.26.2,3.83,3.83,0,0,0,1.88.6,8.24,8.24,0,0,1,5.06,2.82A6.64,6.64,0,0,0,20,31.19a3.06,3.06,0,0,0,1,.39,2.51,2.51,0,0,0,1.09,0A1.52,1.52,0,0,0,23.6,30,2.77,2.77,0,0,0,23,28.28c-1.23-1.85-4.47-3.75-4.93-4a.65.65,0,0,1-.33-.36.57.57,0,0,1,.08-.34,9,9,0,0,0,1.6-4.68,4.24,4.24,0,0,0-.26-1.32,4.42,4.42,0,0,0-.54-1.06,5,5,0,0,0-.83-1,3.24,3.24,0,0,0-1-.76c-.48-.18-.27-1,.21-.77a5.73,5.73,0,0,1,2.09,1.85A5.87,5.87,0,0,1,19.81,17a5.75,5.75,0,0,1,.38,1.52,7.65,7.65,0,0,1-.49,2.84,11.3,11.3,0,0,1-.93,2.07c-.09.15-.16.34-.08.46.21.32,1.45-.1,2.12-.42,2.32-1.12,3.27-3.74,3.56-4.55S25.28,16,25,15c0-.08-.16-.48,0-.57s.33.11.38.15A4.59,4.59,0,0,0,30.42,13,4.58,4.58,0,0,0,30.55,8ZM27.92,9.79c-.31,0-.6-.53-.6-1s.3-1,.62-1,.58.55.57,1S28.23,9.79,27.92,9.79Z"/></g><g id="mesh"><path class="cls-2" d="M31.16,16,18,18.91l0,11.6,13.18,1ZM29.91,30.31l-10.85-.86L19,19.77l10.92-2.35Z"/><polygon class="cls-3" points="29.91 17.42 29.91 30.31 19.06 29.45 18.99 19.77 29.91 17.42"/><line class="cls-4" x1="19.12" y1="29.45" x2="29.9" y2="17.83"/></g></svg>